/* XPM */
static char *result[] = {
/* columns rows colors chars-per-pixel */
"60 60 171 2 ",
"   c #110000",
".  c #120000",
"X  c #130000",
"o  c #150000",
"O  c #160000",
"+  c #160100",
"@  c #170100",
"#  c #190000",
"$  c #1A0000",
"%  c #190301",
"&  c #1A0200",
"*  c #1C0000",
"=  c #1D0000",
"-  c #200000",
";  c #220000",
":  c #230000",
">  c #200300",
",  c #270000",
"<  c #260100",
"1  c #270100",
"2  c #260300",
"3  c #210504",
"4  c #280100",
"5  c #2A0000",
"6  c #2B0000",
"7  c #2B0100",
"8  c #290200",
"9  c #290301",
"0  c #2D0100",
"q  c #2F0100",
"w  c #2D0300",
"e  c #280500",
"r  c #290500",
"t  c #2A0500",
"y  c #2D0600",
"u  c #200907",
"i  c #300100",
"p  c #310100",
"a  c #320100",
"s  c #320301",
"d  c #340100",
"f  c #340200",
"g  c #340300",
"h  c #300401",
"j  c #300501",
"k  c #330700",
"l  c #360700",
"z  c #380300",
"x  c #380401",
"c  c #3A0400",
"v  c #3A0700",
"b  c #390502",
"n  c #3A0502",
"m  c #3C0400",
"M  c #3E0702",
"N  c #3C0704",
"B  c #350B05",
"V  c #3D0900",
"C  c #3E0907",
"Z  c #3F0A07",
"A  c #380C06",
"S  c #3B1B15",
"D  c #4B0500",
"F  c #410900",
"G  c #420800",
"H  c #420900",
"J  c #410903",
"K  c #440900",
"L  c #470A00",
"P  c #460B00",
"I  c #470B00",
"U  c #440D03",
"Y  c #450D06",
"T  c #480A00",
"R  c #480B00",
"E  c #490B00",
"W  c #4A0B00",
"Q  c #490C00",
"!  c #4A0C00",
"~  c #4B0C00",
"^  c #4C0C00",
"/  c #4D0C00",
"(  c #4C0D01",
")  c #4D0E01",
"_  c #4F0F02",
"`  c #4A0F05",
"'  c #520600",
"]  c #580600",
"[  c #5E0700",
"{  c #4D1309",
"}  c #521203",
"|  c #541303",
" . c #521505",
".. c #521406",
"X. c #521506",
"o. c #571605",
"O. c #561506",
"+. c #5A1806",
"@. c #5B1906",
"#. c #5C1906",
"$. c #51150A",
"%. c #571A08",
"&. c #561C0D",
"*. c #591808",
"=. c #5E1B0A",
"-. c #5F1C0A",
";. c #5C1D0E",
":. c #481B15",
">. c #650F07",
",. c #611D08",
"<. c #631F09",
"1. c #5F2512",
"2. c #64200A",
"3. c #64210A",
"4. c #65210A",
"5. c #66210A",
"6. c #67230B",
"7. c #66220E",
"8. c #68230B",
"9. c #69240C",
"0. c #632517",
"q. c #662415",
"w. c #682512",
"e. c #6A2513",
"r. c #6D2714",
"t. c #6F2810",
"y. c #6F2910",
"u. c #6D2812",
"i. c #622C1D",
"p. c #722B13",
"a. c #722C13",
"s. c #712C17",
"d. c #732D16",
"f. c #6D381E",
"g. c #783017",
"h. c #75331A",
"j. c #76331A",
"k. c #72351B",
"l. c #74341B",
"z. c #73301D",
"x. c #71361C",
"c. c #70371D",
"v. c #793118",
"b. c #572D23",
"n. c #5D3025",
"m. c #612D23",
"M. c #6B2E23",
"N. c #6B3A20",
"B. c #703729",
"V. c #773D2F",
"C. c #7E3D2F",
"Z. c #723F30",
"A. c #793F30",
"S. c #843F28",
"D. c #884027",
"F. c #95472D",
"G. c #8A4430",
"H. c #8E4B39",
"J. c #934A31",
"K. c #9C4C31",
"L. c #8E513E",
"P. c #8F523F",
"I. c #96513E",
"U. c #9D533A",
"Y. c #A1533E",
"T. c #A35A40",
"R. c #A75D44",
"E. c #AC634C",
"W. c #B2674E",
"Q. c #B76C53",
"!. c None",
/* pixels */
"!.!.!.!.!.!.!.!.!.!.!.!.!.!.!.!.!.!.!.!.!.!.!.!.!.!.!.!.!.!.!.!.!.!.!.!.!.!.!.!.!.!.!.!.!.!.!.!.!.!.!.!.!.!.!.!.!.!.!.!.",
"!.!.!.!.!.!.!.!.!.!.!.!.!.!.!.!.!.!.!.!.!.!.!.!.!.!.!.!.!.!.!.!.!.!.!.!.!.!.!.!.!.!.!.!.!.!.!.!.!.!.!.!.!.!.!.!.!.!.!.!.",
"!.!.!.!.!.!.!.!.!.!.!.!.!.!.!.!.!.!.!.!.!.!.!.!.!.!.!.!.!.!.!.!.!.!.!.!.!.!.!.!.!.!.!.!.!.!.!.!.!.!.!.!.!.!.!.!.!.!.!.!.",
"!.!.!.!.!.!.!.!.!.!.!.!.!.!.!.!.!.!.!.!.!.!.!.!.!.!.!.!.!.!.!.!.!.!.!.!.!.!.!.!.!.!.!.!.!.!.!.!.!.!.!.!.!.!.!.!.!.!.!.!.",
"!.!.!.!.!.!.!.!.!.!.!.!.!.!.!.!.!.!.!.!.!.!.!.!.!.!.!.!.!.!.!.!.!.!.!.!.!.!.!.!.!.!.!.!.!.!.!.!.!.!.!.!.!.!.!.!.!.!.!.!.",
"!.!.!.!.!.!.!.!.!.!.!.!.!.!.!.!.!.!.!.!.!.!.!.!.!.!.!.!.!.!.!.!.!.!.!.!.!.!.!.!.!.!.!.!.!.!.!.!.!.!.!.!.!.!.!.!.!.!.!.!.",
"!.!.!.!.!.!.!.!.!.!.!.!.!.!.!.!.!.!.!.!.!.!.!.!.!.!.!.!.!.!.!.!.!.!.!.!.!.!.!.!.!.!.!.!.!.!.!.!.!.!.!.!.!.!.!.!.!.!.!.!.",
"!.!.!.!.!.!.!.!.!.!.!.!.!.!.!.!.!.!.!.!.!.!.!.!.!.!.!.!.!.!.!.!.!.!.!.!.!.!.!.!.!.!.!.!.!.!.!.!.!.!.!.!.!.!.!.!.!.!.!.!.",
"!.!.!.!.!.!.!.!.!.!.!.!.!.!.!.!.!.!.!.!.!.!.!.!.!.!.!.!.!.!.!.!.!.!.!.!.!.!.!.!.!.!.!.!.!.!.!.!.!.!.!.!.!.!.!.!.!.!.!.!.",
"!.!.!.!.!.!.!.!.!.!.!.!.!.!.!.!.!.!.!.!.!.!.!.!.!.!.!.!.!.!.!.!.!.!.!.!.!.!.!.!.!.!.!.!.!.!.!.!.!.!.!.!.!.!.!.!.!.!.!.!.",
"!.!.!.!.!.!.!.!.!.!.!.!.!.!.!.!.!.!.!.!.!.!.!.!.!.!.!.!.!.!.!.!.!.!.!.!.!.!.!.!.!.!.!.!.!.!.!.!.!.!.!.!.!.!.!.!.!.!.!.!.",
"!.!.!.!.!.!.!.!.!.!.!.!.!.!.!.!.!.!.!.!.!.!.!.!.!.!.!.!.!.!.!.!.!.!.!.!.!.!.!.!.!.!.!.!.!.!.!.!.!.!.!.!.!.!.!.!.!.!.!.!.",
"!.!.!.!.!.!.!.!.!.!.!.!.!.!.!.!.!.!.!.!.!.!.!.!.!.!.!.!.!.!.!.!.!.!.!.!.!.!.!.!.!.!.!.!.!.!.!.!.!.!.!.!.!.!.!.!.!.!.!.!.",
"!.!.!.!.!.!.!.!.!.!.!.d d d d d d d d d d !.!.!.!.!.!.!.!.!.!.!.!.!.!.!.!.!.!.!.!.!.!.!.!.!.!.!.!.!.!.!.!.!.!.!.!.!.!.!.",
"!.!.!.!.!.!.!.!.!.!.!.Z Z Z Z Z Z N n n b !.!.!.!.!.!.!.!.!.!.!.!.!.!.!.!.!.!.!.!.!.!.!.!.!.!.!.!.!.!.!.!.!.!.!.!.!.!.!.",
"!.!.!.!.!.!.d d d d d Q.Q.Q.Q.Q.Q.J.v.v.d.d !.!.d d d !.!.!.!.!.!.!.!.!.!.!.!.!.!.!.!.!.!.!.!.!.!.!.!.!.!.!.!.!.!.!.!.!.",
"!.!.!.!.f d I.C.d H.I.Q.T.D.Q.Q.q.s.v.v.d.d d d w.z.I.C d !.!.!.!.!.!.!.!.!.!.!.!.!.!.!.!.!.!.!.!.!.!.!.!.!.!.!.!.!.!.!.",
"!.!.!.!.d d Q.I.d E.Q.Q.U.v.Q.Q.~ 7.v.v.d.d d d v.D.Q.Z d !.!.!.!.!.!.!.!.!.!.!.!.!.!.!.!.!.!.!.!.!.!.!.!.!.!.!.!.!.!.!.",
"!.!.!.!.!.!.: A v.n d v.7.~ ~ ~ ~ ~ ~ ~ E d w.v.Q.I.d !.!.!.!.!.!.!.!.!.!.!.!.!.!.!.!.!.!.!.!.!.!.!.!.!.!.!.!.!.!.!.!.!.",
"!.!.!.!.!.!.: B 1.x d u.-.~ ~ ~ ~ ~ ~ ~ W c &.1.L.V.d !.!.!.!.!.!.!.!.!.!.!.!.!.!.!.!.!.!.!.!.!.!.!.!.!.!.!.!.!.!.!.!.!.",
"!.!.!.!.!.!.!.!.. p d ~ ~ ~ ~ ~ ~ ~ ~ ~ ~ ~ > . . $ d d d d d d d d d d d d d d d d d d d !.!.!.!.!.!.!.!.!.!.!.!.!.!.!.",
"!.!.!.!.!.!.!.!.!.d d 5.+.~ F.F.F.e.~ ~ ~ ~ > . P ..d.d.d.d.d.d.d.d.d.d.d.d.d.d.d.d.d.d.d.b d !.!.!.!.!.!.!.!.!.!.!.!.!.",
"!.!.!.!.!.!.!.!.!.d d 8.#.~ K.K.K.r.~ ~ ~ ~ > . ~ O.v.v.v.v.v.v.v.v.v.v.v.v.v.v.v.v.v.v.v.n d !.!.!.!.!.!.!.!.!.!.!.!.!.",
"!.!.!.!.!.!.!.!.d 2.8.~ ~ ~ . . K.K.K.~ ~ ~ c d ~ O.v.v.v.v.v.v.v.v.v.v.v.v.v.v.v.v.v.v.v.v.v.d d d d d !.!.!.!.!.!.!.!.",
"!.!.!.!.!.!.!.M ` 4.8.~ ~ ~ . . i.S.K.~ ~ ~ g 0 ~ O.v.x.v.v.v.c.v.v.c.v.v.j.v.v.v.l.v.k.v.a.p.$.Y d $.$.!.!.!.!.!.!.!.!.",
"!.!.!.!.!.!.d J 8.8.8.~ ~ ~ . . . i.K.~ ~ ~ w : ~ O.v.v.v.k.v.v.v.v.v.v.j.v.v.l.v.v.v.v.v.9.8.v.;.d v.v.d !.!.!.!.!.!.!.",
"!.!.!.!.: : 8.8.8.8.8.Q.G.~ K.K.~ ~ ~ ~ ~ ~ > . ~ } 8.g.v.v.v.v.v.v.v.v.v.v.v.v.v.v.8.8.8.8.8.8.X.d 8.8.d !.!.!.!.!.!.!.",
"!.!.!.!.: : 8.8.8.8.8.Q.G.~ K.K.~ ~ ~ ~ ~ ~ > . ~ } 8.g.v.v.v.N.v.v.v.v.v.v.v.v.v.v.8.8.8.8.8.8.X.d 8.8.d !.!.!.!.!.!.!.",
"!.!.!.!.: : Q.R.v.W.Q.. b.Q.~ ~ ~ ~ ~ ~ P . V ~ 8.8.8.8.8.v.v.v.v.v.h.v.v.f.g.8.8.8.8.8.8.8.8.8.X.d 8.8.d !.!.!.!.!.!.!.",
"!.!.!.!.!.!.m.B.U.n.b.Z.P.Q.~ ~ ~ ~ ~ ~ Q k  .#.8.8.8.8.8.y.y.y.y.y.y.y.y.y.t.8.8.8.8.8.8.8.8.o.U 5 o.o.d !.!.!.!.!.!.!.",
"!.!.!.!.!.!.: :.Q.u . Q.Q.Q.~ ~ ~ ~ ~ ~ ~ ~ ,.8.8.8.8.8.8.8.8.8.8.8.8.8.8.8.8.8.8.8.8.8.8.8.8.~ v : ~ ~ d !.!.!.!.!.!.!.",
"!.!.!.!.!.!.!.!.: : : : : : ~ ~ ~ ~ ~ ~ ~ ~ ~ ~ 8.8.8.8.8.8.8.8.8.8.8.8.8.8.8.8.8.8.8.8.8.) ~ ~ k . ~ ~ d !.!.!.!.!.!.!.",
"!.!.!.!.!.!.!.!.: : : : : : ~ ~ ~ ~ ~ ~ ~ R ( ) 8.8.8.8.8.8.8.8.8.8.8.8.8.8.8.8.8.8.8.6.5.) ~ ~ k . _ _ d !.!.!.!.!.!.!.",
"!.!.!.!.!.!.!.!.!.!.!.!.!.: ~ ~ ~ ~ ~ ~ R : %.8.8.8.8.8.8.8.8.8.8.8.8.8.8.8.8.8.8.8.8.,.~ ~ ~ G 1 . v.v.d !.!.!.!.!.!.!.",
"!.!.!.!.!.!.!.!.!.!.!.!.!.!.c c u.*.~ w j %.3.8.8.8.8.8.8.8.8.8.8.8.8.@.} } | 8.8.8.8.,.~ ~ ~ c 8 . R.R.w.{ d !.!.!.!.!.",
"!.!.!.!.!.!.!.!.!.!.!.!.!.!.d d v.=.~ : 9 8.8.8.8.8.8.8.8.8.8.8.8.8.8.o.~ ~ ) 8.8.8.8.,.~ ~ ~ d < . Q.Q.v.$.d !.!.!.!.!.",
"!.!.!.!.!.!.!.!.!.!.!.!.!.!.!.!.d ;.v.: 9 8.8.8.~ ~ ~ ~ ~ ~ ~ ~ ~ ~ ~ ~ ~ a s 8.8.8.L ~ ~ @ . .   !.d d Q.M.d !.!.!.!.!.",
"!.!.!.!.!.!.!.!.!.!.!.!.!.!.!.!.i 0.D.: 9 8.<.,.~ R F ! ~ ~ ~ ~ ~ ~ ~ ~ ~ 4 h 8.<.,.H I V + . O O !.7 7 Q.M.d !.!.!.!.!.",
"!.!.!.!.!.!.!.!.!.!.!.!.!.!.!.!.: A.Q.: 9 8.} ~ ~ F : R ~ ~ ~ ~ ~ ~ ~ ~ ~ . % 8.} ~ ~ V . . . : ; !.. . Q.M.d !.!.!.!.!.",
"!.!.!.!.!.!.!.!.!.!.!.!.!.!.!.!.: 3 u R R ) ^ ~ @ + X P ~ ~ ~ ~ ~ ~ ~ ~ ~ . % 8.} ~ ~ V . ' ] : ; !.!.!.u !.!.!.!.!.!.!.",
"!.!.!.!.!.!.!.!.!.!.!.!.!.!.!.!.: # . ~ ~ ~ ~ ~ . . . P ~ ~ ~ ~ ~ ~ ~ ~ ~ . % 8.} ~ ~ V . ] [ : ; !.!.!.. !.!.!.!.!.!.!.",
"!.!.!.!.!.!.!.!.!.!.!.!.!.!.!.!.. k ~ ~ ~ ~ > . : : : : : : 5 d d d d d d . @ ~ ~ ~ . S Q.>.[ : ; !.!.!.!.!.!.!.!.!.!.!.",
"!.!.!.!.!.!.!.!.!.!.!.!.!.!.!.!.# l ~ ~ Q k & . 5 , * ; ; ; 6 f f f f q 0 t y ~ ~ ~ . S Q.>.[ * * !.!.!.!.!.!.!.!.!.!.!.",
"!.!.!.!.!.!.!.!.!.!.!.!.!.!.!.!.: v ~ ~ P . . . d 7 . !.!.!.!.!.!.!.!.; : G ~ ~ ~ ~ . S Q.>.[ .   !.!.!.!.!.!.!.!.!.!.!.",
"!.!.!.!.!.!.!.!.!.!.!.!.!.!.. . ~ ~ ~ ~ P . 7 d d d d o . !.!.!.!.!.: v W W z ~ > . Q.Y.[ / ~ ~ k . !.!.!.!.!.!.!.!.!.!.",
"!.!.!.!.!.!.!.!.!.!.!.!.!.!.. . ~ ~ ~ ~ P . 7 d d d d o . !.!.!.!.!.: v W K ~ ~ > . Q.Y.[ / ~ ~ k . !.!.!.!.!.!.!.!.!.!.",
"!.!.!.!.!.!.!.!.!.!.!.!.!.!.. . ~ ~ ~ . X !.  . d d d o . !.!.!.!.!.: v T G P . D [ [ D . P ~ ~ k . !.!.!.!.!.!.!.!.!.!.",
"!.!.!.!.!.!.!.!.!.!.!.!.!.!.. . t t t !.!.!.!.!.- - - X . !.!.!.!.!.# = 2 t e . m !.!.!.!.r t t > . !.!.!.!.!.!.!.!.!.!.",
"!.!.!.!.!.!.!.!.!.!.!.!.!.!.. . . . . !.!.!.!.!.. . . . . !.!.!.!.!.. . . . . . !.!.!.!.!.X . . . . !.!.!.!.!.!.!.!.!.!.",
"!.!.!.!.!.!.!.!.!.!.!.!.!.!.!.!.!.!.!.!.!.!.!.!.!.!.!.!.!.!.!.!.!.!.!.!.!.!.!.!.!.!.!.!.!.!.!.!.!.!.!.!.!.!.!.!.!.!.!.!.",
"!.!.!.!.!.!.!.!.!.!.!.!.!.!.!.!.!.!.!.!.!.!.!.!.!.!.!.!.!.!.!.!.!.!.!.!.!.!.!.!.!.!.!.!.!.!.!.!.!.!.!.!.!.!.!.!.!.!.!.!.",
"!.!.!.!.!.!.!.!.!.!.!.!.!.!.!.!.!.!.!.!.!.!.!.!.!.!.!.!.!.!.!.!.!.!.!.!.!.!.!.!.!.!.!.!.!.!.!.!.!.!.!.!.!.!.!.!.!.!.!.!.",
"!.!.!.!.!.!.!.!.!.!.!.!.!.!.!.!.!.!.!.!.!.!.!.!.!.!.!.!.!.!.!.!.!.!.!.!.!.!.!.!.!.!.!.!.!.!.!.!.!.!.!.!.!.!.!.!.!.!.!.!.",
"!.!.!.!.!.!.!.!.!.!.!.!.!.!.!.!.!.!.!.!.!.!.!.!.!.!.!.!.!.!.!.!.!.!.!.!.!.!.!.!.!.!.!.!.!.!.!.!.!.!.!.!.!.!.!.!.!.!.!.!.",
"!.!.!.!.!.!.!.!.!.!.!.!.!.!.!.!.!.!.!.!.!.!.!.!.!.!.!.!.!.!.!.!.!.!.!.!.!.!.!.!.!.!.!.!.!.!.!.!.!.!.!.!.!.!.!.!.!.!.!.!.",
"!.!.!.!.!.!.!.!.!.!.!.!.!.!.!.!.!.!.!.!.!.!.!.!.!.!.!.!.!.!.!.!.!.!.!.!.!.!.!.!.!.!.!.!.!.!.!.!.!.!.!.!.!.!.!.!.!.!.!.!.",
"!.!.!.!.!.!.!.!.!.!.!.!.!.!.!.!.!.!.!.!.!.!.!.!.!.!.!.!.!.!.!.!.!.!.!.!.!.!.!.!.!.!.!.!.!.!.!.!.!.!.!.!.!.!.!.!.!.!.!.!.",
"!.!.!.!.!.!.!.!.!.!.!.!.!.!.!.!.!.!.!.!.!.!.!.!.!.!.!.!.!.!.!.!.!.!.!.!.!.!.!.!.!.!.!.!.!.!.!.!.!.!.!.!.!.!.!.!.!.!.!.!.",
"!.!.!.!.!.!.!.!.!.!.!.!.!.!.!.!.!.!.!.!.!.!.!.!.!.!.!.!.!.!.!.!.!.!.!.!.!.!.!.!.!.!.!.!.!.!.!.!.!.!.!.!.!.!.!.!.!.!.!.!.",
"!.!.!.!.!.!.!.!.!.!.!.!.!.!.!.!.!.!.!.!.!.!.!.!.!.!.!.!.!.!.!.!.!.!.!.!.!.!.!.!.!.!.!.!.!.!.!.!.!.!.!.!.!.!.!.!.!.!.!.!."
};
