/* XPM */
static char *result[] = {
/* columns rows colors chars-per-pixel */
"60 60 149 2 ",
"   c #110000",
".  c #120000",
"X  c #130000",
"o  c #150000",
"O  c #170200",
"+  c #190000",
"@  c #1B0000",
"#  c #1C0000",
"$  c #1B0503",
"%  c #200000",
"&  c #220000",
"*  c #230000",
"=  c #240000",
"-  c #260000",
";  c #2B0100",
":  c #210907",
">  c #200A06",
",  c #2C0A00",
"<  c #2F0A06",
"1  c #2F0D0A",
"2  c #320300",
"3  c #340100",
"4  c #3C0300",
"5  c #3B0700",
"6  c #380603",
"7  c #3E0400",
"8  c #360A00",
"9  c #350D00",
"0  c #370F00",
"q  c #3F0B06",
"w  c #310E0B",
"e  c #341A0F",
"r  c #3C1E13",
"t  c #400B00",
"y  c #410F0A",
"u  c #400F0B",
"i  c #5E0700",
"p  c #411300",
"a  c #4A1600",
"s  c #4D1700",
"d  c #4E1801",
"f  c #43120D",
"g  c #45130E",
"h  c #4F1908",
"j  c #511900",
"k  c #551E05",
"l  c #5B170E",
"z  c #481E13",
"x  c #551F13",
"c  c #5A2106",
"v  c #5B250B",
"b  c #5D280D",
"n  c #482917",
"m  c #4E291A",
"M  c #522218",
"N  c #522618",
"B  c #552E1D",
"V  c #60270B",
"C  c #622C1C",
"Z  c #6B3113",
"A  c #572D23",
"S  c #5A2920",
"D  c #5A2A21",
"F  c #583320",
"G  c #5C3521",
"H  c #603320",
"J  c #623320",
"K  c #663521",
"L  c #613426",
"P  c #6C3320",
"I  c #603823",
"U  c #643E23",
"Y  c #643629",
"T  c #673929",
"R  c #7C4120",
"E  c #70442B",
"W  c #73462C",
"Q  c #7A462C",
"!  c #604537",
"~  c #78563D",
"^  c #7F5E45",
"/  c #833123",
"(  c #81472C",
")  c #84492E",
"_  c #8D512C",
"`  c #815230",
"'  c #845437",
"]  c #8F5B39",
"[  c #985B34",
"{  c #905B39",
"}  c #935B39",
"|  c #985B39",
" . c #9C643F",
".. c #805740",
"X. c #895F45",
"o. c #906540",
"O. c #956647",
"+. c #9A6D45",
"@. c #986D47",
"#. c #98694A",
"$. c #996B4D",
"%. c #A16741",
"&. c #AB6F46",
"*. c #AE6F46",
"=. c #AF7046",
"-. c #B07146",
";. c #B17147",
":. c #B9794C",
">. c #BA7B4F",
",. c #BA7C4F",
"<. c #B76C53",
"1. c #BB7D51",
"2. c #A98259",
"3. c #AF885E",
"4. c #BE845A",
"5. c #AD8363",
"6. c #AA8460",
"7. c #B08666",
"8. c #B58764",
"9. c #BC916E",
"0. c #BA9171",
"q. c #BF9776",
"w. c #BD9879",
"e. c #BE9879",
"r. c #BF9879",
"t. c #C08A61",
"y. c #C18C63",
"u. c #C4936D",
"i. c #C79B76",
"p. c #C3A173",
"a. c #C8A07E",
"s. c #CAA17E",
"d. c #CAA27F",
"f. c #CEAB7D",
"g. c #CCA684",
"h. c #D0AB87",
"j. c #D9B58C",
"k. c #DBBA8B",
"l. c #DCB98E",
"z. c #DDBD90",
"x. c #E4BC88",
"c. c #E1BF92",
"v. c #EDC88F",
"b. c #EAC997",
"n. c #E9CE99",
"m. c #F1D197",
"M. c #F2D39D",
"N. c #FFE2A5",
"B. c None",
/* pixels */
"B.B.B.B.B.B.B.B.B.B.B.B.B.B.B.B.B.B.B.B.B.B.B.B.B.B.B.B.B.B.B.B.B.B.B.B.B.B.B.B.B.B.B.B.B.B.B.B.B.B.B.B.B.B.B.B.B.B.B.B.",
"B.B.B.B.B.B.B.B.B.B.B.B.B.B.B.B.B.B.B.B.B.B.B.B.B.B.B.B.B.B.B.B.B.B.B.B.B.B.B.B.B.B.B.B.B.B.B.B.B.B.B.B.B.B.B.B.B.B.B.B.",
"B.B.B.B.B.B.B.B.B.B.B.B.B.B.B.B.B.B.B.B.B.B.B.B.B.B.B.B.B.B.B.B.B.B.B.B.B.B.B.B.B.B.B.B.B.B.B.B.B.B.B.B.B.B.B.B.B.B.B.B.",
"B.B.B.B.B.B.B.B.B.B.B.B.B.B.B.B.B.B.B.B.B.B.B.B.B.B.B.B.B.B.B.B.B.B.B.B.B.B.B.B.B.B.B.B.B.B.B.B.B.B.B.B.B.B.B.B.B.B.B.B.",
"B.B.B.B.B.B.B.B.B.B.B.B.B.B.B.B.B.B.B.B.B.B.B.B.B.B.B.B.B.B.B.B.B.B.B.B.B.B.B.B.B.B.B.B.B.B.B.B.B.B.B.B.B.B.B.B.B.B.B.B.",
"B.B.B.B.B.B.B.B.B.B.B.B.B.B.B.B.B.B.B.B.B.B.B.B.B.B.B.B.B.B.B.B.B.B.B.B.B.B.B.B.B.B.B.B.B.B.B.B.B.B.B.B.B.B.B.B.B.B.B.B.",
"B.B.B.B.B.B.B.B.B.B.B.B.B.B.B.B.B.B.B.B.B.B.B.B.B.B.B.B.B.B.B.B.B.B.B.B.B.B.B.B.B.B.B.B.B.B.B.B.B.B.B.B.B.B.B.B.B.B.B.B.",
"B.B.B.B.B.B.B.B.B.B.B.B.B.B.B.B.B.B.B.B.B.B.B.B.B.B.B.B.B.B.B.B.B.B.B.B.B.B.B.B.B.B.B.B.B.B.B.B.B.B.B.B.B.B.B.B.B.B.B.B.",
"B.B.B.B.B.B.B.B.B.B.B.B.B.B.B.B.B.B.B.B.B.B.B.B.B.B.B.B.B.B.B.B.B.B.B.B.B.B.B.B.B.B.B.B.B.B.B.B.B.B.B.B.B.B.B.B.B.B.B.B.",
"B.B.B.B.B.B.B.B.B.B.B.B.B.B.B.B.B.B.B.B.B.B.B.B.B.B.B.B.B.B.B.B.B.B.B.B.B.B.B.B.B.B.B.B.B.B.B.B.B.B.B.B.B.B.B.B.B.B.B.B.",
"B.B.B.B.B.B.B.B.B.B.B.B.B.B.B.B.B.B.B.B.B.B.B.B.B.B.B.B.B.B.B.B.B.B.B.B.B.B.B.B.B.B.B.B.B.B.B.B.B.B.B.B.B.B.B.B.B.B.B.B.",
"B.B.B.B.B.B.B.B.B.B.B.B.B.B.B.B.B.B.B.B.B.B.B.B.B.B.B.B.B.B.B.B.B.B.B.B.B.B.B.B.B.B.B.B.B.B.B.B.B.B.B.B.B.B.B.B.B.B.B.B.",
"B.B.B.B.B.B.B.B.B.B.B.B.B.B.B.B.B.B.B.B.B.B.B.B.B.B.B.B.B.B.B.B.B.B.B.B.B.B.B.B.B.B.B.B.B.B.B.B.B.B.B.B.B.B.B.B.B.B.B.B.",
"B.B.B.B.B.B.B.B.B.B.B.B.B.B.B.B.B.B.B.B.B.B.B.B.B.B.B.B.B.B.B.B.B.B.B.B.B.B.B.3 B.B.B.B.3 B.B.B.B.B.B.B.B.B.B.B.B.B.B.B.",
"B.B.B.B.B.B.B.B.B.B.B.B.B.B.B.B.B.B.B.B.B.B.B.B.B.B.B.B.B.B.B.B.B.B.B.B.B.B.B.g B.B.B.B.g B.B.B.B.B.B.B.B.B.B.B.B.B.B.B.",
"B.B.B.B.B.B.B.B.B.B.B.B.B.B.B.B.B.B.B.B.B.B.B.B.B.B.B.B.B.B.B.B.B.B.B.B.B.3 g N.T 3 3 T N.g 3 B.B.B.B.B.B.B.B.B.B.B.B.B.",
"B.B.B.B.B.B.B.B.B.B.B.B.B.B.B.B.B.B.B.B.B.B.B.B.B.B.B.B.B.B.B.B.3 3 3 B.B.3 g N.T 3 3 y T 6 3 B.B.B.3 3 3 B.B.B.B.B.B.B.",
"B.B.B.B.B.B.B.B.B.B.B.B.B.B.B.B.B.B.B.B.B.B.B.B.B.B.B.B.B.B.B.B.3 3 3 B.B.3 g N.T 3 3 3 3 3 3 B.B.B.3 3 3 B.B.B.B.B.B.B.",
"B.B.B.B.B.B.B.B.B.B.B.B.B.B.B.B.B.B.B.B.B.B.B.B.B.B.B.B.B.B.B.3 :.:.j t 3 3 q :.v.N.N.N.N.N.N.3 3 3 j j :.P 3 B.B.B.B.B.",
"B.B.B.B.B.B.B.B.B.B.B.B.B.B.B.B.B.B.B.B.B.B.B.B.B.B.B.B.B.B.B.3 | | Z h 5 3 q :.x.M.N.N.N.N.N.T M 3 j j } C 3 B.B.B.B.B.",
"B.B.B.B.B.B.B.B.B.B.B.B.B.B.B.B.B.B.B.B.B.B.B.B.B.B.B.B.B.B.B.B.3 3 :.R j 3 q :.i.g.N.N.N.N.N.N.6.3 j j * B.B.B.B.B.B.B.",
"B.B.B.B.B.B.B.B.B.B.B.B.B.B.3 3 3 3 3 3 3 3 3 3 3 3 3 3 3 3 3 3 3 3 > $ O *.=.:.,.1.h.l.N.N.N.N.6.3 O O B.B.B.B.B.B.B.B.",
"B.B.B.B.B.B.B.B.B.B.B.B.B.B.3 3 3 3 3 3 3 3 3 3 3 3 3 3 3 3 3 3 3 3 . . . :.:.:.:.:.g.j.N.N.N.N.6.3 . . B.B.B.B.B.B.B.B.",
"B.B.B.B.B.B.B.B.B.B.B.B.B.3 n.n.n.n.n.n.n.n.n.n.j j j j j j j j j j :.F . :.:.:.:.:.j j j m.N.N.6.3 B.B.B.B.B.B.B.B.B.B.",
"B.B.B.B.B.B.B.B.B.B.B.B.Y ..n.n.n.n.n.n.n.n.n.n.o.` j j j j j j j j :.H % :.:.:.[ _ j a 0 k.b.N.f.X.B.B.B.B.B.B.B.B.B.B.",
"B.B.B.B.B.B.B.B.3 3 3 3 ..n.n.n.n.n.n.n.n.n.n.n.n.p.j j j j j j j j :.P 3 :.:.:.Z j j p . w.g.N.N.N.3 3 B.B.B.B.B.B.B.B.",
"B.B.B.B.B.B.3 L n.f 3 n.z.g.n.n.n.n.n.j b n.n.n.n.n.n.b j j j j j j :.J * :.-.j j j . . . w.g.g.c.N.N.N.3 B.B.B.B.B.B.B.",
"B.B.B.B.B.B.3 L n.f 3 n.z.g.n.n.n.n.n.j b n.n.n.n.n.n.b j j j j j j :.J * :.-.j j j . . . w.g.g.c.N.N.N.3 B.B.B.B.B.B.B.",
"B.B.B.B.B.B.3 D g.u 3 g.g.g.g.g.j j j n.n.n.n.n.n.n.n.b j j j j g.g.:.F . :.-.j j j j j j j j g.c.N.N.N.N.^ * B.B.B.B.B.",
"B.B.B.B.B.B.3 D g.u 3 g.g.g.' ' j j j o.@.n.n.n.n.n.n.3.2.$.$.$.' ' u.O.W F G _ V j j j j j j ! ~ +.N.N.+.B * B.B.B.B.B.",
"B.B.B.B.B.B.3 D g.u 3 g.g.g.j j j j j j b n.n.n.n.n.n.n.n.g.g.g.j j g.y.:.. > :.Z j j j j j j . , j N.N.j 8 * B.B.B.B.B.",
"B.B.B.B.B.B.3 D g.w * :.y.g.g.g.j j j j v g.g.g.g.g.g.g.g.g.$.j j j j $.g.:.:.:.:.:.j j j j j j 0 . j j * B.B.B.B.B.B.B.",
"B.B.B.B.B.B.3 S d.1 & :.t.d.g.g.v k j j v g.g.g.g.g.g.g.g.g.$.j j j j #.d.:.:.:.:.:.c c c d s s 9 X s s * B.B.B.B.B.B.B.",
"B.B.B.B.B.B.3 x :.> . :.:.:.g.g.g.' j j v g.g.g.g.g.g.g.g.g.$.j j j j _ :.:.:.:.:.:.:.:.:.< * * * * * * B.B.B.B.B.B.B.B.",
"B.B.B.B.B.B.3 x :.> . :.:.:.4.4.g.0.5.5.7.g.g.g.g.g.g.g.g.g.q.5.j j 5.9.i.z N :.:.:.:.:.:.< * B.B.B.B.B.B.B.B.B.B.B.B.B.",
"B.B.B.B.B.B.3 x :.> . :.:.:.:.:.g.g.g.g.g.g.g.g.g.g.g.g.g.g.g.g.j j g.g.g.* < :.:.:.:.:.:.< * B.B.B.B.B.B.B.B.B.B.B.B.B.",
"B.B.B.B.3 3 :.:.:.> . :.:.:.:.:.g.g.g.g.d.:.:.:.g.g.g.g.g.g.g.g.g.g.g.g.g.g.e.* } :.:.| 3 B.B.B.B.B.B.B.B.B.B.B.B.B.B.B.",
"B.B.B.B.3 3 :.;.| :   ] ] ] :.:.i.s.g.g.a.| ;.:.i.i.i.i.i.i.i.i.i.i.i.s.g.g.e.* } :.| ) 3 B.B.B.B.B.B.B.B.B.B.B.B.B.B.B.",
"B.B.B.B.3 3 :.| 3 B.B.. . . :.:.:.u.g.g.r.- | :.:.:.:.:.:.:.:.:.:.:.:.u.g.g.e.* } :.3 3 B.B.B.B.B.B.B.B.B.B.B.B.B.B.B.B.",
"B.B.B.B.3 3 :.{ o B.B.& @ . > > :.>.1.g.w.o { :.:.:.:.:.:.:.:.:.< < :.>.1.g.e.* } :.= = B.B.B.B.B.B.B.B.B.B.B.B.B.B.B.B.",
"B.B.B.B.3 3 :.] . B.B.* # . . . :.:.:.g.w.. ] :.:.:.:.:.:.:.:.:.* * :.:.:.g.e.* } :.* * B.B.B.B.B.B.B.B.B.B.B.B.B.B.B.B.",
"B.B.B.B.B.B..   B.B.B.* 4 i . . :.:.:.g.w.. ] :.:.:.:.:.:.:.:.:.. . . W :.:.:.:.r . * * B.B.B.B.B.B.B.B.B.B.B.B.B.B.B.B.",
"B.B.B.B.B.B.  B.B.B.B.* 4 i A A W  .:.u.8.. K ( ( ( ( ( ( Q Q Q + + + m W :.:.:.E F # # B.B.B.B.B.B.B.B.B.B.B.B.B.B.B.B.",
"B.B.B.B.B.B.B.B.B.B.B.* 4 i <.<.. W :.:.&.. ; 3 3 3 3 3 3 * * * * * * + . :.:.:.:.:..   B.B.B.B.B.B.B.B.B.B.B.B.B.B.B.B.",
"B.B.B.B.B.B.B.B.B.B.B.. 2 i <.<.. W :.:.:.:.z * B.B.B.B.B.B.B.B.. . U e . . > :.:.:.* * B.B.B.B.B.B.B.B.B.B.B.B.B.B.B.B.",
"B.B.B.B.B.B.B.B.B.B.B.. 2 i <.<.. W :.:.:.:.z * B.B.B.B.B.B.B.B.. . U e . . > :.:.:.* * B.B.B.B.B.B.B.B.B.B.B.B.B.B.B.B.",
"B.B.B.B.B.B.B.B.B.X . U U U i i <.A . :.:.:.:.:.* * B.B.B.B.B.. U U U U U . > :.:.:.:.] . B.B.B.B.B.B.B.B.B.B.B.B.B.B.B.",
"B.B.B.B.B.B.B.B.B.X . U U U 2 2 / l 7 F I :.:.:.* * B.B.B.B.B.. U U U n e B.B.F %.:.:.] . B.B.B.B.B.B.B.B.B.B.B.B.B.B.B.",
"B.B.B.B.B.B.B.B.B.X . U U U . . i i i . > :.:.:.* * B.B.B.B.B.. U U U e . B.B.. ] :.:.] . B.B.B.B.B.B.B.B.B.B.B.B.B.B.B.",
"B.B.B.B.B.B.B.B.B.X . . . . B.B.B.B.B.. . . . . .   B.B.B.B.B.. . . . B.B.B.B.B.  . . . . B.B.B.B.B.B.B.B.B.B.B.B.B.B.B.",
"B.B.B.B.B.B.B.B.B.. X X X X B.B.B.B.B.X X X X X X   B.B.B.B.B.X X X X B.B.B.B.B.  X X X X B.B.B.B.B.B.B.B.B.B.B.B.B.B.B.",
"B.B.B.B.B.B.B.B.B.B.B.B.B.B.B.B.B.B.B.B.B.B.B.B.B.B.B.B.B.B.B.B.B.B.B.B.B.B.B.B.B.B.B.B.B.B.B.B.B.B.B.B.B.B.B.B.B.B.B.B.",
"B.B.B.B.B.B.B.B.B.B.B.B.B.B.B.B.B.B.B.B.B.B.B.B.B.B.B.B.B.B.B.B.B.B.B.B.B.B.B.B.B.B.B.B.B.B.B.B.B.B.B.B.B.B.B.B.B.B.B.B.",
"B.B.B.B.B.B.B.B.B.B.B.B.B.B.B.B.B.B.B.B.B.B.B.B.B.B.B.B.B.B.B.B.B.B.B.B.B.B.B.B.B.B.B.B.B.B.B.B.B.B.B.B.B.B.B.B.B.B.B.B.",
"B.B.B.B.B.B.B.B.B.B.B.B.B.B.B.B.B.B.B.B.B.B.B.B.B.B.B.B.B.B.B.B.B.B.B.B.B.B.B.B.B.B.B.B.B.B.B.B.B.B.B.B.B.B.B.B.B.B.B.B.",
"B.B.B.B.B.B.B.B.B.B.B.B.B.B.B.B.B.B.B.B.B.B.B.B.B.B.B.B.B.B.B.B.B.B.B.B.B.B.B.B.B.B.B.B.B.B.B.B.B.B.B.B.B.B.B.B.B.B.B.B.",
"B.B.B.B.B.B.B.B.B.B.B.B.B.B.B.B.B.B.B.B.B.B.B.B.B.B.B.B.B.B.B.B.B.B.B.B.B.B.B.B.B.B.B.B.B.B.B.B.B.B.B.B.B.B.B.B.B.B.B.B.",
"B.B.B.B.B.B.B.B.B.B.B.B.B.B.B.B.B.B.B.B.B.B.B.B.B.B.B.B.B.B.B.B.B.B.B.B.B.B.B.B.B.B.B.B.B.B.B.B.B.B.B.B.B.B.B.B.B.B.B.B.",
"B.B.B.B.B.B.B.B.B.B.B.B.B.B.B.B.B.B.B.B.B.B.B.B.B.B.B.B.B.B.B.B.B.B.B.B.B.B.B.B.B.B.B.B.B.B.B.B.B.B.B.B.B.B.B.B.B.B.B.B.",
"B.B.B.B.B.B.B.B.B.B.B.B.B.B.B.B.B.B.B.B.B.B.B.B.B.B.B.B.B.B.B.B.B.B.B.B.B.B.B.B.B.B.B.B.B.B.B.B.B.B.B.B.B.B.B.B.B.B.B.B."
};
