/* XPM */
static char *result[] = {
/* columns rows colors chars-per-pixel */
"60 60 195 2 ",
"   c #170200",
".  c #1A0401",
"X  c #1F0904",
"o  c #250300",
"O  c #290400",
"+  c #230C06",
"@  c #2B0B02",
"#  c #340400",
"$  c #380701",
"%  c #320D03",
"&  c #3B0B01",
"*  c #350F08",
"=  c #271009",
"-  c #2A110A",
";  c #341202",
":  c #3A1300",
">  c #32140B",
",  c #3C140B",
"<  c #35190E",
"1  c #3B1D12",
"2  c #371C11",
"3  c #410900",
"4  c #5B0F00",
"5  c #421104",
"6  c #491600",
"7  c #471800",
"8  c #4D1B00",
"9  c #441308",
"0  c #421B0F",
"q  c #491A0F",
"w  c #491308",
"e  c #5F1101",
"r  c #511E00",
"t  c #4B1D12",
"y  c #451B10",
"u  c #531E10",
"i  c #611302",
"p  c #621C0A",
"a  c #542203",
"s  c #592606",
"d  c #5D2B0B",
"f  c #58260C",
"g  c #452416",
"h  c #452718",
"j  c #4C2B1C",
"k  c #4B2617",
"l  c #512416",
"z  c #5E2515",
"x  c #532618",
"c  c #562C1C",
"v  c #5A2B1B",
"b  c #53321F",
"n  c #5A311E",
"m  c #5F3415",
"M  c #66310F",
"N  c #642F10",
"B  c #612D1D",
"V  c #742614",
"C  c #633112",
"Z  c #693311",
"A  c #67301C",
"S  c #683718",
"D  c #693818",
"F  c #6F3916",
"G  c #703917",
"H  c #763E1B",
"J  c #512E21",
"K  c #5D3222",
"L  c #5E3A24",
"P  c #613425",
"I  c #683722",
"U  c #623C25",
"Y  c #6D3A23",
"T  c #663A28",
"R  c #6B3D29",
"E  c #723A23",
"W  c #79411E",
"Q  c #644028",
"!  c #6D422B",
"~  c #754625",
"^  c #74432A",
"/  c #7D442A",
"(  c #76482C",
")  c #7B4B2C",
"_  c #7D4420",
"`  c #7D512C",
"'  c #6E4131",
"]  c #684A38",
"[  c #714630",
"{  c #744B35",
"}  c #7D4D31",
"|  c #853A26",
" . c #824924",
".. c #834B2D",
"X. c #894F29",
"o. c #8A502A",
"O. c #844D31",
"+. c #8A4D35",
"@. c #954B35",
"#. c #835432",
"$. c #8C5435",
"%. c #81573C",
"&. c #8A5D3D",
"*. c #82583E",
"=. c #9A5E37",
"-. c #955D3B",
";. c #8A6039",
":. c #94603E",
">. c #9C613D",
",. c #A2653C",
"<. c #965744",
"1. c #A75B44",
"2. c #8B6245",
"3. c #876248",
"4. c #8C6548",
"5. c #876547",
"6. c #936747",
"7. c #946945",
"8. c #93674A",
"9. c #9A6E4D",
"0. c #9A6745",
"q. c #9B704F",
"w. c #936D55",
"e. c #9D7251",
"r. c #96765D",
"t. c #9B765D",
"y. c #A16642",
"u. c #A56943",
"i. c #AB6D46",
"p. c #A56E4A",
"a. c #AE7047",
"s. c #AE7148",
"d. c #A57C4E",
"f. c #B07147",
"g. c #B5754B",
"h. c #B8774C",
"j. c #B9794E",
"k. c #B6784E",
"l. c #B46A53",
"z. c #A17A50",
"x. c #A47D59",
"c. c #A07658",
"v. c #B27750",
"b. c #BC7D52",
"n. c #AF8B5F",
"m. c #BD8156",
"M. c #BD835A",
"N. c #AD8463",
"B. c #BF8760",
"V. c #B68C6B",
"C. c #B78C66",
"Z. c #B8976F",
"A. c #B59266",
"S. c #BC9473",
"D. c #B99870",
"F. c #BF9979",
"G. c #C18C64",
"H. c #C38F69",
"J. c #C3936D",
"K. c #C59570",
"L. c #C79A75",
"P. c #C29C7B",
"I. c #C89D7A",
"U. c #C89A75",
"Y. c #C4A475",
"T. c #C7A178",
"R. c #CAA27E",
"E. c #CEAD7D",
"W. c #D1AE79",
"Q. c #D5AD7A",
"!. c #CFB07F",
"~. c #DBB07D",
"^. c #CBA583",
"/. c #CEA986",
"(. c #D0AB86",
"). c #D2AE88",
"_. c #D6B18A",
"`. c #DCBD8B",
"'. c #D6B487",
"]. c #DDBD90",
"[. c #DDC18F",
"{. c #DEC290",
"}. c #E4C28A",
"|. c #E2C493",
" X c #E6CA97",
".X c #EBCB94",
"XX c #E9CD98",
"oX c #ECD29C",
"OX c #F7D89C",
"+X c #F5D49C",
"@X c #FBDCA1",
"#X c #FFE3A5",
"$X c #FFE7A8",
"%X c #FFE8A9",
"&X c None",
/* pixels */
"&X&X&X&X&X&X&X&X&X&X&X&X&X&X&X&X&X&X&X&X&X&X&X&X&X&X&X&X&X&X&X&X&X&X&X&X&X&X&X&X&X&X&X&X&X&X&X&X&X&X&X&X&X&X&X&X&X&X&X&X",
"&X&X&X&X&X&X&X&X&X&X&X&X&X&X&X&X&X&X&X&X&X&X&X&X&X&X&X&X&X&X&X&X&X&X&X&X&X&X&X&X&X&X&X&X&X&X&X&X&X&X&X&X&X&X&X&X&X&X&X&X",
"&X&X&X&X&X&X&X&X&X&X&X&X&X&X&X&X&X&X&X&X&X&X&X&X&X&X&X&X&X&X&X&X&X&X&X&X&X&X&X&X&X&X&X&X&X&X&X&X&X&X&X&X&X&X&X&X&X&X&X&X",
"&X&X&X&X&X&X&X&X&X&X&X&X&X&X&X&X&X&X&X&X&X&X&X&X&X&X&X&X&X&X&X&X&X&X&X&X&X&X&X&X&X&X&X&X&X&X&X&X&X&X&X&X&X&X&X&X&X&X&X&X",
"&X&X&X&X&X&X&X&X&X&X&X&X&X&X&X&X&X&X&X&X&X&X&X&X&X&X&X&X&X&X&X&X&X&X&X&X&X&X&X&X&X&X&X&X&X&X&X&X&X&X&X&X&X&X&X&X&X&X&X&X",
"&X&X&X&X&X&X&X&X&X&X&X&X&X&X&X&X&X&X&X&X&X&X&X&X&X&X&X&X&X&X&X&X&X&X&X&X&X&X&X&X&X&X&X&X&X&X&X&X&X&X&X&X&X&X&X&X&X&X&X&X",
"&X&X&X&X&X&X&X&X&X&X&X&X&X&X&X&X&X&X&X&X&X&X&X&X&X&X&X&X&X&X&X&X&X&X&X&X&X&X&X&X&X&X&X&X&X&X&X&X&X&X&X&X&X&X&X&X&X&X&X&X",
"&X&X&X&X&X&X&X&X&X&X&X&X&X&X&X&X&X&X&X&X&X&X&X&X&X&X&X&X&X&X&X&X&X&X&X&X&X&X&X&X&X&X&X&X&X&X&X&X&X&X&X&X&X&X&X&X&X&X&X&X",
"&X&X&X&X&X&X&X&X&X&X&X&X&X&X&X&X&X&X&X&X&X&X&X&X&X&X&X&X&X&X&X&X&X&X&X&X&X&X&X&X&X&X&X&X&X&X&X&X&X&X&X&X&X&X&X&X&X&X&X&X",
"&X&X&X&X&X&X&X&X&X&X&X&X&X&X&X&X&X&X&X&X&X&X&X&X&X&X&X&X&X&X&X&X&X&X&X&X&X&X&X&X&X&X&X&X&X&X&X&X&X&X&X&X&X&X&X&X&X&X&X&X",
"&X&X&X&X&X&X&X&X&X&X&X&X&X&X&X&X&X&X&X&X&X&X&X&X&X&X&X&X&X&X&X&X&X&X&X&X&X&X&X&X&X&X&X&X&X&X&X&X&X&X&X&X&X&X&X&X&X&X&X&X",
"&X&X&X&X&X&X&X&X&X&X&X&X&X&X&X&X&X&X&X&X&X&X&X&X&X&X&X&X&X&X&X&X&X&X&X&X&X&X&X&X&X&X&X&X&X&X&X&X&X&X&X&X&X&X&X&X&X&X&X&X",
"&X&X&X&X&X&X&X&X&X&X&X&X&X&X&X&X&X&X&X&X&X&X&X&X&X&X&X&X&X&X&X&X&X&X&X&X&X&X&X&X&X&X&X&X&X&X&X&X&X&X&X&X&X&X&X&X&X&X&X&X",
"&X&X&X&X&X&X&X&X&X&X&X&X&X&X&X# &X&X&X&X# &X&X&X&X&X&X&X&X&X&X&X&X&X&X&X&X&X&X&X&X&X&X&X&X&X&X&X&X&X&X&X&X&X&X&X&X&X&X&X",
"&X&X&X&X&X&X&X&X&X&X&X&X&X&Xv [ K &X&XK [ v &X&X&X&X&X&X&X&X&X&X&X&X&X&X&X&X&X&X&X&X&X&X&X&X&X&X&X&X&X&X&X&X&X&X&X&X&X&X",
"&X&X&X&X&X&X&X&X&X&X&X&X&X# [ #X%.# # %.#X[ # &X&X&X&X&X&X&X&X&X&X&X&X&X&X&X&X&X&X&X&X&X&X&X&X&X&X&X&X&X&X&X&X&X&X&X&X&X",
"&X&X&X&X&X&X&X$ $ &X&X&X&X$ q %.l # # %.#X[ # &X&X$ $ &X&X&X&X&X&X&X&X&X&X&X&X&X&X&X&X&X&X&X&X&X&X&X&X&X&X&X&X&X&X&X&X&X",
"&X&X&X&X&X&X5 9 & $ &X&X&Xt t q t t q 2.OX^ # &X$ $ 9 3 &X&X&X&X&X&X&X&X&X&X&X&X&X&X&X&X&X&X&X&X&X&X&X&X&X&X&X&X&X&X&X&X",
"&X&X&X&X&X$ E i.N 6 $ # & W..X.X.X.X.X~.m.v $ $ 5 r =.-.& &X&X&X&X&X&X&X&X&X&X&X&X&X&X&X&X&X&X&X&X&X&X&X&X&X&X&X&X&X&X&X",
"&X&X&X&X&X# B O.d 7 $ P 2.XX#X$X#X@XoX~.g.z $ 3 f W ../ & &X&X&X&X&X&X&X&X&X&X&X&X&X&X&X&X&X&X&X&X&X&X&X&X&X&X&X&X&X&X&X",
"&X&X&X&X&X&X&XO 8 8 # x.$X#X#X@X@X@X(.J.j.z $ 8  .k.u # &X&X&X&X&X&X&X&X&X&X&X&X&X&X&X&X&X&X&X&X&X&X&X&X&X&X&X&X&X&X&X&X",
"&X&X&X&X&X&X&X&X@ @ # x.$X@X#X#X.X_.G.b.j.0...@ > h & $ $ $ $ $ $ $ $ $ $ $ $ % # # # # # # &X&X&X&X&X&X&X&X&X&X&X&X&X&X",
"&X&X&X&X&X&X&X&X  . # x.$X#XOX}.T.V.b.h.h.j.y.+ + > & $ & $ $ & $ $ & : l l j k x x x x x l &X&X&X&X&X&X&X&X&X&X&X&X&X&X",
"&X&X&X&X&X&X&X&X&X&X# c.$X#XW.d d N a.j.j.j.y.X K s.N r r 8 r r r r 8 d /.[.[.[.[.[.[.[.|.Z.$ &X&X&X&X&X&X&X&X&X&X&X&X&X",
"&X&X&X&X&X&X&X&X&Xv 6.E.#XXXA.; 6 s  .=.j.j.y.@ I j.Z a a r r a a a ` N.[. XXXXXoX XXXoXoX'.3.! &X&X&X&X&X&X&X&X&X&X&X&X",
"&X&X&X&X&X&X&X&X$ T @X$X@X_.r.  : r r H h.h.y.& E j.Z 8 r r r r a a n.oXXX XoXoX XXXXXXX XoXoX3.$ $ $ $ &X&X&X&X&X&X&X&X",
"&X&X&X&X&X&X&X$ C.`.#X X).).t.  o @ 8 s Z ,.u.% I j.M r a r r 8 W Y.[.XX XXXXX:.#. XoXoXXX X).^.D.y K T.{ # &X&X&X&X&X&X",
"&X&X&X&X&X&Xv T `.$X#X|.^.V.3.@ + @ r r r =.y.@ I j.) D r r r r ` XXXXXXXXXXXX;.` D.Y.Y.`.`.^.`.].l R  X{ # &X&X&X&X&X&X",
"&X&X&X&X&Xo 4.$X@X#X$X|.I.D r r r 8 a 8 a >.y.. P b.I.N.a r r 6 ` XXXXXX XXXXXXX!.d s s V.(.^.^.^.t K /.R # &X&X&X&X&X&X",
"&X&X&X&X&Xo U z..X.Xd.;.] f r r a r a M o.Y U ! 7.J.6.&.7.6.6.z.A.XXXXXXXXXXXXn.;.s r a ) 9.^.^.F.t P /.' # &X&X&X&X&X&X",
"&X&X&X&X&XO & 8 !.W.r % . 7 r r a a a W j.j < k.G.P.S S P.^.(. XXXXX XXX X X X` 8 r r r r E ^.^.F.y K /.R # &X&X&X&X&X&X",
"&X&X&X&X&X&X@ % C m + ; 8 a r r r s >.f.j.u.p.I.9.C s a N e./.(.(.(.(./.(.(./.( 8 a r r t.S.^.K.l., P /.' # &X&X&X&X&X&X",
"&X&X&X&X&X&X&XO : : . % 7 7 a G G H f.j.j.j.b.I.<.8 a r 8 7./.^.^.^.^.^.^.^.^.~ 8 r N ( S.^.L.B.s., J L.R # &X&X&X&X&X&X",
"&X&X&X&X&X&X&X&XO O O O O o x k.k.j.j.j.j.j.j.j.X.8 8 a 8 8./.^.^.^.^.^.^.^.^.~ 8 8 &.^.^.L.j.k.s.> h j.B # &X&X&X&X&X&X",
"&X&X&X&X&X&X&X&X&X&X&X&X&Xo x k.j.j.j.j.j.^ R H.N.q.C C e.V.^.^.^.^.^.^.^.^./.x.p.e.V.^.H.M.j.k.s.- g b.A $ &X&X&X&X&X&X",
"&X&X&X&X&X&X&X&X&X&X&X&X&Xo l i.f.j.j.f.u.c j P./.^.~ ~ ^.^.^.^.^.^.^.^.^.R.I.^././.^.^.b.g.j.j.a.> g j.E 3 &X&X&X&X&X&X",
"&X&X&X&X&X&X&X&X&X&X&X&X&X&X&X9 $.b.b.$.& w.P.^.^.^.P.P.^.^.^.^.^.^./.R.b.b.b.U.^.^.^.^.M.v.b.b.f.> h j.f.,.9 # &X&X&X&X",
"&X&X&X&X&X&X&X&X&X&X&X&X&X&X&X# E $.j...o t./.^.T.J.K.J.K.J.J.J.K.J.K.A.b.u.+.V./.^.L.J.b.s.} } } - g O.u.i.9 # &X&X&X&X",
"&X&X&X&X&X&X&X&X&X&X&X&X&X&X&X&X# 3 a.O.o t.^.^.J.k.h.h.j.h.h.h.j.g.j.h.b.O.# t./.^.J.h.j.-..     &X&X# +.i.5 $ &X&X&X&X",
"&X&X&X&X&X&X&X&X&X&X&X&X&X&X&X&XO , a.O.o t.^.B.b.j.I I k.h.j.j.j.j.j.j.b.O.. r.^.B.b.k.U 2 . o o &X&Xo O.f.9 $ &X&X&X&X",
"&X&X&X&X&X&X&X&X&X&X&X&X&X&X&X&Xo * -.) 0 c.U.j.i.0., y g.j.j.j.j.j.j.j.b.}   r.I.b.j.h.2   o o O &X&X  ( -.9 $ &X&X&X&X",
"&X&X&X&X&X&X&X&X&X&X&X&X&X&X&X&XO O . c f.v.b.b.( X . 1 k.b.j.j.j.j.j.j.b.}   r.R.b.j.k.2 o 4 & o &X&X&X+ + &X&X&X&X&X&X",
"&X&X&X&X&X&X&X&X&X&X&X&X&X&X&X&Xo + n #.b.j.i.( k . . * E ( ( / / / ../ ..c   8.H.j.>.! T B i 3 O &X&X&X&X&X&X&X&X&X&X&X",
"&X&X&X&X&X&X&X&X&X&X&X&X&X&X&X&X  = i.j.j.k.-.+ o O O O o o o # # # # # # O X $.j.j.!   <.1.i 3 o &X&X&X&X&X&X&X&X&X&X&X",
"&X&X&X&X&X&X&X&X&X&X&X&X&X&X&X&Xo % p.j.j.U <   < b @   &X&X&X&X&X&X&X&Xo l -.a.j.b.^   <.1.e $ . &X&X&X&X&X&X&X&X&X&X&X",
"&X&X&X&X&X&X&X&X&X&X&X&X&X&X&X&X0 x i.j.j.h   = h Q 2 = &X&X&X&X&X&X&X&Xy E b.j.f.>.R 1 +.@.p 9 = &X&X&X&X&X&X&X&X&X&X&X",
"&X&X&X&X&X&X&X&X&X&X&X&X&X&X&X  } j.h.j.j.h + L Q Q Q J . &X&X&X&X&XO , u.h.j.b.u.+ P l.V p T Q L = . &X&X&X&X&X&X&X&X&X",
"&X&X&X&X&X&X&X&X&X&X&X&X&X&X&X  } j.j.>.U 2 X 2 b Q Q K . &X&X&X&X&Xo * i.j.j.} n & z | w , Q Q U +   &X&X&X&X&X&X&X&X&X",
"&X&X&X&X&X&X&X&X&X&X&X&X&X&X&X  ( g.g.[   &X&X  2 U U b   &X&X&X&X&XO > y.s.s.g . 4 e 4 o = L U L +   &X&X&X&X&X&X&X&X&X",
"&X&X&X&X&X&X&X&X&X&X&X&X&X&X&X. = > > > &X&X&X&X+ = = + . &X&X&X&X&X. . > > > X . &X&X&X&X&X+ = = . . &X&X&X&X&X&X&X&X&X",
"&X&X&X&X&X&X&X&X&X&X&X&X&X&X&X.       &X&X&X&X&X&X    . . &X&X&X&X&X&X.         . &X&X&X&X&X.     . &X&X&X&X&X&X&X&X&X&X",
"&X&X&X&X&X&X&X&X&X&X&X&X&X&X&X&X&X&X&X&X&X&X&X&X&X&X&X&X&X&X&X&X&X&X&X&X&X&X&X&X&X&X&X&X&X&X&X&X&X&X&X&X&X&X&X&X&X&X&X&X",
"&X&X&X&X&X&X&X&X&X&X&X&X&X&X&X&X&X&X&X&X&X&X&X&X&X&X&X&X&X&X&X&X&X&X&X&X&X&X&X&X&X&X&X&X&X&X&X&X&X&X&X&X&X&X&X&X&X&X&X&X",
"&X&X&X&X&X&X&X&X&X&X&X&X&X&X&X&X&X&X&X&X&X&X&X&X&X&X&X&X&X&X&X&X&X&X&X&X&X&X&X&X&X&X&X&X&X&X&X&X&X&X&X&X&X&X&X&X&X&X&X&X",
"&X&X&X&X&X&X&X&X&X&X&X&X&X&X&X&X&X&X&X&X&X&X&X&X&X&X&X&X&X&X&X&X&X&X&X&X&X&X&X&X&X&X&X&X&X&X&X&X&X&X&X&X&X&X&X&X&X&X&X&X",
"&X&X&X&X&X&X&X&X&X&X&X&X&X&X&X&X&X&X&X&X&X&X&X&X&X&X&X&X&X&X&X&X&X&X&X&X&X&X&X&X&X&X&X&X&X&X&X&X&X&X&X&X&X&X&X&X&X&X&X&X",
"&X&X&X&X&X&X&X&X&X&X&X&X&X&X&X&X&X&X&X&X&X&X&X&X&X&X&X&X&X&X&X&X&X&X&X&X&X&X&X&X&X&X&X&X&X&X&X&X&X&X&X&X&X&X&X&X&X&X&X&X",
"&X&X&X&X&X&X&X&X&X&X&X&X&X&X&X&X&X&X&X&X&X&X&X&X&X&X&X&X&X&X&X&X&X&X&X&X&X&X&X&X&X&X&X&X&X&X&X&X&X&X&X&X&X&X&X&X&X&X&X&X",
"&X&X&X&X&X&X&X&X&X&X&X&X&X&X&X&X&X&X&X&X&X&X&X&X&X&X&X&X&X&X&X&X&X&X&X&X&X&X&X&X&X&X&X&X&X&X&X&X&X&X&X&X&X&X&X&X&X&X&X&X",
"&X&X&X&X&X&X&X&X&X&X&X&X&X&X&X&X&X&X&X&X&X&X&X&X&X&X&X&X&X&X&X&X&X&X&X&X&X&X&X&X&X&X&X&X&X&X&X&X&X&X&X&X&X&X&X&X&X&X&X&X"
};
