/* XPM */
static char *result[] = {
/* columns rows colors chars-per-pixel */
"60 60 168 2 ",
"   c #110000",
".  c #120000",
"X  c #130000",
"o  c #140000",
"O  c #150000",
"+  c #150201",
"@  c #170200",
"#  c #1A0000",
"$  c #1F0000",
"%  c #190503",
"&  c #1B0604",
"*  c #1F0A06",
"=  c #210000",
"-  c #220000",
";  c #220100",
":  c #230100",
">  c #240000",
",  c #240100",
"<  c #250100",
"1  c #270100",
"2  c #220600",
"3  c #290100",
"4  c #2A0100",
"5  c #2D0100",
"6  c #290400",
"7  c #280600",
"8  c #2C0600",
"9  c #200A06",
"0  c #200B07",
"q  c #270A06",
"w  c #2D0900",
"e  c #2D0A00",
"r  c #2E0A00",
"t  c #2C0A06",
"y  c #2C0D05",
"u  c #210E0B",
"i  c #260F09",
"p  c #300100",
"a  c #310100",
"s  c #320100",
"d  c #320200",
"f  c #390500",
"g  c #380600",
"h  c #3A0600",
"j  c #310A00",
"k  c #350A00",
"l  c #370D00",
"z  c #3E0900",
"x  c #3F0A00",
"c  c #3B0B06",
"v  c #3D0B06",
"b  c #25130E",
"n  c #2B120B",
"m  c #2C130C",
"M  c #2F150D",
"N  c #341A0F",
"B  c #3F1B0D",
"V  c #421100",
"C  c #4D1500",
"Z  c #4F1500",
"A  c #41110C",
"S  c #43130E",
"D  c #42140D",
"F  c #4A170E",
"G  c #511700",
"H  c #521700",
"J  c #531801",
"K  c #561902",
"L  c #571A03",
"P  c #571D05",
"I  c #591B03",
"U  c #5A1F06",
"Y  c #5A1E07",
"T  c #4A1A10",
"R  c #541F13",
"E  c #531C15",
"W  c #5C230B",
"Q  c #5D240C",
"!  c #5E260D",
"~  c #552216",
"^  c #592118",
"/  c #652D15",
"(  c #6C2F13",
")  c #6B2C15",
"_  c #723618",
"`  c #783C1D",
"'  c #582A21",
"]  c #583320",
"[  c #603320",
"{  c #613526",
"}  c #6A3320",
"|  c #603823",
" . c #643E23",
".. c #613A26",
"X. c #653929",
"o. c #723F30",
"O. c #7F3F30",
"+. c #7D4020",
"@. c #73462C",
"#. c #794B2F",
"$. c #744935",
"%. c #7F4D33",
"&. c #7E5740",
"*. c #83492E",
"=. c #8E502C",
"-. c #855337",
";. c #8F5B39",
":. c #8B5A3D",
">. c #935733",
",. c #915B39",
"<. c #975B39",
"1. c #9F6039",
"2. c #875D43",
"3. c #885F45",
"4. c #916340",
"5. c #996A4D",
"6. c #9D6F51",
"7. c #93725B",
"8. c #9F7958",
"9. c #AB6F46",
"0. c #A9634C",
"q. c #AA634C",
"w. c #AC634C",
"e. c #AC7046",
"r. c #AE7147",
"t. c #B17146",
"y. c #B6764A",
"u. c #B9794C",
"i. c #B76C53",
"p. c #A07352",
"a. c #BB7D51",
"s. c #9D7C63",
"d. c #AA8159",
"f. c #AF885E",
"g. c #BD8156",
"h. c #BE845A",
"j. c #BF875E",
"k. c #A68161",
"l. c #AD8263",
"z. c #A98460",
"x. c #AE8364",
"c. c #B78D60",
"v. c #BD9879",
"b. c #C18C63",
"n. c #C4936D",
"m. c #C69872",
"M. c #C79B76",
"N. c #C89E79",
"B. c #CA9E78",
"V. c #C3A073",
"C. c #CAA27F",
"Z. c #CCAA7C",
"A. c #CBA380",
"S. c #CCA684",
"D. c #D0AB87",
"F. c #D3B383",
"G. c #D9B58C",
"H. c #D8B78D",
"J. c #DABD8C",
"K. c #DDBD90",
"L. c #E1BF92",
"P. c #EDC88F",
"I. c #E9CE99",
"U. c #EED097",
"Y. c #F1D197",
"T. c #F9DB9F",
"R. c #FFE2A5",
"E. c None",
/* pixels */
"E.E.E.E.E.E.E.E.E.E.E.E.E.E.E.E.E.E.E.E.E.E.E.E.E.E.E.E.E.E.E.E.E.E.E.E.E.E.E.E.E.E.E.E.E.E.E.E.E.E.E.E.E.E.E.E.E.E.E.E.",
"E.E.E.E.E.E.E.E.E.E.E.E.E.E.E.E.E.E.E.E.E.E.E.E.E.E.E.E.E.E.E.E.E.E.E.E.E.E.E.E.E.E.E.E.E.E.E.E.E.E.E.E.E.E.E.E.E.E.E.E.",
"E.E.E.E.E.E.E.E.E.E.E.E.E.E.E.E.E.E.E.E.E.E.E.E.E.E.E.E.E.E.E.E.E.E.E.E.E.E.E.E.E.E.E.E.E.E.E.E.E.E.E.E.E.E.E.E.E.E.E.E.",
"E.E.E.E.E.E.E.E.E.E.E.E.E.E.E.E.E.E.E.E.E.E.E.E.E.E.E.E.E.E.E.E.E.E.E.E.E.E.E.E.E.E.E.E.E.E.E.E.E.E.E.E.E.E.E.E.E.E.E.E.",
"E.E.E.E.E.E.E.E.E.E.E.E.E.E.E.E.E.E.E.E.E.E.E.E.E.E.E.E.E.E.E.E.E.E.E.E.E.E.E.E.E.E.E.E.E.E.E.E.E.E.E.E.E.E.E.E.E.E.E.E.",
"E.E.E.E.E.E.E.E.E.E.E.E.E.E.E.E.E.E.E.E.E.E.E.E.E.E.E.E.E.E.E.E.E.E.E.E.E.E.E.E.E.E.E.E.E.E.E.E.E.E.E.E.E.E.E.E.E.E.E.E.",
"E.E.E.E.E.E.E.E.E.E.E.E.E.E.E.E.E.E.E.E.E.E.E.E.E.E.E.E.E.E.E.E.E.E.E.E.E.E.E.E.E.E.E.E.E.E.E.E.E.E.E.E.E.E.E.E.E.E.E.E.",
"E.E.E.E.E.E.E.E.E.E.E.E.E.E.E.E.E.E.E.E.E.E.E.E.E.E.E.E.E.E.E.E.E.E.E.E.E.E.E.E.E.E.E.E.E.E.E.E.E.E.E.E.E.E.E.E.E.E.E.E.",
"E.E.E.E.E.E.E.E.E.E.E.E.E.E.E.E.E.E.E.E.E.E.E.E.E.E.E.E.E.E.E.E.E.E.E.E.E.E.E.E.E.E.E.E.E.E.E.E.E.E.E.E.E.E.E.E.E.E.E.E.",
"E.E.E.E.E.E.E.E.E.E.E.E.E.E.E.E.E.E.E.E.E.E.E.E.E.E.E.E.E.E.E.E.E.E.E.E.E.E.E.E.E.E.E.E.E.E.E.E.E.E.E.E.E.E.E.E.E.E.E.E.",
"E.E.E.E.E.E.E.E.E.E.E.E.E.E.E.E.E.E.E.E.E.E.E.E.E.E.E.E.E.E.E.E.E.E.E.E.E.E.E.E.E.E.E.E.E.E.E.E.E.E.E.E.E.E.E.E.E.E.E.E.",
"E.E.E.E.E.E.E.E.E.E.E.E.E.E.E.E.E.E.E.E.E.E.E.E.E.E.E.E.E.E.E.E.E.E.E.E.E.E.E.E.E.E.E.E.E.E.E.E.E.E.E.E.E.E.E.E.E.E.E.E.",
"E.E.E.E.E.E.E.E.E.E.E.E.E.E.E.E.E.E.E.E.E.E.E.E.E.E.E.E.E.E.E.E.E.E.E.E.E.E.E.E.E.E.E.E.E.E.E.E.E.E.E.E.E.E.E.E.E.E.E.E.",
"E.E.E.E.E.E.E.E.E.E.E.E.E.E.E.E.E.E.E.E.E.E.E.E.E.E.E.E.E.E.E.E.E.E.E.E.E.E.E.E.E.E.E.E.E.E.E.E.E.E.E.E.E.E.E.E.E.E.E.E.",
"E.E.E.E.E.E.E.E.E.E.E.E.E.E.E.E.E.E.E.E.E.E.E.E.E.E.E.E.E.E.E.E.E.E.E.E.E.E.E.E.E.E.E.E.E.E.E.E.E.E.E.E.E.E.E.E.E.E.E.E.",
"E.E.E.E.E.E.E.E.E.E.E.E.E.E.E.E.E.E.E.E.E.E.E.E.E.E.E.E.E.E.E.E.E.E.E.E.E.E.E.s E.E.E.E.s E.E.E.E.E.E.E.E.E.E.E.E.E.E.E.",
"E.E.E.E.E.E.E.E.E.E.E.E.E.E.E.E.E.E.E.E.E.E.E.E.E.E.E.E.E.E.E.E.E.E.E.E.E.a D Z.{ a a { Z.D a E.E.E.E.E.E.E.E.E.E.E.E.E.",
"E.E.E.E.E.E.E.E.E.E.E.E.E.E.E.E.E.E.E.E.E.E.E.E.E.E.E.E.E.E.E.E.E.E.E.E.E.s S R.X.s s X.R.S s E.E.E.E.E.E.E.E.E.E.E.E.E.",
"E.E.E.E.E.E.E.E.E.E.E.E.E.E.E.E.E.E.E.E.E.E.E.E.E.E.E.E.E.E.E.E.s s s E.E.s S R.X.s s s s s s E.E.E.s s s E.E.E.E.E.E.E.",
"E.E.E.E.E.E.E.E.E.E.E.E.E.E.E.E.E.E.E.E.E.E.E.E.E.E.E.E.E.E.E.E.R R h f E.s A P.2.X.X.X.X.X.X.E.E.E.h h R F E.E.E.E.E.E.",
"E.E.E.E.E.E.E.E.E.E.E.E.E.E.s s s s s s s s s s s s s s s s s s u.u.H x s s v u.P.R.R.R.R.R.R.s s s H H u.} s E.E.E.E.E.",
"E.E.E.E.E.E.E.E.E.E.E.E.E.s J.J.J.J.J.J.J.J.J.J.Z Z Z Z Z Z Z Z c c t.` Z s v u.B.D.R.R.R.R.R.U.8.s H H q E.E.E.E.E.E.E.",
"E.E.E.E.E.E.E.E.E.E.E.E.E.s I.I.I.I.I.I.I.I.I.I.H H H H H H H H 3 3 u.+.H s v u.M.S.R.R.R.R.R.R.z.s H H p E.E.E.E.E.E.E.",
"E.E.E.E.E.E.E.E.E.E.E.s &.I.I.I.I.I.I.I.I.I.I.I.I.V.H H H H H H H H . . . u.u.u.u.u.S.G.R.R.R.R.z.s . . E.E.E.E.E.E.E.E.",
"E.E.E.E.E.E.E.E.E.E.E.&.k.K.I.I.I.I.I.d.f.I.I.I.I.F.4.P H H H H H H ] M . u.u.u.u.u.5.p.c.T.R.R.z.s     E.E.E.E.E.E.E.E.",
"E.E.E.E.E.E.E.E.E.s s I.K.S.I.I.I.I.I.H ! I.I.I.I.I.I.! H H H H H H u.] . u.u.u.u.u.H H H Y.R.R.z.s E.E.E.E.E.E.E.E.E.E.",
"E.E.E.E.E.E.E.E.s O . S.S.S.S.S.H H H I.I.I.I.I.I.I.I.! H H H H u.u.u.} s u.u.u.( H H V . v.S.R.R.R.s s E.E.E.E.E.E.E.E.",
"E.E.E.E.E.E.E.E.s O . S.S.S.S.S.H H H I.I.I.I.I.I.I.I.! H H H H u.u.u.} s u.u.u.( H H V . v.S.R.R.R.s s E.E.E.E.E.E.E.E.",
"E.E.E.E.E.E.s X.R.b . S.S.S.H H H H H H ! I.I.I.I.I.I.I.I.S.S.S.H H u.} $ u.t.H H H . . . v.S.S.L.R.R.R.s E.E.E.E.E.E.E.",
"E.E.E.E.E.E.s X.R.b . S.S.S.5.5.H H H H Q H.H.H.H.H.H.H.H.S.x.-.H H +.B # u.t.H H H l l l %.-.S.L.R.R.R.z.$.d E.E.E.E.E.",
"E.E.E.E.E.E.s X.R.b . S.S.S.S.S.H H H H W S.S.S.S.S.S.S.S.S.5.H H H H e . u.t.H H H H H H H H S.L.R.R.R.R.3.$ E.E.E.E.E.",
"E.E.E.E.E.E.s ' S.u . u.u.u.S.S.S.-.H H W S.S.S.S.S.S.S.S.S.5.H H H H =.u.. 9 u.( H H H H H H . e H R.R.H j 5 E.E.E.E.E.",
"E.E.E.E.E.E.s ' S.u . u.u.u.C.C.S.:.W W / S.S.S.S.S.S.S.S.S.6.W H H W >.a.9 m u._ U H H H H H @ r C Y.Y.C w s E.E.E.E.E.",
"E.E.E.E.E.E.s ' S.u . u.u.u.u.u.S.S.S.S.S.S.S.S.S.S.S.S.S.S.S.S.H H S.S.S.u.u.u.u.u.H H H H H H l . H H 3 E.E.E.E.E.E.E.",
"E.E.E.E.E.E.s ~ h.0 . u.u.u.u.u.h.m.S.S.A.h.N.S.S.S.S.S.S.S.S.S.l.l.S.S.S.u.u.u.u.u.1.1.1.y 7 8 6 , g g E.E.E.E.E.E.E.E.",
"E.E.E.E.E.E.s R u.9 . u.u.u.u.u.u.n.S.S.C.u.M.S.S.S.S.S.S.S.S.S.S.S.S.S.S.u.u.u.u.u.u.u.u.t = - 4 : , , E.E.E.E.E.E.E.E.",
"E.E.E.E.E.E.s R u.9 . u.u.u.u.u.u.n.S.S.v.. ;.u.u.h.S.S.S.S.S.S.S.S.S.b.u.u.u.u.u.u.u.<.s E.E.E.E.E.E.E.E.E.E.E.E.E.E.E.",
"E.E.E.E.E.E.s R u.9 . u.u.u.u.u.u.n.S.s.7.# ,.u.u.g.M.M.M.M.M.M.M.M.M.j.u.u.y.;.r.u.<.*.a E.E.E.E.E.E.E.E.E.E.E.E.E.E.E.",
"E.E.E.E.E.E.s R u.9 . u.u.u.u.u.u.n.S.. O s <.u.u.u.u.u.u.u.u.u.u.u.u.u.u.u.9.. ;.u.s a E.E.E.E.E.E.E.E.E.E.E.E.E.E.E.E.",
"E.E.E.E.E.E.s R u.e.9.9 | u.u.u.u...u 0.q.w.^ v u.u.u.u.u.u.#.9 u.u.u.u.u.9 n 9.y.u.O o E.E.E.E.E.E.E.E.E.E.E.E.E.E.E.E.",
"E.E.E.E.E.E.s R u.u.u.. ] u.u.u.u.] . i.i.i.E s u.u.u.u.u.u.@.. u.u.u.u.u.. 9 u.u.u..   E.E.E.E.E.E.E.E.E.E.E.E.E.E.E.E.",
"E.E.E.E.E.E.s R u.9 . ; [ u.u.u.. o.i.i.i.i.i.i.s s s s s $ < . . . u.u.u.. . . . . E.E.E.E.E.E.E.E.E.E.E.E.E.E.E.E.E.E.",
"E.E.E.E.E.E.d T @.*   1 } u.u.u.. o.i.i.i.i.i.i.x z d d d > >   . . u.u.u.. + N & . E.E.E.E.E.E.E.E.E.E.E.E.E.E.E.E.E.E.",
"E.E.E.E.E.E.E.E.. E.E.s } u.u.u.. o.i.i.i.i.i.i.H G E.E.E.E.E.E.. . u.u.u.. %  .i . E.E.E.E.E.E.E.E.E.E.E.E.E.E.E.E.E.E.",
"E.E.E.E.E.E.E.E.E.E.E.s } u.u.u.s O.i.H Y i.) H E.E.E.E.E.E.E.E.. . u.u.u.. %  .i . E.E.E.E.E.E.E.E.E.E.E.E.E.E.E.E.E.E.",
"E.E.E.E.E.E.E.E.E.E.E.s } u.u.u.s O.i.L Y i.) H E.E.E.E.E.E.E.E.. . u.u.u.. %  .i . E.E.E.E.E.E.E.E.E.E.E.E.E.E.E.E.E.E.",
"E.E.E.E.E.E.E.E.E.E.E.s } u.u.u.. l I K J J E.E.E.E.E.E.E.E.E.E.s s u.u.u.. %  .i . E.E.E.E.E.E.E.E.E.E.E.E.E.E.E.E.E.E.",
"E.E.E.E.E.E.E.E.E.E.E.s } u.u.u.. 2 k j r r E.E.E.E.E.E.E.E.E.E.s s u.u.u.. + N & . E.E.E.E.E.E.E.E.E.E.E.E.E.E.E.E.E.E.",
"E.E.E.E.E.E.E.E.E.E.E.s } u.u.u.. . . . . . E.E.E.E.E.E.E.E.E.E.s s u.u.u.. . . . . E.E.E.E.E.E.E.E.E.E.E.E.E.E.E.E.E.E.",
"E.E.E.E.E.E.E.E.E.E.E.. . . . . . E.E.E.E.E.E.E.E.E.E.E.E.E.E.E.. . . . . . X E.E.E.E.E.E.E.E.E.E.E.E.E.E.E.E.E.E.E.E.E.",
"E.E.E.E.E.E.E.E.E.E.E.X X X X X X E.E.E.E.E.E.E.E.E.E.E.E.E.E.E.X X X X X X . E.E.E.E.E.E.E.E.E.E.E.E.E.E.E.E.E.E.E.E.E.",
"E.E.E.E.E.E.E.E.E.E.E.E.E.E.E.E.E.E.E.E.E.E.E.E.E.E.E.E.E.E.E.E.E.E.E.E.E.E.E.E.E.E.E.E.E.E.E.E.E.E.E.E.E.E.E.E.E.E.E.E.",
"E.E.E.E.E.E.E.E.E.E.E.E.E.E.E.E.E.E.E.E.E.E.E.E.E.E.E.E.E.E.E.E.E.E.E.E.E.E.E.E.E.E.E.E.E.E.E.E.E.E.E.E.E.E.E.E.E.E.E.E.",
"E.E.E.E.E.E.E.E.E.E.E.E.E.E.E.E.E.E.E.E.E.E.E.E.E.E.E.E.E.E.E.E.E.E.E.E.E.E.E.E.E.E.E.E.E.E.E.E.E.E.E.E.E.E.E.E.E.E.E.E.",
"E.E.E.E.E.E.E.E.E.E.E.E.E.E.E.E.E.E.E.E.E.E.E.E.E.E.E.E.E.E.E.E.E.E.E.E.E.E.E.E.E.E.E.E.E.E.E.E.E.E.E.E.E.E.E.E.E.E.E.E.",
"E.E.E.E.E.E.E.E.E.E.E.E.E.E.E.E.E.E.E.E.E.E.E.E.E.E.E.E.E.E.E.E.E.E.E.E.E.E.E.E.E.E.E.E.E.E.E.E.E.E.E.E.E.E.E.E.E.E.E.E.",
"E.E.E.E.E.E.E.E.E.E.E.E.E.E.E.E.E.E.E.E.E.E.E.E.E.E.E.E.E.E.E.E.E.E.E.E.E.E.E.E.E.E.E.E.E.E.E.E.E.E.E.E.E.E.E.E.E.E.E.E.",
"E.E.E.E.E.E.E.E.E.E.E.E.E.E.E.E.E.E.E.E.E.E.E.E.E.E.E.E.E.E.E.E.E.E.E.E.E.E.E.E.E.E.E.E.E.E.E.E.E.E.E.E.E.E.E.E.E.E.E.E.",
"E.E.E.E.E.E.E.E.E.E.E.E.E.E.E.E.E.E.E.E.E.E.E.E.E.E.E.E.E.E.E.E.E.E.E.E.E.E.E.E.E.E.E.E.E.E.E.E.E.E.E.E.E.E.E.E.E.E.E.E.",
"E.E.E.E.E.E.E.E.E.E.E.E.E.E.E.E.E.E.E.E.E.E.E.E.E.E.E.E.E.E.E.E.E.E.E.E.E.E.E.E.E.E.E.E.E.E.E.E.E.E.E.E.E.E.E.E.E.E.E.E."
};
