/* XPM */
static char *result[] = {
/* columns rows colors chars-per-pixel */
"60 60 172 2 ",
"   c #140000",
".  c #150000",
"X  c #160000",
"o  c #170000",
"O  c #1A0000",
"+  c #190200",
"@  c #1C0000",
"#  c #1D0000",
"$  c #1E0000",
"%  c #1F0000",
"&  c #1B0503",
"*  c #1D0503",
"=  c #200000",
"-  c #210000",
";  c #230000",
":  c #270100",
">  c #2B0100",
",  c #2F0100",
"<  c #210907",
"1  c #220907",
"2  c #220A06",
"3  c #2D0900",
"4  c #2E0A00",
"5  c #2F0A00",
"6  c #290A06",
"7  c #230E0B",
"8  c #240D0A",
"9  c #310100",
"0  c #320100",
"q  c #340100",
"w  c #3B0600",
"e  c #380603",
"r  c #370C00",
"t  c #330A06",
"y  c #380D00",
"u  c #3F0B06",
"i  c #390E0B",
"p  c #3E0E0A",
"a  c #351A0F",
"s  c #3D1E13",
"d  c #3F2014",
"f  c #410A00",
"g  c #410F0A",
"h  c #400F0B",
"j  c #421100",
"k  c #4C1500",
"l  c #4D1500",
"z  c #4F1500",
"x  c #4E1601",
"c  c #43120D",
"v  c #45130E",
"b  c #511700",
"n  c #531600",
"m  c #521700",
"M  c #531801",
"N  c #551902",
"B  c #571A03",
"V  c #561C05",
"C  c #5A1C04",
"Z  c #5A1F06",
"A  c #501808",
"S  c #551F13",
"D  c #551C15",
"F  c #5C230B",
"G  c #5E260D",
"H  c #452516",
"J  c #4C2D1D",
"K  c #522218",
"L  c #54291A",
"P  c #502E1A",
"I  c #58351E",
"U  c #61250B",
"Y  c #6C2F13",
"T  c #612C1C",
"R  c #72321A",
"E  c #422921",
"W  c #5A2920",
"Q  c #5A2A21",
"!  c #582D23",
"~  c #553627",
"^  c #593320",
"/  c #5D3521",
"(  c #6B2E23",
")  c #613320",
"_  c #603227",
"`  c #613426",
"'  c #6C3320",
"]  c #613823",
"[  c #643E23",
"{  c #643629",
"}  c #673929",
"|  c #793820",
" . c #7C3B23",
".. c #7E3D2F",
"X. c #733F30",
"o. c #7D4020",
"O. c #74462C",
"+. c #614537",
"@. c #79553D",
"#. c #7F614D",
"$. c #81472C",
"%. c #84492E",
"&. c #8E502C",
"*. c #815030",
"=. c #815032",
"-. c #855337",
";. c #995A34",
":. c #9E573E",
">. c #905B39",
",. c #965B39",
"<. c #975B39",
"1. c #935D3B",
"2. c #985B39",
"3. c #9F6039",
"4. c #805740",
"5. c #845F45",
"6. c #895F45",
"7. c #916340",
"8. c #956647",
"9. c #9A6C45",
"0. c #986C47",
"q. c #976B4C",
"w. c #98684A",
"e. c #996A4D",
"r. c #A16741",
"t. c #AB6F46",
"y. c #AE6F44",
"u. c #AE6F46",
"i. c #AF654C",
"p. c #AD7046",
"a. c #AF7046",
"s. c #B17146",
"d. c #B17147",
"f. c #B9794C",
"g. c #BA7C4F",
"h. c #B76C53",
"j. c #BB7D51",
"k. c #9E7C63",
"l. c #AA8159",
"z. c #AF885E",
"x. c #BE845A",
"c. c #BF875E",
"v. c #AD8263",
"b. c #AA8460",
"n. c #B08566",
"m. c #BA9171",
"M. c #BF9776",
"N. c #BD9879",
"B. c #C08A61",
"V. c #C18C63",
"C. c #C18D64",
"Z. c #C4936D",
"A. c #C79B76",
"S. c #C3A073",
"D. c #CAA27F",
"F. c #CEAB7D",
"G. c #C8A281",
"H. c #CCA684",
"J. c #D0AB87",
"K. c #D9B58C",
"L. c #DBBA8B",
"P. c #DCB98E",
"I. c #DDBD90",
"U. c #E4BC88",
"Y. c #E1BF92",
"T. c #EDC88F",
"R. c #EAC997",
"E. c #E9CE99",
"W. c #F1D197",
"Q. c #F2D39D",
"!. c #FFE2A5",
"~. c None",
/* pixels */
"~.~.~.~.~.~.~.~.~.~.~.~.~.~.~.~.~.~.~.~.~.~.~.~.~.~.~.~.~.~.~.~.~.~.~.~.~.~.~.~.~.~.~.~.~.~.~.~.~.~.~.~.~.~.~.~.~.~.~.~.",
"~.~.~.~.~.~.~.~.~.~.~.~.~.~.~.~.~.~.~.~.~.~.~.~.~.~.~.~.~.~.~.~.~.~.~.~.~.~.~.~.~.~.~.~.~.~.~.~.~.~.~.~.~.~.~.~.~.~.~.~.",
"~.~.~.~.~.~.~.~.~.~.~.~.~.~.~.~.~.~.~.~.~.~.~.~.~.~.~.~.~.~.~.~.~.~.~.~.~.~.~.~.~.~.~.~.~.~.~.~.~.~.~.~.~.~.~.~.~.~.~.~.",
"~.~.~.~.~.~.~.~.~.~.~.~.~.~.~.~.~.~.~.~.~.~.~.~.~.~.~.~.~.~.~.~.~.~.~.~.~.~.~.~.~.~.~.~.~.~.~.~.~.~.~.~.~.~.~.~.~.~.~.~.",
"~.~.~.~.~.~.~.~.~.~.~.~.~.~.~.~.~.~.~.~.~.~.~.~.~.~.~.~.~.~.~.~.~.~.~.~.~.~.~.~.~.~.~.~.~.~.~.~.~.~.~.~.~.~.~.~.~.~.~.~.",
"~.~.~.~.~.~.~.~.~.~.~.~.~.~.~.~.~.~.~.~.~.~.~.~.~.~.~.~.~.~.~.~.~.~.~.~.~.~.~.~.~.~.~.~.~.~.~.~.~.~.~.~.~.~.~.~.~.~.~.~.",
"~.~.~.~.~.~.~.~.~.~.~.~.~.~.~.~.~.~.~.~.~.~.~.~.~.~.~.~.~.~.~.~.~.~.~.~.~.~.~.~.~.~.~.~.~.~.~.~.~.~.~.~.~.~.~.~.~.~.~.~.",
"~.~.~.~.~.~.~.~.~.~.~.~.~.~.~.~.~.~.~.~.~.~.~.~.~.~.~.~.~.~.~.~.~.~.~.~.~.~.~.~.~.~.~.~.~.~.~.~.~.~.~.~.~.~.~.~.~.~.~.~.",
"~.~.~.~.~.~.~.~.~.~.~.~.~.~.~.~.~.~.~.~.~.~.~.~.~.~.~.~.~.~.~.~.~.~.~.~.~.~.~.~.~.~.~.~.~.~.~.~.~.~.~.~.~.~.~.~.~.~.~.~.",
"~.~.~.~.~.~.~.~.~.~.~.~.~.~.~.~.~.~.~.~.~.~.~.~.~.~.~.~.~.~.~.~.~.~.~.~.~.~.~.~.~.~.~.~.~.~.~.~.~.~.~.~.~.~.~.~.~.~.~.~.",
"~.~.~.~.~.~.~.~.~.~.~.~.~.~.~.~.~.~.~.~.~.~.~.~.~.~.~.~.~.~.~.~.~.~.~.~.~.~.~.~.~.~.~.~.~.~.~.~.~.~.~.~.~.~.~.~.~.~.~.~.",
"~.~.~.~.~.~.~.~.~.~.~.~.~.~.~.~.~.~.~.~.~.~.~.~.~.~.~.~.~.~.~.~.~.~.~.~.~.~.~.~.~.~.~.~.~.~.~.~.~.~.~.~.~.~.~.~.~.~.~.~.",
"~.~.~.~.~.~.~.~.~.~.~.~.~.~.~.~.~.~.~.~.~.~.~.~.~.~.~.~.~.~.~.~.~.~.~.~.~.~.~.~.~.~.~.~.~.~.~.~.~.~.~.~.~.~.~.~.~.~.~.~.",
"~.~.~.~.~.~.~.~.~.~.~.~.~.~.~.~.~.~.~.~.~.~.~.~.~.~.~.~.~.~.~.~.~.~.~.~.~.~.~.q ~.~.~.~.q ~.~.~.~.~.~.~.~.~.~.~.~.~.~.~.",
"~.~.~.~.~.~.~.~.~.~.~.~.~.~.~.~.~.~.~.~.~.~.~.~.~.~.~.~.~.~.~.~.~.~.~.~.~.~.~.v ~.~.~.~.v ~.~.~.~.~.~.~.~.~.~.~.~.~.~.~.",
"~.~.~.~.~.~.~.~.~.~.~.~.~.~.~.~.~.~.~.~.~.~.~.~.~.~.~.~.~.~.~.~.~.~.~.~.~.q v !.} q q } !.v q ~.~.~.~.~.~.~.~.~.~.~.~.~.",
"~.~.~.~.~.~.~.~.~.~.~.~.~.~.~.~.~.~.~.~.~.~.~.~.~.~.~.~.~.~.~.~.q q q ~.~.q v !.} q q g } e q ~.~.~.q q q ~.~.~.~.~.~.~.",
"~.~.~.~.~.~.~.~.~.~.~.~.~.~.~.~.~.~.~.~.~.~.~.~.~.~.~.~.~.~.~.~.q q q ~.~.q v !.} q q q q q q ~.~.~.q q q ~.~.~.~.~.~.~.",
"~.~.~.~.~.~.~.~.~.~.~.~.~.~.~.~.~.~.~.~.~.~.~.~.~.~.~.~.~.~.~.q f.f.m f q q u f.T.!.!.!.!.!.!.q q q m m f.' q ~.~.~.~.~.",
"~.~.~.~.~.~.~.~.~.~.~.~.~.~.~.~.~.~.~.~.~.~.~.~.~.~.~.~.~.~.~.q >.>.Y A w q u f.U.Q.!.!.!.!.!.} K q m m ,.T q ~.~.~.~.~.",
"~.~.~.~.~.~.~.~.~.~.~.~.~.~.~.~.~.~.~.~.~.~.~.~.~.~.~.~.~.~.~.~.o o f.o.m q u f.A.H.!.!.!.!.!.!.b.q m m # ~.~.~.~.~.~.~.",
"~.~.~.~.~.~.~.~.~.~.~.~.~.~.q q q q q q q q q q q q q q q q q q 0 0 2 * + u.a.f.g.j.J.P.!.!.!.!.b.q + + ~.~.~.~.~.~.~.~.",
"~.~.~.~.~.~.~.~.~.~.~.~.~.~.q q q q q q q q q q q q q q q q q q q q       f.f.f.f.f.H.K.!.!.!.!.b.q     ~.~.~.~.~.~.~.~.",
"~.~.~.~.~.~.~.~.~.~.~.~.~.q E.E.E.E.E.E.E.E.E.E.m m m m m m m m m m f.^   f.f.f.f.f.m m m W.!.!.b.q ~.~.~.~.~.~.~.~.~.~.",
"~.~.~.~.~.~.~.~.~.~.~.~.{ 4.E.E.E.E.E.E.E.E.E.E.7.*.m m m m m m m m f.) - f.f.f.;.&.m k y L.R.!.F.6.~.~.~.~.~.~.~.~.~.~.",
"~.~.~.~.~.~.~.~.q q q q 4.E.E.E.E.E.E.E.E.E.E.E.E.S.m m m m m m m m f.' q f.f.f.Y m m j   N.H.!.!.!.q q ~.~.~.~.~.~.~.~.",
"~.~.~.~.~.~.q ` E.c q E.I.H.E.E.E.E.E.m G E.E.E.E.E.E.G m m m m m m f.^ : f.s.m m m       N.H.H.Y.!.!.!.q ~.~.~.~.~.~.~.",
"~.~.~.~.~.~.q ` E.c q E.I.H.E.E.E.E.E.m G E.E.E.E.E.E.G m m m m m m f.^ : f.s.m m m       N.H.H.Y.!.!.!.q ~.~.~.~.~.~.~.",
"~.~.~.~.~.~.q Q H.h q H.H.H.H.H.m m m E.E.E.E.E.E.E.E.G m m m m H.H.f.^   f.s.m m m m m m m m H.Y.!.!.!.!.5.$ ~.~.~.~.~.",
"~.~.~.~.~.~.q Q H.h q H.H.H.-.-.m m m 7.0.E.E.E.E.E.E.z.l.e.e.e.-.-.Z.8.O.^ / &.U m m m m m m +.@.9.!.!.9.J @ ~.~.~.~.~.",
"~.~.~.~.~.~.q Q H.h q H.H.H.m m m m m m G E.E.E.E.E.E.E.E.H.H.H.m m H.V.f.  2 f.Y m m m m m m   4 m !.!.m 4 % ~.~.~.~.~.",
"~.~.~.~.~.~.q Q H.i X f.V.H.H.H.m m m m F H.H.H.H.H.H.H.H.H.e.m m m m e.H.f.f.f.f.f.m m m m m m y   m m O ~.~.~.~.~.~.~.",
"~.~.~.~.~.~.q W D.p > f.B.D.H.H.F V m m F H.H.H.H.H.H.H.H.H.e.m m m m w.D.f.f.f.f.f.Z Z Z x z l r . l l   ~.~.~.~.~.~.~.",
"~.~.~.~.~.~.q S f.2 @ f.f.f.H.H.H.-.m m F H.H.H.H.H.H.H.H.H.e.m m m m &.f.f.f.f.f.f.f.f.f.2 # = : > ,   ~.~.~.~.~.~.~.~.",
"~.~.~.~.~.~.q S f.2 X f.f.f.x.x.H.m.v.v.n.H.C.x.H.H.H.H.H.H.M.v.m m 3.y.f.f.f.f.f.f.f.f.f.6 = ~.~.~.~.~.~.~.~.~.~.~.~.~.",
"~.~.~.~.~.~.q S f.2   f.f.f.f.f.H.H.H.H.H.H.x.f.H.H.H.H.H.H.H.H.m m f.f.f.f.f.f.f.f.f.f.f.t $ ~.~.~.~.~.~.~.~.~.~.~.~.~.",
"~.~.~.~.q q f.f.f.2   f.f.f.f.f.f.Z.H.H.H.H.E   f.f.f.f.f.f.V.H.H.H.f.f.f.f.f.f.f.f.f.2.q ~.~.~.~.~.~.~.~.~.~.~.~.~.~.~.",
"~.~.~.~.q q f.d.2.1   >.r.f.f.f.f.Z.H.H.G.k.~ s f.f.f.f.f.f.c.A.H.H.f.f.f.>.1.f.f.f.2.%.q ~.~.~.~.~.~.~.~.~.~.~.~.~.~.~.",
"~.~.~.~.q q f.2.q ~.~.  ^ f.f.f.f.Z.H.H.N.  >.f.f.f.f.f.f.f.f.f.H.H.f.f.f.  2 f.f.f.q q ~.~.~.~.~.~.~.~.~.~.~.~.~.~.~.~.",
"~.~.~.~.q q f.>.o ~.~.~.~.2 f.f.f.Z.H.7 8 9 <.f.f.f.f.f.f.2 ] f.j.j.f.] 2 t.p.f.f.f.; o ~.~.~.~.~.~.~.~.~.~.~.~.~.~.~.~.",
"~.~.~.~.q q f.>.  ~.~.~.~.  f.f.f.Z.H.  o q 2.f.f.f.f.f.f.  ^ f.f.f.f.^   f.f.f.f.f.;   ~.~.~.~.~.~.~.~.~.~.~.~.~.~.~.~.",
"~.~.~.~.~.~.    ~.~.~.  ^ f.f.f.f.Z.H.  < h.D q f.f.f.f.f.f.O.  f.f.f.^   f.f.f.s   ~.~.~.~.~.~.~.~.~.~.~.~.~.~.~.~.~.~.",
"~.~.~.~.~.~.. ~.~.~.~.^ =.f.f.f.f.q.#.! _ h...( $.$.$.$.$.$.L   f.f.f.^   O.O.O.H a ~.~.~.~.~.~.~.~.~.~.~.~.~.~.~.~.~.~.",
"~.~.~.~.~.~.~.~.~.    f.f.f.f.f.f.^   h.h.h.h.h.q q q q q q :   f.f.f.^         P [     ~.~.~.~.~.~.~.~.~.~.~.~.~.~.~.~.",
"~.~.~.~.~.~.~.~.~.    f.f.f.      X.h.h.h.h.h.h.h.:.m ~.~.~.~.  f.f.f.^     & [ [ [     ~.~.~.~.~.~.~.~.~.~.~.~.~.~.~.~.",
"~.~.~.~.~.~.~.~.~.    f.f.f.      X.h.h.h.h.h.h.h.:.m ~.~.~.~.  f.f.f.^     & [ [ [     ~.~.~.~.~.~.~.~.~.~.~.~.~.~.~.~.",
"~.~.~.~.~.~.~.~.  t.f.f.O.  ~.~.~.n m h.i.m :.h.m b ~.~.~.  ^ f.f.f.f.^     & [ [ [ [ P   ~.~.~.~.~.~.~.~.~.~.~.~.~.~.~.",
"~.~.~.~.~.~.~.~.  t.f.f.O.  ~.~.~.5 4  .| C R  .4 3 ~.~.~.  ^ f.f.f.^ d ~.~.~.a I [ [ P   ~.~.~.~.~.~.~.~.~.~.~.~.~.~.~.",
"~.~.~.~.~.~.~.~.  t.f.f.O.  ~.~.~..   N M M N B     ~.~.~.  ^ f.f.f.  ~.~.~.~.  P [ [ P   ~.~.~.~.~.~.~.~.~.~.~.~.~.~.~.",
"~.~.~.~.~.~.~.~.        . ~.~.~.~.~.~.  X X         ~.~.~.            ~.~.~.~.            ~.~.~.~.~.~.~.~.~.~.~.~.~.~.~.",
"~.~.~.~.~.~.~.~.        . ~.~.~.~.~.~.              ~.~.~.            ~.~.~.~.            ~.~.~.~.~.~.~.~.~.~.~.~.~.~.~.",
"~.~.~.~.~.~.~.~.~.~.~.~.~.~.~.~.~.~.~.~.~.~.~.~.~.~.~.~.~.~.~.~.~.~.~.~.~.~.~.~.~.~.~.~.~.~.~.~.~.~.~.~.~.~.~.~.~.~.~.~.",
"~.~.~.~.~.~.~.~.~.~.~.~.~.~.~.~.~.~.~.~.~.~.~.~.~.~.~.~.~.~.~.~.~.~.~.~.~.~.~.~.~.~.~.~.~.~.~.~.~.~.~.~.~.~.~.~.~.~.~.~.",
"~.~.~.~.~.~.~.~.~.~.~.~.~.~.~.~.~.~.~.~.~.~.~.~.~.~.~.~.~.~.~.~.~.~.~.~.~.~.~.~.~.~.~.~.~.~.~.~.~.~.~.~.~.~.~.~.~.~.~.~.",
"~.~.~.~.~.~.~.~.~.~.~.~.~.~.~.~.~.~.~.~.~.~.~.~.~.~.~.~.~.~.~.~.~.~.~.~.~.~.~.~.~.~.~.~.~.~.~.~.~.~.~.~.~.~.~.~.~.~.~.~.",
"~.~.~.~.~.~.~.~.~.~.~.~.~.~.~.~.~.~.~.~.~.~.~.~.~.~.~.~.~.~.~.~.~.~.~.~.~.~.~.~.~.~.~.~.~.~.~.~.~.~.~.~.~.~.~.~.~.~.~.~.",
"~.~.~.~.~.~.~.~.~.~.~.~.~.~.~.~.~.~.~.~.~.~.~.~.~.~.~.~.~.~.~.~.~.~.~.~.~.~.~.~.~.~.~.~.~.~.~.~.~.~.~.~.~.~.~.~.~.~.~.~.",
"~.~.~.~.~.~.~.~.~.~.~.~.~.~.~.~.~.~.~.~.~.~.~.~.~.~.~.~.~.~.~.~.~.~.~.~.~.~.~.~.~.~.~.~.~.~.~.~.~.~.~.~.~.~.~.~.~.~.~.~.",
"~.~.~.~.~.~.~.~.~.~.~.~.~.~.~.~.~.~.~.~.~.~.~.~.~.~.~.~.~.~.~.~.~.~.~.~.~.~.~.~.~.~.~.~.~.~.~.~.~.~.~.~.~.~.~.~.~.~.~.~.",
"~.~.~.~.~.~.~.~.~.~.~.~.~.~.~.~.~.~.~.~.~.~.~.~.~.~.~.~.~.~.~.~.~.~.~.~.~.~.~.~.~.~.~.~.~.~.~.~.~.~.~.~.~.~.~.~.~.~.~.~."
};
