/* XPM */
static char *result[] = {
/* columns rows colors chars-per-pixel */
"60 60 131 2 ",
"   c #6C4B1F",
".  c #655517",
"X  c #557203",
"o  c #577A01",
"O  c #5B7C02",
"+  c #637808",
"@  c #7A7F17",
"#  c #79751A",
"$  c #734227",
"%  c #774529",
"&  c #79462A",
"*  c #7D4A2C",
"=  c #D50611",
"-  c #DF2829",
";  c #E52B2B",
":  c #84502F",
">  c #844F30",
",  c #855031",
"<  c #8A5333",
"1  c #915736",
"2  c #925836",
"3  c #A2633E",
"4  c #E5453D",
"5  c #D65B49",
"6  c #E5574A",
"7  c #DD634F",
"8  c #D66E55",
"9  c #D77059",
"0  c #DC7F5D",
"q  c #E3745D",
"w  c #DD7360",
"e  c #DB7B60",
"r  c #E57962",
"t  c #5D8201",
"y  c #628603",
"u  c #658B02",
"i  c #698E04",
"p  c #728D04",
"a  c #7B8D03",
"s  c #7B850A",
"d  c #6C9305",
"f  c #6E9409",
"g  c #719605",
"h  c #7D9504",
"j  c #749B06",
"k  c #7B9D06",
"l  c #72960A",
"z  c #759B09",
"x  c #799C09",
"c  c #739512",
"v  c #769814",
"b  c #789B15",
"n  c #7C9C1E",
"m  c #7EA107",
"M  c #7DA009",
"N  c #7FA11E",
"B  c #7D9C20",
"V  c #848B03",
"C  c #898F04",
"Z  c #829605",
"A  c #8D9504",
"S  c #849D06",
"D  c #8D9F05",
"F  c #849F08",
"G  c #8A9E09",
"H  c #939C05",
"J  c #989F04",
"K  c #879B11",
"L  c #82A207",
"P  c #8DA006",
"I  c #82A109",
"U  c #8AA409",
"Y  c #8DA90B",
"T  c #94A104",
"R  c #99A204",
"E  c #93A60A",
"W  c #99A409",
"Q  c #94AA0B",
"!  c #9CAB0D",
"~  c #9DB20F",
"^  c #85A411",
"/  c #81A21E",
"(  c #A3B30F",
")  c #A4B410",
"_  c #ABBB11",
"`  c #81A026",
"'  c #85A12C",
"]  c #8CA433",
"[  c #94AA3F",
"{  c #B1C113",
"}  c #9AAB48",
"|  c #A2B256",
" . c #BFBE73",
".. c #DC926F",
"X. c #DE9371",
"o. c #E39A7C",
"O. c #DCAC7E",
"+. c #C1BE78",
"@. c #C2C17D",
"#. c #E49C80",
"$. c #DDAB80",
"%. c #E4A386",
"&. c #E0B38B",
"*. c #D2C78A",
"=. c #DBC48D",
"-. c #D8C98D",
";. c #CECF98",
":. c #DEC595",
">. c #DBCC95",
",. c #DDCE9B",
"<. c #DFD19E",
"1. c #D2D5A7",
"2. c #DFD3A2",
"3. c #DCD9AD",
"4. c #E3CDA6",
"5. c #E1D4A5",
"6. c #E2D7AA",
"7. c #E3D9AE",
"8. c #E5DCB4",
"9. c #E4DEB8",
"0. c #E8DFBA",
"q. c #E6E0BC",
"w. c #E9E1BD",
"e. c #EAE3C3",
"r. c #ECE6CA",
"t. c #ECE8CD",
"y. c #EEE9D2",
"u. c #EEEBD9",
"i. c #F2EDDC",
"p. c #F3EFE1",
"a. c None",
/* pixels */
"a.a.a.a.a.a.a.a.a.a.a.a.a.a.a.a.a.a.a.a.a.a.a.a.a.a.a.a.a.a.a.a.a.a.a.a.a.a.a.a.a.a.a.a.a.a.a.a.a.a.a.a.a.a.a.a.a.a.a.a.",
"a.a.a.a.a.a.a.a.a.a.a.a.a.a.a.a.a.a.a.a.a.a.a.a.a.a.a.a.a.a.a.$ $ a.a.a.a.a.a.a.a.a.a.a.a.a.a.a.a.a.a.a.a.a.a.a.a.a.a.a.",
"a.a.a.a.a.a.a.a.a.a.a.a.a.a.a.a.a.a.a.a.a.a.a.a.a.a.a.a.a.a.$ & % & a.a.a.a.a.a.a.a.a.a.a.a.a.a.a.a.a.a.a.a.a.a.a.a.a.a.",
"a.a.a.a.a.a.a.a.a.a.a.a.a.a.a.a.a.a.a.a.a.a.a.a.a.a.a.a.a.> & * < , , a.a.a.a.a.a.a.a.a.a.a.a.a.a.a.a.a.a.a.a.a.a.a.a.a.",
"a.a.a.a.a.a.a.a.a.a.a.a.a.a.a.a.a.a.a.a.a.a.a.a.a.a.a.a.> > & & 3 1 , a.a.a.a.a.a.a.a.a.a.a.a.a.a.a.a.a.a.a.a.a.a.a.a.a.",
"a.a.a.a.a.a.a.a.a.a.a.a.a.a.a.a.a.a.a.a.a.a.a.a.a.a.a.: > > > % 2 , a.a.a.a.a.a.a.a.a.a.a.a.a.a.a.a.a.a.a.a.a.a.a.a.a.a.",
"a.a.a.a.a.a.a.a.a.a.a.a.a.a.a.a.a.a.a.a.a.a.a.a.a.a.a., , < 3 3 < a.a.a.a.a.a.a.a.a.a.a.a.a.a.a.a.a.a.a.a.a.a.a.a.a.a.a.",
"a.a.a.a.a.a.a.a.a.a.a.a.a.a.a.a.a.a.a.a.a.a.a.a.a.a.& , < a.a.a.a.a.a.a.a.a.a.a.a.a.a.a.a.a.a.a.a.a.a.a.a.a.a.a.a.a.a.a.",
"a.a.a.a.a.a.a.a.a.a.a.a.a.a.a.a.a.a.a.a.a.a.a.a.a.a.& > a.a.a.a.a.a.a.a.a.a.a.a.a.a.a.a.a.a.a.a.a.a.a.a.a.a.a.a.a.a.a.a.",
"a.a.a.a.a.a.a.a.a.a.a.a.a.a.a.a.a.a.a.a.a.a.a.a.a.$ & > a.a.a.a.a.a.a.a.a.a.a.a.a.a.a.a.a.a.a.a.a.a.a.a.a.a.a.a.a.a.a.a.",
"a.a.a.a.a.a.a.a.a.a.a.a.a.a.a.a.a.a.a.a.a.a.a.a.a.$ : # a.a.a.a.a.a.a.a.a.a.a.a.a.a.a.a.a.a.a.a.a.a.a.a.a.a.a.a.a.a.a.a.",
"a.a.a.a.a.a.a.a.a.a.a.a.a.a.a.a.a.a.a.a.a.d t t   $ @ j j a.a.a.a.a.a.a.a.a.a.a.a.a.a.a.a.a.a.a.a.a.a.a.a.a.a.a.a.a.a.a.",
"a.a.a.a.a.a.a.a.a.a.a.a.a.a.a.a.a.a.a.d i t o . $ + i j j a.a.a.a.a.a.a.a.a.a.a.a.a.a.a.a.a.a.a.a.a.a.a.a.a.a.a.a.a.a.a.",
"a.a.a.a.a.a.a.a.a.a.a.a.a.a.a.a.a.a.a.d d i t X o t j m j L a.a.a.a.a.a.a.a.a.a.a.a.a.a.a.a.a.a.a.a.a.a.a.a.a.a.a.a.a.a.",
"a.a.a.a.a.a.a.a.a.a.a.a.a.a.a.a.a.a.d d d d d j j j j j z m a.a.a.a.a.a.a.a.a.a.a.a.a.a.a.a.a.a.a.a.a.a.a.a.a.a.a.a.a.a.",
"a.a.a.a.a.a.a.a.a.a.a.a.a.a.a.a.a.a.d d d m j m m z j m L I L a.a.a.a.a.a.a.a.a.a.a.a.a.a.a.a.a.a.a.a.a.a.a.a.a.a.a.a.a.",
"a.a.a.a.a.a.a.a.a.a.a.a.a.a.a.a.a.d d d k k T D D m k U E Y L a.a.a.a.a.a.a.a.a.a.a.a.a.a.a.a.a.a.a.a.a.a.a.a.a.a.a.a.a.",
"a.a.a.a.a.a.a.a.a.a.a.a.a.a.a.a.a.d d d j k D T L S L L Y W U L a.a.a.a.a.a.a.a.a.a.a.a.a.a.a.a.a.a.a.a.a.a.a.a.a.a.a.a.",
"a.a.a.a.a.a.a.a.a.a.a.a.a.a.a.a.a.d d d g k D P H D L P E ! ! Y Y a.a.a.a.a.a.a.a.a.a.a.a.a.a.a.a.a.a.a.a.a.a.a.a.a.a.a.",
"a.a.a.a.a.a.a.a.a.a.a.a.a.a.a.a.a.j d d j k S P P P L H R ~ { Y U a.a.a.a.a.a.a.a.a.a.a.a.a.a.a.a.a.a.a.a.a.a.a.a.a.a.a.",
"a.a.a.a.a.a.a.a.a.a.a.a.a.a.a.a.a.d d d j m L H D D L T W ! { Y L L a.a.a.a.a.a.a.a.a.a.a.a.a.a.a.a.a.a.a.a.a.a.a.a.a.a.",
"a.a.a.a.a.a.a.a.a.a.a.a.a.a.a.a.a.d g d g d h P D J D D D ! ( { Y L L a.a.a.a.a.a.a.a.a.a.a.a.a.a.a.a.a.a.a.a.a.a.a.a.a.",
"a.a.a.a.a.a.a.a.a.a.a.a.a.a.a.a.a.d d j M j k P D T P P D P Q { U L L a.a.a.a.a.a.a.a.a.a.a.a.a.a.a.a.a.a.a.a.a.a.a.a.a.",
"a.a.a.a.a.a.a.a.a.a.a.a.a.a.a.a.a.u g d j k P P D D T D D P ! ! _ Q L L a.a.a.a.a.a.a.a.a.a.a.a.a.a.a.a.a.a.a.a.a.a.a.a.",
"a.a.a.a.a.a.a.a.a.a.a.a.a.a.a.a.a.u d j g k L P D D P T T T T T W ( Q L a.a.a.a.a.a.a.a.a.a.a.a.a.a.a.a.a.a.a.a.a.a.a.a.",
"a.a.a.a.a.a.a.a.a.a.a.a.a.a.a.a.u i d d g k k m L S D T R T D D T R ~ L L a.a.a.a.a.a.a.a.a.a.a.a.a.a.a.a.a.a.a.a.a.a.a.",
"a.a.a.a.a.a.a.a.a.a.a.a.a.a.a.a.u u d d j j j j g j k T R R T T P T L L L M a.a.a.a.a.a.a.a.a.a.a.a.a.a.a.a.a.a.a.a.a.a.",
"a.a.a.a.a.a.a.a.a.a.a.a.a.a.a.a.t d d d j j j j j k j T T T T R T T H L M I I a.a.a.a.a.a.a.a.a.a.a.a.a.a.a.a.a.a.a.a.a.",
"a.a.a.a.a.a.a.a.a.a.a.a.a.a.a.a.u i l d g j j j g j S T T T H T T T R S k I k I a.a.a.a.a.a.a.a.a.a.a.a.a.a.a.a.a.a.a.a.",
"a.a.a.a.a.a.a.a.a.a.a.a.a.a.a.a.d i d d d j d d d j j j m S P T H D T D F I I I I a.a.a.a.a.a.a.a.a.a.a.a.a.a.a.a.a.a.a.",
"a.a.a.a.a.a.a.a.a.a.a.a.a.a.a.a.i d f i d d d g j j j k m m k P G T R D G F I I M I a.a.a.a.a.a.a.a.a.a.a.a.a.a.a.a.a.a.",
"a.a.a.a.a.a.a.a.a.a.a.a.a.a.a.y u t i d g j m E ! ( ( _ ~ E L k S S D D S S k L I M I a.a.a.a.a.a.a.a.a.a.a.a.a.a.a.a.a.",
"a.a.a.a.a.a.a.a.a.a.a.a.a.a.a.u i i j j m L Y U Q W E Q ~ ! E L m d g S m j M M m M I M a.a.a.a.a.a.a.a.a.a.a.a.a.a.a.a.",
"a.a.a.a.a.a.a.a.a.a.a.a.a.a.d d j z j j M M M M j j j j x j x L m j j d j j j M U L M I a.a.a.a.a.a.a.a.a.a.a.a.a.a.a.a.",
"a.a.a.a.a.a.a.a.a.a.a.a.a.u d d g d d z i u f f l i d i f f l p j d j d d m M j Y Q L I I a.a.a.a.a.a.a.a.a.a.a.a.a.a.a.",
"a.a.a.a.a.a.a.a.a.a.a.a.d f d d d d c c | e.q.*.5.8.r.e.4.w.u.y.n c g j d d j j U ~ L M M a.a.a.a.a.a.a.a.a.a.a.a.a.a.a.",
"a.a.a.a.a.a.a.a.a.a.a.a.d i d d i v >.8.w.y.e.,.5.0.e.w.2.e.y.p.<.7.K ` N ` j j M Y ! ^ I I a.a.a.a.a.a.a.a.a.a.a.a.a.a.",
"a.a.a.a.a.a.a.a.a.a.a.a.d i i v B y.+.7.0.8.6.$.<.0.0.4.$.,.e.e.2.e.e.8.7.1.n m z Y ! U I k a.a.a.a.a.a.a.a.a.a.a.a.a.a.",
"a.a.a.a.a.a.a.a.a.a.a.a.a.d d } 2.r.] ..X...o.- e X.X.w = 5 X.o.X.#.%.7.;.' u j z U ! Q I I a.a.a.a.a.a.a.a.a.a.a.a.a.a.",
"a.a.a.a.a.a.a.a.a.a.a.a.a.a.a.t +.5.=.8 q q ; 5 8 9 q 6 6 q r r q 8 ..} ] g i j x U ! Q ^ k I a.a.a.a.a.a.a.a.a.a.a.a.a.",
"a.a.a.a.a.a.a.a.a.a.a.a.a.y u i  .e.,.2.-.>.O.=.,.2.5.:.&.e.e.y.y.1.' d m d d z M L ! Q I L I a.a.a.a.a.a.a.a.a.a.a.a.a.",
"a.a.a.a.a.a.a.a.a.a.a.a.y u i y  .2.,.w.t.r.6.7.8.t.i.r.7.e.8.6.N M j m d j M j x L ! ) Y I I a.a.a.a.a.a.a.a.a.a.a.a.a.",
"a.a.a.a.a.a.a.a.a.a.a.a.y i d d d d d d } u.9.8.0.0.3.d d d d i M I m m d M z j L Y ~ ) E L I a.a.a.a.a.a.a.a.a.a.a.a.a.",
"a.a.a.a.a.a.a.a.a.a.a.a.y d g d d d d d d d d d f d d I F k S L M z j d d j m z L Y ) _ E L I a.a.a.a.a.a.a.a.a.a.a.a.a.",
"a.a.a.a.a.a.a.a.a.a.a.a.u i d d d j d d g j k k I Q E Y Y Y Q Q M z d j j j z M U ! _ _ E U M a.a.a.a.a.a.a.a.a.a.a.a.a.",
"a.a.a.a.a.a.a.a.a.a.a.a.a.u d d d d j g j k m L E _ _ _ ~ ) L x f g j z j j j L ! ! _ ) ! U L a.a.a.a.a.a.a.a.a.a.a.a.a.",
"a.a.a.a.a.a.a.a.a.a.a.a.a.a.y i p d d d d d d l g k F F x k x j j z M L m m x Y ! _ { _ ! L m a.a.a.a.a.a.a.a.a.a.a.a.a.",
"a.a.a.a.a.a.a.a.a.a.a.a.a.a.u u u u u u i u i i i d g l j j j j z k x S G x L ! ) { { ) Y Y a.a.a.a.a.a.a.a.a.a.a.a.a.a.",
"a.a.a.a.a.a.a.a.a.a.a.a.a.a.a.p p p d d d d g g x j j j x j z x L I S S S I W ! _ ) ! ! Y U a.a.a.a.a.a.a.a.a.a.a.a.a.a.",
"a.a.a.a.a.a.a.a.a.a.a.a.a.a.a.a.p d d d d k k h l g j j j L U F S A H G F G ! { ) ! E U L a.a.a.a.a.a.a.a.a.a.a.a.a.a.a.",
"a.a.a.a.a.a.a.a.a.a.a.a.a.a.a.a.g d d p h S Z S x c x Z x k S G H k A I F ! ) W ! W Q L L a.a.a.a.a.a.a.a.a.a.a.a.a.a.a.",
"a.a.a.a.a.a.a.a.a.a.a.a.a.a.a.a.a.a Z Z Z A H H A G A K S S D A H F U T W W ! ! Q U L L a.a.a.a.a.a.a.a.a.a.a.a.a.a.a.a.",
"a.a.a.a.a.a.a.a.a.a.a.a.a.a.a.a.a.a.S V Z A H J H H W J H A G D H D U Q Q Q Q U L L m a.a.a.a.a.a.a.a.a.a.a.a.a.a.a.a.a.",
"a.a.a.a.a.a.a.a.a.a.a.a.a.a.a.a.a.a.a.C A A A H J J J J H G G G G S k U I I S F x x a.a.a.a.a.a.a.a.a.a.a.a.a.a.a.a.a.a.",
"a.a.a.a.a.a.a.a.a.a.a.a.a.a.a.a.a.a.a.a.V V A A H H H J H H U G G S G G L I k x x a.a.a.a.a.a.a.a.a.a.a.a.a.a.a.a.a.a.a.",
"a.a.a.a.a.a.a.a.a.a.a.a.a.a.a.a.a.a.a.a.a.V V V A A H H H H H H G D S U S k j x a.a.a.a.a.a.a.a.a.a.a.a.a.a.a.a.a.a.a.a.",
"a.a.a.a.a.a.a.a.a.a.a.a.a.a.a.a.a.a.a.a.a.a.s V V V A A H H H D H H A k k g a.a.a.a.a.a.a.a.a.a.a.a.a.a.a.a.a.a.a.a.a.a.",
"a.a.a.a.a.a.a.a.a.a.a.a.a.a.a.a.a.a.a.a.a.a.a.a.a.a.a.a.a.a.a.a.a.a.a.a.a.a.a.a.a.a.a.a.a.a.a.a.a.a.a.a.a.a.a.a.a.a.a.a.",
"a.a.a.a.a.a.a.a.a.a.a.a.a.a.a.a.a.a.a.a.a.a.a.a.a.a.a.a.a.a.a.a.a.a.a.a.a.a.a.a.a.a.a.a.a.a.a.a.a.a.a.a.a.a.a.a.a.a.a.a.",
"a.a.a.a.a.a.a.a.a.a.a.a.a.a.a.a.a.a.a.a.a.a.a.a.a.a.a.a.a.a.a.a.a.a.a.a.a.a.a.a.a.a.a.a.a.a.a.a.a.a.a.a.a.a.a.a.a.a.a.a."
};
