/* XPM */
static char *result[] = {
/* columns rows colors chars-per-pixel */
"60 60 148 2 ",
"   c #693B23",
".  c #605313",
"X  c #567A01",
"o  c #5C7E02",
"O  c #547103",
"+  c #6B7B0B",
"@  c #767A0E",
"#  c #744327",
"$  c #724E20",
"%  c #774529",
"&  c #79462A",
"*  c #C7020B",
"=  c #CF040D",
"-  c #D3040E",
";  c #D8050F",
":  c #DA0410",
">  c #E50612",
",  c #E50914",
"<  c #E90A16",
"1  c #EC0C18",
"2  c #EA111D",
"3  c #D63F36",
"4  c #E22728",
"5  c #815914",
"6  c #8A541D",
"7  c #824E2F",
"8  c #844F30",
"9  c #865031",
"0  c #8B5231",
"q  c #925632",
"w  c #9F613C",
"e  c #A3643E",
"r  c #D84C3F",
"t  c #D75948",
"y  c #E35245",
"u  c #DB6F58",
"i  c #DB755C",
"p  c #E47962",
"a  c #5D8201",
"s  c #638703",
"d  c #668B03",
"f  c #6A8E05",
"g  c #658809",
"h  c #718C04",
"j  c #6C9305",
"k  c #729605",
"l  c #7B9604",
"z  c #749B06",
"x  c #7B9C06",
"c  c #70960A",
"v  c #759B09",
"b  c #7C9E08",
"n  c #739511",
"m  c #779B11",
"M  c #7E9D1C",
"N  c #7EA107",
"B  c #7D9B21",
"V  c #818704",
"C  c #858C04",
"Z  c #819505",
"A  c #8C9405",
"S  c #859D06",
"D  c #8D9E05",
"F  c #8C970C",
"G  c #829F08",
"H  c #899E08",
"J  c #939B05",
"K  c #849F12",
"L  c #8D9E11",
"P  c #809F1D",
"I  c #82A307",
"U  c #8DA106",
"Y  c #82A109",
"T  c #8AA309",
"R  c #8EA90B",
"E  c #94A104",
"W  c #98A304",
"Q  c #93A60A",
"!  c #99A508",
"~  c #94AA0B",
"^  c #9BAB0C",
"/  c #9EB00F",
"(  c #8BA712",
")  c #86A51C",
"_  c #A4B30F",
"`  c #A3B310",
"'  c #A8B710",
"]  c #ADBD11",
"[  c #819C23",
"{  c #8FA83B",
"}  c #93A53B",
"|  c #B0C012",
" . c #9BAA4B",
".. c #A1AD4B",
"X. c #ADB35D",
"o. c #B0B764",
"O. c #BFB572",
"+. c #BCBB70",
"@. c #DD8467",
"#. c #D78C6B",
"$. c #DC8B6B",
"%. c #DE9573",
"&. c #DD9D78",
"*. c #E28368",
"=. c #E19B77",
"-. c #E39E7D",
";. c #DCA67D",
":. c #C1BE75",
">. c #BEC17B",
",. c #DEB388",
"<. c #DDB98A",
"1. c #DFBC90",
"2. c #E0BF91",
"3. c #C3C686",
"4. c #CDC789",
"5. c #CDC88C",
"6. c #CBC582",
"7. c #D9C58F",
"8. c #D4C88B",
"9. c #C8CC91",
"0. c #D4CC94",
"q. c #DDCD95",
"w. c #DECC99",
"e. c #D5D19C",
"r. c #DCD19D",
"t. c #E2C296",
"y. c #E0CF9F",
"u. c #D5D5A5",
"i. c #DBD6A6",
"p. c #DBD7AA",
"a. c #DCD9AC",
"s. c #DFDEBA",
"d. c #E3CDA3",
"f. c #E1D4A4",
"g. c #E2D7AA",
"h. c #E3D8AD",
"j. c #E5DCB3",
"k. c #E7DFBA",
"l. c #E8DFBB",
"z. c #E9E0BD",
"x. c #EBE3C2",
"c. c #EDE6CB",
"v. c #EDE8CD",
"b. c #E5E4C9",
"n. c #EEE9D1",
"m. c #F2EDDD",
"M. c #F3EFE1",
"N. c None",
/* pixels */
"N.N.N.N.N.N.N.N.N.N.N.N.N.N.N.N.N.N.N.N.N.N.N.N.N.N.N.N.N.N.N.N.N.N.N.N.N.N.N.N.N.N.N.N.N.N.N.N.N.N.N.N.N.N.N.N.N.N.N.N.",
"N.N.N.N.N.N.N.N.N.N.N.N.N.N.N.N.N.N.N.N.N.N.N.N.N.N.N.N.N.N.N.# # N.N.N.N.N.N.N.N.N.N.N.N.N.N.N.N.N.N.N.N.N.N.N.N.N.N.N.",
"N.N.N.N.N.N.N.N.N.N.N.N.N.N.N.N.N.N.N.N.N.N.N.N.N.N.N.N.N.N.# % & & N.N.N.N.N.N.N.N.N.N.N.N.N.N.N.N.N.N.N.N.N.N.N.N.N.N.",
"N.N.N.N.N.N.N.N.N.N.N.N.N.N.N.N.N.N.N.N.N.N.N.N.N.N.N.N.N.9 % 7 0 0 7 N.N.N.N.N.N.N.N.N.N.N.N.N.N.N.N.N.N.N.N.N.N.N.N.N.",
"N.N.N.N.N.N.N.N.N.N.N.N.N.N.N.N.N.N.N.N.N.N.N.N.N.N.N.N.8 9 % & w q 9 N.N.N.N.N.N.N.N.N.N.N.N.N.N.N.N.N.N.N.N.N.N.N.N.N.",
"N.N.N.N.N.N.N.N.N.N.N.N.N.N.N.N.N.N.N.N.N.N.N.N.N.N.N.8 8 9 9 % q 9 N.N.N.N.N.N.N.N.N.N.N.N.N.N.N.N.N.N.N.N.N.N.N.N.N.N.",
"N.N.N.N.N.N.N.N.N.N.N.N.N.N.N.N.N.N.N.N.N.N.N.N.N.N.N.7 8 q e e 0 N.N.N.N.N.N.N.N.N.N.N.N.N.N.N.N.N.N.N.N.N.N.N.N.N.N.N.",
"N.N.N.N.N.N.N.N.N.N.N.N.N.N.N.N.N.N.N.N.N.N.N.N.N.N.& 7 0 N.N.N.N.N.N.N.N.N.N.N.N.N.N.N.N.N.N.N.N.N.N.N.N.N.N.N.N.N.N.N.",
"N.N.N.N.N.N.N.N.N.N.N.N.N.N.N.N.N.N.N.N.N.N.N.N.N.N.% 9 N.N.N.N.N.N.N.N.N.N.N.N.N.N.N.N.N.N.N.N.N.N.N.N.N.N.N.N.N.N.N.N.",
"N.N.N.N.N.N.N.N.N.N.N.N.N.N.N.N.N.N.N.N.N.N.N.N.N.# % 9 N.N.N.N.N.N.N.N.N.N.N.N.N.N.N.N.N.N.N.N.N.N.N.N.N.N.N.N.N.N.N.N.",
"N.N.N.N.N.N.N.N.N.N.N.N.N.N.N.N.N.N.N.N.N.N.N.N.N.# 9 @ N.N.N.N.N.N.N.N.N.N.N.N.N.N.N.N.N.N.N.N.N.N.N.N.N.N.N.N.N.N.N.N.",
"N.N.N.N.N.N.N.N.N.N.N.N.N.N.N.N.N.N.N.N.N.j a X $ % @ z z N.N.N.N.N.N.N.N.N.N.N.N.N.N.N.N.N.N.N.N.N.N.N.N.N.N.N.N.N.N.N.",
"N.N.N.N.N.N.N.N.N.N.N.N.N.N.N.N.N.N.N.j d a a .   g f z z N.N.N.N.N.N.N.N.N.N.N.N.N.N.N.N.N.N.N.N.N.N.N.N.N.N.N.N.N.N.N.",
"N.N.N.N.N.N.N.N.N.N.N.N.N.N.N.N.N.N.N.j j j a O + a z z z N N.N.N.N.N.N.N.N.N.N.N.N.N.N.N.N.N.N.N.N.N.N.N.N.N.N.N.N.N.N.",
"N.N.N.N.N.N.N.N.N.N.N.N.N.N.N.N.N.N.j j j z N j j z z z v N N.N.N.N.N.N.N.N.N.N.N.N.N.N.N.N.N.N.N.N.N.N.N.N.N.N.N.N.N.N.",
"N.N.N.N.N.N.N.N.N.N.N.N.N.N.N.N.N.N.j j j z z N z N z N T Y Y N.N.N.N.N.N.N.N.N.N.N.N.N.N.N.N.N.N.N.N.N.N.N.N.N.N.N.N.N.",
"N.N.N.N.N.N.N.N.N.N.N.N.N.N.N.N.N.j j j z S U J I N x I ~ R I N.N.N.N.N.N.N.N.N.N.N.N.N.N.N.N.N.N.N.N.N.N.N.N.N.N.N.N.N.",
"N.N.N.N.N.N.N.N.N.N.N.N.N.N.N.N.N.j j j l x D E D I N U R Q T I N.N.N.N.N.N.N.N.N.N.N.N.N.N.N.N.N.N.N.N.N.N.N.N.N.N.N.N.",
"N.N.N.N.N.N.N.N.N.N.N.N.N.N.N.N.N.j j k z x S E J D x U Q ^ ^ R I N.N.N.N.N.N.N.N.N.N.N.N.N.N.N.N.N.N.N.N.N.N.N.N.N.N.N.",
"N.N.N.N.N.N.N.N.N.N.N.N.N.N.N.N.N.k j k z l S E U D I E W / | R I N.N.N.N.N.N.N.N.N.N.N.N.N.N.N.N.N.N.N.N.N.N.N.N.N.N.N.",
"N.N.N.N.N.N.N.N.N.N.N.N.N.N.N.N.N.j j j z z S U D D I J E ^ | R N I N.N.N.N.N.N.N.N.N.N.N.N.N.N.N.N.N.N.N.N.N.N.N.N.N.N.",
"N.N.N.N.N.N.N.N.N.N.N.N.N.N.N.N.N.j j j z z x U D E E U E ^ ` | R N I N.N.N.N.N.N.N.N.N.N.N.N.N.N.N.N.N.N.N.N.N.N.N.N.N.",
"N.N.N.N.N.N.N.N.N.N.N.N.N.N.N.N.N.j j k z z z E D E D D D U W | R T I N.N.N.N.N.N.N.N.N.N.N.N.N.N.N.N.N.N.N.N.N.N.N.N.N.",
"N.N.N.N.N.N.N.N.N.N.N.N.N.N.N.N.N.d k k z x U E J U W D D U W ^ ' R I T N.N.N.N.N.N.N.N.N.N.N.N.N.N.N.N.N.N.N.N.N.N.N.N.",
"N.N.N.N.N.N.N.N.N.N.N.N.N.N.N.N.N.d j z z x I I U D E E E E E J W _ ~ I N.N.N.N.N.N.N.N.N.N.N.N.N.N.N.N.N.N.N.N.N.N.N.N.",
"N.N.N.N.N.N.N.N.N.N.N.N.N.N.N.N.d j j z k x N N N S U W W E U E U ~ ~ I I N.N.N.N.N.N.N.N.N.N.N.N.N.N.N.N.N.N.N.N.N.N.N.",
"N.N.N.N.N.N.N.N.N.N.N.N.N.N.N.N.j d j j z z z z z x D E E W E E D D E I I N N.N.N.N.N.N.N.N.N.N.N.N.N.N.N.N.N.N.N.N.N.N.",
"N.N.N.N.N.N.N.N.N.N.N.N.N.N.N.N.a j j j j z j z z z Z U E W W E W D U S I Y Y N.N.N.N.N.N.N.N.N.N.N.N.N.N.N.N.N.N.N.N.N.",
"N.N.N.N.N.N.N.N.N.N.N.N.N.N.N.N.d f j j j j j j k z z z S U E E W W E S b K G Y N.N.N.N.N.N.N.N.N.N.N.N.N.N.N.N.N.N.N.N.",
"N.N.N.N.N.N.N.N.N.N.N.N.N.N.N.N.f j j z j j N z N I N N N z S S J E E U G Y N N Y N.N.N.N.N.N.N.N.N.N.N.N.N.N.N.N.N.N.N.",
"N.N.N.N.N.N.N.N.N.N.N.N.N.N.N.N.d a d j k N T ~ ^ ] _ ] / E I z l U E D H Y N Y N N N.N.N.N.N.N.N.N.N.N.N.N.N.N.N.N.N.N.",
"N.N.N.N.N.N.N.N.N.N.N.N.N.N.N.d d d k z N I Q ! ~ ~ ^ ^ _ / Q I x k x x G G v T Y Y Y N.N.N.N.N.N.N.N.N.N.N.N.N.N.N.N.N.",
"N.N.N.N.N.N.N.N.N.N.N.N.N.N.f d j z v c j k l z z l c z l x v Y Y k j k z z b N I N Y b N.N.N.N.N.N.N.N.N.N.N.N.N.N.N.N.",
"N.N.N.N.N.N.N.N.N.N.N.N.N.d j z v f j B e.r.9.:.6.e.i.i.3.i.a.[ j k z k z z z v T I Y N N.N.N.N.N.N.N.N.N.N.N.N.N.N.N.N.",
"N.N.N.N.N.N.N.N.N.N.N.N.f j j j j f u.y.z.n.x.0.f.x.n.v.g.v.M.n.5.u.f v j c z N T ~ T N Y N.N.N.N.N.N.N.N.N.N.N.N.N.N.N.",
"N.N.N.N.N.N.N.N.N.N.N.N.f j k c n 0.q.l.x.n.c.7.f.l.l.l.y.z.n.m.r.x.a.m N z z z R ~ T N b N.N.N.N.N.N.N.N.N.N.N.N.N.N.N.",
"N.N.N.N.N.N.N.N.N.N.N.N.j j f X.h.M.4.h.j.i.1.3 &.<.<.@.t g.c.n.f.z.z.z...z v z Y Q / Y Y K N.N.N.N.N.N.N.N.N.N.N.N.N.N.",
"N.N.N.N.N.N.N.N.N.N.N.N.N.f f X.h.n.g 3.;.u ; > : : : = = i ,.,.q.z.z.g.i. .v v z P / T Y Y N.N.N.N.N.N.N.N.N.N.N.N.N.N.",
"N.N.N.N.N.N.N.N.N.N.N.N.N.N.N. .:.o.5 6 : , 1 > : = - : , 1 > < *.$.%.f.r.>.z k z T ^ ~ Y Y N.N.N.N.N.N.N.N.N.N.N.N.N.N.",
"N.N.N.N.N.N.N.N.N.N.N.N.N.N.N.d } ..* : 1 2 > = : : > < 1 < > > < p *.z.>.) j z b T / ~ Y b Y N.N.N.N.N.N.N.N.N.N.N.N.N.",
"N.N.N.N.N.N.N.N.N.N.N.N.N.N.s s +.j.#., 1 > - ; > > > , y &.&.&.-.w.5.{ M z f N b T ^ ~ T N N N.N.N.N.N.N.N.N.N.N.N.N.N.",
"N.N.N.N.N.N.N.N.N.N.N.N.N.d d d +.z.y.4 t.<.t %.t.t.t.1.d.c.c.m.m.u.m j N j z z v I ^ ` ~ I Y N.N.N.N.N.N.N.N.N.N.N.N.N.",
"N.N.N.N.N.N.N.N.N.N.N.N.s s j d +.r.q.z.n.m.j.h.z.n.m.c.f.x.f.r.v j z N j z z z N ) / _ ~ N N N.N.N.N.N.N.N.N.N.N.N.N.N.",
"N.N.N.N.N.N.N.N.N.N.N.N.s f j j j j 5.0.s.b.i.i.p.p.p.p.0.0.B j b N N N j z z v I T _ ] T T Y N.N.N.N.N.N.N.N.N.N.N.N.N.",
"N.N.N.N.N.N.N.N.N.N.N.N.d j j j j j j j j j j j k k k j c j Y T b v j j z z z N T ^ ' ' ~ ( N N.N.N.N.N.N.N.N.N.N.N.N.N.",
"N.N.N.N.N.N.N.N.N.N.N.N.s f j j k z k j v z x x U ~ ^ ~ ~ ~ ~ R b k k x N z v T ^ / | _ ^ T I N.N.N.N.N.N.N.N.N.N.N.N.N.",
"N.N.N.N.N.N.N.N.N.N.N.N.N.s d j j j j z z x x Y ~ ` ] _ / / Y v z k l N v z z Q ^ | | ' ^ N N N.N.N.N.N.N.N.N.N.N.N.N.N.",
"N.N.N.N.N.N.N.N.N.N.N.N.N.N.s d d j j d j f j f f l l z z l l z z x x G N N T ^ ` | | ` ~ R N.N.N.N.N.N.N.N.N.N.N.N.N.N.",
"N.N.N.N.N.N.N.N.N.N.N.N.N.N.N.h h f f j j f j j j j l z v v v b Y x H H G G Q ^ ] ` ^ ^ T I N.N.N.N.N.N.N.N.N.N.N.N.N.N.",
"N.N.N.N.N.N.N.N.N.N.N.N.N.N.N.N.k j k j j l x l l j z z k b Y Y S H T H H Y ` ] ` ^ ! T I N.N.N.N.N.N.N.N.N.N.N.N.N.N.N.",
"N.N.N.N.N.N.N.N.N.N.N.N.N.N.N.N.k k j k Z x Z Z l v G S G l Z D J S H H T ! ` ^ ^ ~ ~ I I N.N.N.N.N.N.N.N.N.N.N.N.N.N.N.",
"N.N.N.N.N.N.N.N.N.N.N.N.N.N.N.N.N.Z l Z A J J J A K A A S Z U J J G D E ! ! ^ ~ ~ T I I N.N.N.N.N.N.N.N.N.N.N.N.N.N.N.N.",
"N.N.N.N.N.N.N.N.N.N.N.N.N.N.N.N.N.N.Z Z l J J W J J J J F D D F E E K Q ^ Q Q T Y N I N.N.N.N.N.N.N.N.N.N.N.N.N.N.N.N.N.",
"N.N.N.N.N.N.N.N.N.N.N.N.N.N.N.N.N.N.N.C C A A J J J J J J H D H Y S Y H Y Y Y N x z N.N.N.N.N.N.N.N.N.N.N.N.N.N.N.N.N.N.",
"N.N.N.N.N.N.N.N.N.N.N.N.N.N.N.N.N.N.N.N.V A A A J J J ! ! J U S H H Y T G N K b x N.N.N.N.N.N.N.N.N.N.N.N.N.N.N.N.N.N.N.",
"N.N.N.N.N.N.N.N.N.N.N.N.N.N.N.N.N.N.N.N.N.V C C A A J J ! J J D H H H H Y N l z N.N.N.N.N.N.N.N.N.N.N.N.N.N.N.N.N.N.N.N.",
"N.N.N.N.N.N.N.N.N.N.N.N.N.N.N.N.N.N.N.N.N.N.V C C C A A J J J L J J J l v k N.N.N.N.N.N.N.N.N.N.N.N.N.N.N.N.N.N.N.N.N.N.",
"N.N.N.N.N.N.N.N.N.N.N.N.N.N.N.N.N.N.N.N.N.N.N.N.N.N.N.N.N.N.N.N.N.N.N.N.N.N.N.N.N.N.N.N.N.N.N.N.N.N.N.N.N.N.N.N.N.N.N.N.",
"N.N.N.N.N.N.N.N.N.N.N.N.N.N.N.N.N.N.N.N.N.N.N.N.N.N.N.N.N.N.N.N.N.N.N.N.N.N.N.N.N.N.N.N.N.N.N.N.N.N.N.N.N.N.N.N.N.N.N.N.",
"N.N.N.N.N.N.N.N.N.N.N.N.N.N.N.N.N.N.N.N.N.N.N.N.N.N.N.N.N.N.N.N.N.N.N.N.N.N.N.N.N.N.N.N.N.N.N.N.N.N.N.N.N.N.N.N.N.N.N.N."
};
