/* XPM */
static char *result[] = {
/* columns rows colors chars-per-pixel */
"60 60 245 2 ",
"   c black",
".  c #020202",
"X  c #0C0604",
"o  c #060708",
"O  c gray3",
"+  c #0B0B0B",
"@  c gray5",
"#  c gray6",
"$  c #120302",
"%  c #170302",
"&  c #1B0E0E",
"*  c #0D0F12",
"=  c #0E1012",
"-  c #0A1418",
";  c #101010",
":  c gray9",
">  c #15181C",
",  c #191919",
"<  c #1A1B1C",
"1  c #1E1E1E",
"2  c #201717",
"3  c #2B1D14",
"4  c #1F2123",
"5  c #1C2125",
"6  c #16303D",
"7  c #222222",
"8  c #212528",
"9  c #23272A",
"0  c #232A2F",
"q  c #262A2E",
"w  c #2F2F2F",
"e  c #272C31",
"r  c #2B3339",
"t  c #2E353B",
"y  c #323134",
"u  c #353535",
"i  c #303539",
"p  c #30383F",
"a  c gray24",
"s  c #3F3F3F",
"d  c #400A08",
"f  c #440D0C",
"g  c #480F0F",
"h  c #530A06",
"j  c #571212",
"k  c #600F0D",
"l  c #7D1817",
"z  c #721818",
"x  c #741E1A",
"c  c #781818",
"v  c #7E1918",
"b  c #422816",
"n  c #47291B",
"m  c #4A2B1B",
"M  c #4B2B1B",
"N  c #492B1C",
"B  c #4A2A1C",
"V  c #4A2B1C",
"C  c #4A2B1D",
"Z  c #4A2C1C",
"A  c #502F1D",
"S  c #503525",
"D  c #583420",
"F  c #5D3721",
"G  c #7E2C2C",
"H  c #603922",
"J  c #633B23",
"K  c #673D24",
"L  c #683E24",
"P  c #633D29",
"I  c #643E2A",
"U  c #3F7939",
"Y  c #6E4226",
"T  c #6F4226",
"R  c #774728",
"E  c #70452C",
"W  c #774828",
"Q  c #7C4B2A",
"!  c #7D4B2C",
"~  c #734832",
"^  c #754D37",
"/  c #456838",
"(  c #636031",
")  c #323A41",
"_  c #333A41",
"`  c #323B43",
"'  c #353E46",
"]  c #3A4148",
"[  c #38424B",
"{  c #3F4850",
"}  c #1C7140",
"|  c gray26",
" . c gray27",
".. c gray28",
"X. c gray30",
"o. c #434B51",
"O. c #495057",
"+. c #4D5459",
"@. c gray32",
"#. c gray34",
"$. c #55595D",
"%. c gray35",
"&. c #5D5D5D",
"*. c gray37",
"=. c #715F7C",
"-. c #5B6065",
";. c #5E6265",
":. c #626262",
">. c #65696C",
",. c gray45",
"<. c #747474",
"1. c gray50",
"2. c #880015",
"3. c #831917",
"4. c #8C1916",
"5. c #801918",
"6. c #881918",
"7. c #921510",
"8. c #9A1914",
"9. c #9B1915",
"0. c #981B17",
"q. c #AE150D",
"w. c #A01B17",
"e. c #AE1912",
"r. c #AA1A14",
"t. c #A81C17",
"y. c #AB1C17",
"u. c #AE1C17",
"i. c #BA1B14",
"p. c #BA1C16",
"a. c #A7211F",
"s. c #802F2F",
"d. c #8C363F",
"f. c #983B3A",
"g. c #CC190F",
"h. c #D81C12",
"j. c #DF1C11",
"k. c #DE1C12",
"l. c #E31C11",
"z. c #DB2119",
"x. c #ED1C24",
"c. c #E63329",
"v. c #826115",
"b. c #8F6C16",
"n. c #916C17",
"m. c #916D18",
"M. c #824E2B",
"N. c #834F2C",
"B. c #8B5D25",
"V. c #85502C",
"C. c #89552C",
"Z. c #864D33",
"A. c #854E32",
"S. c #864E33",
"D. c #874E33",
"F. c #864F33",
"G. c #854E34",
"H. c #895430",
"J. c #8A5430",
"K. c #8D5632",
"L. c #815239",
"P. c #915A36",
"I. c #945E3F",
"U. c #985F3C",
"Y. c #99613F",
"T. c #AE3B43",
"R. c #9F4442",
"E. c #905D41",
"W. c #9F6541",
"Q. c #9C6546",
"!. c #AD704D",
"~. c #AE714E",
"^. c #AF7352",
"/. c #B27552",
"(. c #B47653",
"). c #B97A57",
"_. c #904D60",
"`. c #8D7E76",
"'. c #A66D6D",
"]. c #22B14C",
"[. c #23B14C",
"{. c #B58B13",
"}. c #BD9A31",
"|. c #D9AB0F",
" X c #D4A918",
".X c #E0B51E",
"XX c #FFF200",
"oX c #B99741",
"OX c #DFBD43",
"+X c #E5C347",
"@X c #ECC842",
"#X c #F7D651",
"$X c #006693",
"%X c #16759D",
"&X c #707492",
"*X c #5579A1",
"=X c #3F48CC",
"-X c #BA3F83",
";X c #C307B5",
":X c #D86FA1",
">X c #3282B6",
",X c #3582B6",
"<X c #0C94D3",
"1X c #1294D3",
"2X c #00A2E8",
"3X c #11A8E8",
"4X c #1AABEA",
"5X c #24AFE8",
"6X c #3CB8ED",
"7X c #57C1E9",
"8X c #5EC4F0",
"9X c #61C5E9",
"0X c #75CCE9",
"qX c #79CEEE",
"wX c #808080",
"eX c gray53",
"rX c #848388",
"tX c #8B8B8B",
"yX c gray63",
"uX c gray64",
"iX c #A9A9A9",
"pX c #D69D9B",
"aX c #D18FA5",
"sX c #EF94B9",
"dX c #CBAAAA",
"fX c #CDBBBB",
"gX c #D6B7B7",
"hX c #FFAEC9",
"jX c #99D9EA",
"kX c #80D0F3",
"lX c #B1E2EF",
"zX c #C3C3C3",
"xX c #DEC9C9",
"cX c #D5D3DC",
"vX c #E9D3D2",
"bX c #DFDDE4",
"nX c #C8EBF4",
"mX c #C3E9FA",
"MX c #EAE9ED",
"NX c #F1E7E7",
"BX c #FCE8E7",
"VX c #F5F5F7",
"CX c #FBFAFA",
"ZX c white",
"AX c None",
/* pixels */
"AXAXAXAXAXAXAXAXAXAXAXAXAXAXAXAXAXAXAXAXAXAXAXAXAXAXAXAXAXAXAXAXAXAXAXAXAXAXAXAXAXAXAXAXAXAXAXAXAXAXAXAXAXAXAXAXAXAXAXAX",
"AXAXAXAXAXAXAXAXAXAXAXAXAXAXAXAXAXAXAXAXAXAXAXAXAXAXAXAXAXAXAXAXAXAXAXAXAXAXAXAXAXAXAXAXAXAXAXAXAXAXAXAXAXAXAXAXAXAXAXAX",
"AXAXAXAXAXAXAXAXAXAXAXAXAXAXAXAXAXAXAXAXAXAXAXAXAXAXAXAXAXAXAXAXAXAXAXAXAXAXAXAXAXAXAXAXAXAXAXAXAXAXAXAXAXAXAXAXAXAXAXAX",
"AXAXAXAXAXAXAXAXAXAXAXAXAXAXAXAXAXAXAXAXAXAXAXAXAXAXAXAXAXAXAXAXAXAXAXAXAXAXAXAXAXAXAXAXAXAXAXAXAXAXAXAXAXAXAXAXAXAXAXAX",
"AXAXAXAXAXAXAXAXAXAXAXAXAXAXAXAXAXAXAXAXAXAXAXAXAXAXAXAXAXAXAXAXAXAXAXAXAXAXAXAXAXAXAXAXAXAXAXAXAXAXAXAXAXAXAXAXAXAXAXAX",
"AXAXAXAXAXAXAXAXAXAXAXAXAXAXAXAXAXAXAXAXAXAXAXAXAXAXAXAXAXAXAXAXAXAXAXAXAXAXAXAXAXAXAXAXAXAXAXAXAXAXAXAXAXAXAXAXAXAXAXAX",
"AXAXAXAXAXAXAXAXAXAXAXAXAXAXAXAXAXAXAXAXAXAXAXAXAXAXAXAXAXAXAXAXAXAXAXAXAXAXAXAXAXAXAXAXAXAXAXAXAXAXAXAXAXAXAXAXAXAXAXAX",
"AXAXAXAXAXAXAXAXAXAXAXAXAXAXAXAXAXAXAXAXAXAXAXAXAXAXAXAXAXAXAXAXAXAXAXAXAXAXAXAXAXAXAXAXAXAXAXAXAXAXAXAXAXAXAXAXAXAXAXAX",
"AXAXAXAXAXAXAXAXAXAXAXAXAXAXAXAXAXAXAX  ..rXAXAXAXAXAXAXAXAXAXAXAXAXAXAXAXAXAXAXAXAXAXAXAXAXAXAXAXAXAXAXAXAXAXAXAXAXAXAX",
"AXAXAXAXAXAXAXAXAXAXAXAXAXAXAXAXAXAX  &.cXcXMXAXAXAXAXAXAXAXAXAXAXAXAXAXAXAXAXAXAXAXAXAXAXAXAXAXAXAXAXAXAXAXAXAXAXAXAXAX",
"AXAXAXAXAXAXAXAXAXAXAXAXAXAXAXAXAXAXzXcXcXcXcXy AXAXAXAXAXAXAXAXAXAXAXAXAXAXAXAXAXAXAXAXAXAXAXAXAXAXAXAXAXAXAXAXAXAXAXAX",
"AXAXAXAXAXAXAXAXAXAXAXAXAXAXAXAXAX  &.cXcXcXcXVXAXAXAXAXAXAXAXAXAXAXAXAXAXAXAXAXAXAXAXAXAXAXAXAXAXAXAXAXAXAXAXAXAXAXAXAX",
"AXAXAXAXAXAXAXAXAXAXAXAXAXAXAXAXAXAX  &.cXbXZXj AXAXAXAXAXAXAXAXAX  AXAXAXAXAXAXAXAXAXAXAXAXAXAXAXAXAXAXAXAXAXAXAXAXAXAX",
"AXAXAXAXAXAXAXAXAXAXAXAXAXAXAXAXAXAXu.u.$ % l.4.AXAXAXAXAXAXAXAXAX  AXAXAXAXAXAXAXAXAXAXAXAXAXAXAXAXAXAXAXAXAXAXAXAXAXAX",
"AXAXAXAXAXAXAXAXAXAXAXAXAXAXAXAXAXAX0.u.u.l.l.3.AXAXAXAXO : # > 0 > w AXAXAXAXAXAXAXAXAXAXAXAXAXAXAXAXAXAXAXAXAXAXAXAXAX",
"AXAXAXAXAXAXAXAXAXAXAXAXAXAXAXAXAXAX*.dX6.9.dXG AX  0 : O 0 > # 9 a a # AXAXAXAXAXAXAXAXAXAXAXAXAXAXAXAXAXAXAXAXAXAXAXAX",
"AXAXAXAXAXAXAXAXAXAXAXAXAXAXAXAXAXAXu.t.s.s.h.4.` : . ` o ` ;.' [ [ [ < ; AXAXAXAXAXAXAXAXAXAXAXAXAXAXAXAXAXAXAXAXAXAXAX",
"AXAXAXAXAXAXAXAXAXAXAXAXAXAXAXAXAXAXz u.u.q.5 :   [   : : : : : : : : : : s AXAXAXAXAXAXAXAXAXAXAXAXAXAXAXAXAXAXAXAXAXAX",
"AXAXAXAXAXAXAXAXAXAXAXAXAXAXAXAXAXAXz u.  : + r   [ [ [ { 9 [ [ [ 1.[ [ [ -.AXAXAXAXAXAXAXAXAXAXAXAXAXAXAXAXAXAXAXAXAXAX",
"AXAXAXAXAXAXAXAXAXAXAXAXAXAXAXAXAXAX  : : * 5 r 1.1.1.1.1.%.1.1.1.1.: 1.1.1.1 AXAXAXAXAXAXAXAXAXAXAXAXAXAXAXAXAXAXAXAXAX",
"AXAXAXAXAXAXAXAXAXAXAXAXAXAXAXAX        : * [ p [ [ [ : [ [ [ [ [ [ [ [ [ e [ AXAXAXAXAXAXAXAXAXAXAXAXAXAXAXAXAXAXAXAXAX",
"AXAXAXAXAXAXAXAXAXAXAXAXAXAXAXu fX5.5.5.5.uX] | O.O.O.1._ O.O.O.w O.O.O.O.#.o.1 AXAXAXAXAXAXAXAXAXAXAXAXAXAXAXAXAXAXAXAX",
"AXAXAXAXAXAXAXAXAXAXAXAXAXAX .R.y.u.u.2XkX8.wX8 e e : e e e e q e e e e e e e e   AXAXAXAXAXAXAXAXAXAXAXAXAXAXAXAXAXAXAX",
"AXAXAXAXAXAXAXAXAXAXAXAXAX, f.u.u.u.u.2XlX>Xe.uX[ [ 1.[ [ [ [ 7 [ [ [ [ 4 [ [ [   AXAXAXAXAXAXAXAXAXAXAXAXAXAXAXAXAXAXAX",
"AXAXAXAXAXAXAXAXAXAXAXAX  2 u.u.u.jXl.l.l.l.l.p.ZX: : : : : : : : : : : : : :   AXAXAXAXAXAXAXAXAXAXAXAXAXAXAXAXAXAXAXAX",
"AXAXAXAXAXAXAXAXAXAX  : : 2 6.u.1XZXl.2Xl.,Xl.l.    : [ [ [ a [ [ [ [ [ O.  5X  V AXAXAXAXAXAXAXAXAXAXAXAXAXAXAXAXAXAXAX",
"AXAXAXAXAXAXAXAXAXz z z z z '.'.<XjXl.jX2X5X=.l.u.ZX1.1.1.1.1.<.1.1.1.  u.kX5X  V V AXAXAXAXAXAXAXAXAXAXAXAXAXAXAXAXAXAX",
"AXAXAXAXAXAXM V AXu.u.u.u.u.l.9.NX2Xl.ZX2X5XkXl.l.    [ [ 9 [ [ [   jXl.l.  r [   AXAXV AXAXAXAXAXAXAXAXAXAXAXAXAXAXAXAX",
"AXAXAXAXAXN V A ! ).V u.u.d.*Xz.h.l NX4X<X6XjXT.l.u.ZX<.<.@.,.& jX2XjXg.= $.<.<.<.. N AXAXAXAXAXAXAXAXAXAXAXAXAXAXAXAXAX",
"AXAXAXC AXAXL U.E.V V u.u.7XnX_.pX'.i.9.dX8X9XT.l.l.    +.6 7.j.ZX$X> [ [ [ i [ [ >.w AXC AXB AXAXAXAXAXAXAXAXAXAXAXAXAX",
"m AXAXC T H ~ F V V V 6.u.a.&X_.t.l.ZXdX9.i.'.dX9.l.d g %XqXl.h 0 9 >.>.>.>.:.>.>.w ^ X AXAXAXC AXC V AXAXAXAXAXAXAXAXAX",
"V Z AXN V.V.P L.V V V AXAXv l.l.vXc.l.BXc.gXl.h.s.NXc z 3X- ` ) ' ' ' ' t ' ' . W (.)./.  AXV N v.n.V N AXAXAXAXAXAXAXAX",
"V N V V V V I V AXAXXXAXAXAXU i.t.l.l.l.ZXw.l.l.l.l.z z [ [ [ 7 [ [ [ [ 1.  V.).).V.).).^ AXAX|.|.|.#Xm.AXS.AXAXAXAXAXAX",
"AXN V V AXV M AXAXZXAXAXAXAXH E.x l.l.l.l.xXl.0X2Xl.l.  : : : : : : :   V.W.P.V.).).).  AXAXAX|.#X#X#X.XB.D.AXS.AXAXAXAX",
"AXN AXV V V V B ZX2.AXAXV ).V.V.V.V.z ZXl.w.l.mXZX2Xl.l.o %.[ [ 1.  V.V.).W.!.V.).  AXAXAXAXn.|.n.|.|.|.{.C.S.AXAXS.AXAX",
"AXAXAXV AXV M B V V V V.).J.V.U.V.V.V.V.V.w.l.l.2X2X2Xl.k.w %.@ ).V.).).V.).).  hX=X=XAXAXAXn.#X#X|.|.|.|.|.S.AXS.AXAXS.",
"AXAXAXAXAXV AXV AXV V.R n Q.H.K.~.).V.V.P.( z / l.l.,Xl.k.u.f M.!.).V.).^.S aXsXAXV.V.V.AXAXAXOX.Xn.|.@X X+XAXAXD.AXF.S.",
"AXAXAXAXAXAXAXN B V V.K n J E I.Y.V.W.W.L.AXAXAXz r.l.l.k.u.0.k V.).W.b AXAX:XAXAXAXZXAXAXAXAXAXb.n.#X}.AXAXA.AXA.S.A.D.",
"AXAXAXAXAXAXAXAXAXV V V.n N.K Q V !.!.D AXAXAXAXAXAXAX4.k.u.0.u.  3 ;XhXAXAXAXAXAXAXX.ZXAXAXAXAXAXAXAXAXAXAXS.AXD.S.AXS.",
"AXAXAXAXAXAXAXAXAXAXAXAXn V.Y V.V ).V AXAXAXAXAXAXAXAXAXAX6.z AXAXn hX-XAXAXAXAX: ZX: AXAXAXAXAXAXAXAXD.S.AXS.AXAXS.AXAX",
"AXAXAXAXAXAXAXAXAXAXAXAXAXAXH T V ).V AX].AXZX`.AXAXAXAXAX[.AXAXAXn -XAXAXAXAXZX: AXAXAXAXAXAXAXAXAXS.D.A.AXS.S.AXAXAXAX",
"AXAXAXAXAXAXAXAXAXAXAXAXAXAXAXC V AXV AXV AXAXAXAXAXAXAXZXAXAXAXAXn AXAXAXAXAXAXAXAXAXAXAXAXAXAXS.AXAXD.AXS.S.AXAXAXAXAX",
"AXAXAXAXAXAXAXAXAXAXAXAXAXAXAXAXV V AXAXV AXV AXAXAXAXAXx.AXAXAXAXAXAXAXAXAXAX} AX].AX[.AXAXS.AXAXS.AXS.AXAXAXAXAXAXAXAX",
"AXAXAXAXAXAXAXAXAXAXAXAXAXAXAXAXAXAXAXN AXAXB CXN AXAXAXAXAXAXAXAXAXAXAX: tXAXAXAXAXAXAXAXAXAXS.AXS.AXF.AXAXAXAXAXAXAXAX",
"AXAXAXAXAXAXAXAXAXAXAXAXAXAXAXAXAXAXAXAXAXV AXAXAXAXD.AXAXAXAXAXAXAXAX*.eX| iXAXAXS.AXZ.G.D.AXD.AXAXAXAXAXAXAXAXAXAXAXAX",
"AXAXAXAXAXAXAXAXAXAXAXAXAXAXAXAXAXAXAXAXAXAXAXAXD.AXD.AXS.oXAXAXAXAXyXZXwXAXAXAXD.S.D.AXAXAXAXAXAXAXAXAXAXAXAXAXAXAXAXAX",
"AXAXAXAXAXAXAXAXAXAXAXAXAXAXAXAXAXAXAXAXAXAXAXAXAXAXS.AXD.AXS.D.AXAXAXAXAXAXD.AXS.S.AXD.AXAXAXAXAXAXAXAXAXAXAXAXAXAXAXAX",
"AXAXAXAXAXAXAXAXAXAXAXAXAXAXAXAXAXAXAXAXAXAXAXAXAXAXAXAXS.AXS.S.S.AXAXAXS.AXS.AXAXS.AXAXAXAXAXAXAXAXAXAXAXAXAXAXAXAXAXAX",
"AXAXAXAXAXAXAXAXAXAXAXAXAXAXAXAXAXAXAXAXAXAXAXAXAXAXAXAXS.AXAXS.S.AXS.AXAXA.AXS.AXAXAXAXAXAXAXAXAXAXAXAXAXAXAXAXAXAXAXAX",
"AXAXAXAXAXAXAXAXAXAXAXAXAXAXAXAXAXAXAXAXAXAXAXAXAXAXAXAXAXAXAXS.AXAXS.S.AXS.AXAXAXAXAXAXAXAXAXAXAXAXAXAXAXAXAXAXAXAXAXAX",
"AXAXAXAXAXAXAXAXAXAXAXAXAXAXAXAXAXAXAXAXAXAXAXAXAXAXAXAXAXAXAXAXAXS.AXS.AXAXAXAXAXAXAXAXAXAXAXAXAXAXAXAXAXAXAXAXAXAXAXAX",
"AXAXAXAXAXAXAXAXAXAXAXAXAXAXAXAXAXAXAXAXAXAXAXAXAXAXAXAXAXAXAXAXAXAXAXAXAXAXAXAXAXAXAXAXAXAXAXAXAXAXAXAXAXAXAXAXAXAXAXAX",
"AXAXAXAXAXAXAXAXAXAXAXAXAXAXAXAXAXAXAXAXAXAXAXAXAXAXAXAXAXAXAXAXAXAXAXAXAXAXAXAXAXAXAXAXAXAXAXAXAXAXAXAXAXAXAXAXAXAXAXAX",
"AXAXAXAXAXAXAXAXAXAXAXAXAXAXAXAXAXAXAXAXAXAXAXAXAXAXAXAXAXAXAXAXAXAXAXAXAXAXAXAXAXAXAXAXAXAXAXAXAXAXAXAXAXAXAXAXAXAXAXAX",
"AXAXAXAXAXAXAXAXAXAXAXAXAXAXAXAXAXAXAXAXAXAXAXAXAXAXAXAXAXAXAXAXAXAXAXAXAXAXAXAXAXAXAXAXAXAXAXAXAXAXAXAXAXAXAXAXAXAXAXAX",
"AXAXAXAXAXAXAXAXAXAXAXAXAXAXAXAXAXAXAXAXAXAXAXAXAXAXAXAXAXAXAXAXAXAXAXAXAXAXAXAXAXAXAXAXAXAXAXAXAXAXAXAXAXAXAXAXAXAXAXAX",
"AXAXAXAXAXAXAXAXAXAXAXAXAXAXAXAXAXAXAXAXAXAXAXAXAXAXAXAXAXAXAXAXAXAXAXAXAXAXAXAXAXAXAXAXAXAXAXAXAXAXAXAXAXAXAXAXAXAXAXAX",
"AXAXAXAXAXAXAXAXAXAXAXAXAXAXAXAXAXAXAXAXAXAXAXAXAXAXAXAXAXAXAXAXAXAXAXAXAXAXAXAXAXAXAXAXAXAXAXAXAXAXAXAXAXAXAXAXAXAXAXAX",
"AXAXAXAXAXAXAXAXAXAXAXAXAXAXAXAXAXAXAXAXAXAXAXAXAXAXAXAXAXAXAXAXAXAXAXAXAXAXAXAXAXAXAXAXAXAXAXAXAXAXAXAXAXAXAXAXAXAXAXAX",
"AXAXAXAXAXAXAXAXAXAXAXAXAXAXAXAXAXAXAXAXAXAXAXAXAXAXAXAXAXAXAXAXAXAXAXAXAXAXAXAXAXAXAXAXAXAXAXAXAXAXAXAXAXAXAXAXAXAXAXAX"
};
