/* XPM */
static char *result[] = {
/* columns rows colors chars-per-pixel */
"60 60 12 1 ",
"  c #6DBA5A",
". c #75C860",
"X c #77CC62",
"o c #79CF64",
"O c #7AD064",
"+ c #7BD366",
"@ c #7DD667",
"# c #7ED768",
"$ c #80DA69",
"% c #80DB6A",
"& c #82DE6B",
"* c #87E66F",
/* pixels */
"  O**@@@@@@@@@@@@.  **&@@@@.  **&@@@@@@@  O****&@@@@.  **&@@",
"  O**@@@@@@@@@@@@.  **&@@@@.  **&@@@@@@@  O****&@@@@.  **&@@",
"..XOO&&$@@..+&&@@o..OO#&&@@.  **&@@@@@@@..XOOOO#&&@@.  **&@@",
"@@.  **&@@  O**@@@@@  O**@@.  **&@@@@@@@@@.    O**@@.  **&@@",
"@@.  **&@@  O**@@@@@  O**@@.  **&@@@@@@@@@.    O**@@.  **&@@",
"@@.  **&@@  O**@@@@@  O**@@@@@  O**@@.  **&@@@@.  @@.  **&@@",
"@@.  **&@@  O**@@@@@  O**@@@@@  O**@@.  **&@@@@.  @@.  **&@@",
"@@o..OO#&&  O**@@o..OO#&&@@@@@  O**@@.  **&@@@@o..@@o..OO#&&",
"@@@@@  O**  O**@@.  **&@@@@@@@  O**@@.  **&@@@@@@@@@@@@  O**",
"@@@@@  O**  O**@@.  **&@@@@@@@  O**@@.  **&@@@@@@@@@@@@  O**",
"@@@@@  O**  O**@@.  **&@@  O**@@@@@@@@@@  O**@@@@@@@@@@@@@@@",
"@@@@@  O**  O**@@.  **&@@  O**@@@@@@@@@@  O**@@@@@@@@@@@@@@@",
"@@@@@..+&&..XOO&&X  **&@@  O**@@@@@@@@@@  O**@@@@@&&$@@@@@@@",
"@@@@@@@@@@@@.  **O  **&@@  O**@@@@@@@@@@  O**@@@@@**&@@@@@@@",
"@@@@@@@@@@@@.  **O  **&@@  O**@@@@@@@@@@  O**@@@@@**&@@@@@@@",
"@@.  **&@@@@.  **&@@  O**@@.  **O  **&@@@@@@@@@@@@  O**@@@@@",
"@@.  **&@@@@.  **&@@  O**@@.  **O  **&@@@@@@@@@@@@  O**@@@@@",
"@@o..OO#&&@@o..&&$@@  O**@@.  **#..OO#&&@@@@@..+&&  O**@@@@@",
"@@@@@  O**@@@@@@@@@@  O**@@.  **&@@  O**@@@@@  O**  O**@@@@@",
"@@@@@  O**@@@@@@@@@@  O**@@.  **&@@  O**@@@@@  O**  O**@@@@@",
"@@@@@  O**@@@@@@@@@@@@@@@@@.  *****@@.  **&@@  O**@@.  **&@@",
"@@@@@  O**@@@@@@@@@@@@@@@@@.  *****@@.  **&@@  O**@@.  **&@@",
"@@$&&..XOO&&$@@..+&&@@o..&&+..OO%**@@o..OO#&&..+&&@@o..&&$@@",
"@@&**@@.  **&@@  O**@@.  **&@@  O**@@@@@  O**@@@@@@@@@@@@@@@",
"@@&**@@.  **&@@  O**@@.  **&@@  O**@@@@@  O**@@@@@@@@@@@@@@@",
"@@.  **O  **&@@  O**@@.  **&@@@@@@@@@@@@@@@@@  O**@@@@@@@@@@",
"@@.  **O  **&@@  O**@@.  **&@@@@@@@@@@@@@@@@@  O**@@@@@@@@@@",
"@@.  **#..&&$@@..XOO&&+..OO#&&@@@@@@@@@@@@@@@  O**@@@@@@@@@@",
"@@.  **&@@@@@@@@@.  **&@@  O**@@@@@@@@@@@@@@@  O**@@@@@@@@@@",
"@@.  **&@@@@@@@@@.  **&@@  O**@@@@@@@@@@@@@@@  O**@@@@@@@@@@",
"@@@@@@@.  **&@@@@.  **&@@  O**@@@@@  O**@@@@@  O**@@@@@  O**",
"@@@@@@@.  **&@@@@.  **&@@  O**@@@@@  O**@@@@@  O**@@@@@  O**",
"..+&&@@o..OO#&&@@o..&&$@@..+&&@@@@@  O**@@@@@  O**@@@@@  O**",
"  O**@@@@@  O**@@@@@@@@@@@@@@@@@@@@  O**@@@@@  O**@@@@@  O**",
"  O**@@@@@  O**@@@@@@@@@@@@@@@@@@@@  O**@@@@@  O**@@@@@  O**",
"@@.  **&@@  O**  O**@@@@@@@.  **&@@@@.  **&@@@@.  **&@@@@.  ",
"@@.  **&@@  O**  O**@@@@@@@.  **&@@@@.  **&@@@@.  **&@@@@.  ",
"@@.  **&@@..+&&..XOO&&$@@@@o..OO#&&@@o..&&$@@@@.  **&@@@@o..",
"@@.  **&@@@@@@@@@.  **&@@@@@@@  O**@@@@@@@@@@@@.  **&@@@@@@@",
"@@.  **&@@@@@@@@@.  **&@@@@@@@  O**@@@@@@@@@@@@.  **&@@@@@@@",
"@@@@@  O**@@@@@@@@@@@@@@@@@@@@  O**@@.  *****@@.  **&@@@@@@@",
"@@@@@  O**@@@@@@@@@@@@@@@@@@@@  O**@@.  *****@@.  **&@@@@@@@",
"@@@@@  O**@@@@@@@@@@@@o..&&$@@..XOO&&+..OOOOO&&+..&&+..&&$@@",
"@@@@@  O**@@@@@@@@@@@@.  **&@@@@.  **&@@     **&@@@@.  **&@@",
"@@@@@  O**@@@@@@@@@@@@.  **&@@@@.  **&@@     **&@@@@.  **&@@",
"  O**@@@@@@@.  **&@@@@@@@  O**@@.  **&@@@@@@@@@@@@@@.  **&@@",
"  O**@@@@@@@.  **&@@@@@@@  O**@@.  **&@@@@@@@@@@@@@@.  **&@@",
"  O**@@o..&&+..OO#&&@@@@@  O**@@o..&&$@@@@o..&&$@@@@o..OO#&&",
"  O**@@.  **&@@  O**@@@@@  O**@@@@@@@@@@@@.  **&@@@@@@@  O**",
"  O**@@.  **&@@  O**@@@@@  O**@@@@@@@@@@@@.  **&@@@@@@@  O**",
"@@.  **&@@  O**  O**@@@@@@@.  **&@@  O**@@@@@  O**@@@@@  O**",
"@@.  **&@@  O**  O**@@@@@@@.  **&@@  O**@@@@@  O**@@@@@  O**",
"@@.  **&@@  O**..+&&&&$@@@@o..&&$@@..XOO&&$@@  O**@@@@@..XOO",
"@@.  **&@@  O**@@@@@**&@@@@@@@@@@@@@@.  **&@@  O**@@@@@@@.  ",
"@@.  **&@@  O**@@@@@**&@@@@@@@@@@@@@@.  **&@@  O**@@@@@@@.  ",
"@@@@@@@@@@@@.  **&@@@@@@@  O****&@@@@@@@  O**@@.  **&@@@@@@@",
"@@@@@@@@@@@@.  **&@@@@@@@  O****&@@@@@@@  O**@@.  **&@@@@@@@",
"@@@@@@@@@@@@.  **&@@@@@@@..XOOOO#&&&&$@@..XOO&&+..&&$@@@@@@@",
"@@@@@@@@@@@@.  **&@@@@@@@@@.    O****&@@@@.  **&@@@@@@@@@@@@",
"@@@@@@@@@@@@.  **&@@@@@@@@@.    O****&@@@@.  **&@@@@@@@@@@@@"
};
