/* XPM */
static char *result[] = {
/* columns rows colors chars-per-pixel */
"60 60 138 2 ",
"   c #E9691B",
".  c #EF8224",
"X  c #F59323",
"o  c #F59423",
"O  c #F79F2B",
"+  c #F39A2D",
"@  c #F49A2D",
"#  c #F49B2D",
"$  c #F59E2C",
"%  c #FBA526",
"&  c #FBAC27",
"*  c #FBAE27",
"=  c #FCAD27",
"-  c #FCAE27",
";  c #FDAE27",
":  c #FDAF27",
">  c #FEAE27",
",  c #FEAF27",
"<  c #FFAF27",
"1  c #F8A62B",
"2  c #FBAD28",
"3  c #FBAE28",
"4  c #FCAD28",
"5  c #FCAE28",
"6  c #FDAE28",
"7  c #FCAF28",
"8  c #FDAF28",
"9  c #FEAE28",
"0  c #FEAF28",
"q  c #FFAF28",
"w  c #FEB027",
"e  c #FFB027",
"r  c #FCB029",
"t  c #FDB029",
"y  c #FEB028",
"u  c #FFB028",
"i  c #FEB128",
"p  c #FFB128",
"a  c #FEB129",
"s  c #FFB129",
"d  c #FCB22A",
"f  c #FDB22A",
"g  c #FDB22B",
"h  c #FEB22A",
"j  c #FEB32A",
"k  c #FFB32A",
"l  c #FFB42A",
"z  c #FDB42C",
"x  c #FDB52D",
"c  c #FEB42C",
"v  c #FEB52C",
"b  c #FDB72D",
"n  c #FEB62D",
"m  c #FEB72D",
"M  c #FDB62E",
"N  c #FDB72E",
"B  c #FDB82F",
"V  c #FEB82E",
"C  c #FFB82E",
"Z  c #FEB92F",
"A  c #FEBA2F",
"S  c #FFBA2F",
"D  c #F5A431",
"F  c #F6A932",
"G  c #F7B236",
"H  c #F8B135",
"J  c #F8B336",
"K  c #FBB734",
"L  c #FCBA31",
"P  c #FDBA31",
"I  c #FCBB31",
"U  c #FDBB31",
"Y  c #FFBA30",
"T  c #FEBB30",
"R  c #FFBB30",
"E  c #FEBB31",
"W  c #FDBC31",
"Q  c #FDBC32",
"!  c #FDBD33",
"~  c #FEBD32",
"^  c #FFBD32",
"/  c #FDBE33",
"(  c #FFBE32",
")  c #FEBE33",
"_  c #FFBF33",
"`  c #FDBE34",
"'  c #FDC034",
"]  c #FCC035",
"[  c #FEC135",
"{  c #FEC235",
"}  c #FDC337",
"|  c #FEC337",
" . c #FEC437",
".. c #FFC437",
"X. c #FEC537",
"o. c #FFC537",
"O. c #FBC13B",
"+. c #FCC538",
"@. c #FEC538",
"#. c #FCC639",
"$. c #FEC63A",
"%. c #FCC83B",
"&. c #FEC93B",
"*. c #FDCA3B",
"=. c #FFCA3B",
"-. c #FCC83D",
";. c #FDCB3D",
":. c #FFCB3C",
">. c #FCCA3E",
",. c #FDCB3E",
"<. c #FECC3D",
"1. c #FFCD3D",
"2. c #FDCD3E",
"3. c #FECD3F",
"4. c #FCCF3F",
"5. c #FECE3E",
"6. c #FFCE3E",
"7. c #FFCF3E",
"8. c #FECF3F",
"9. c #FCCF40",
"0. c #FDCF40",
"q. c #FCD040",
"w. c #FDD040",
"e. c #FDD140",
"r. c #FDD041",
"t. c #FCD141",
"y. c #FDD141",
"u. c #FED040",
"i. c #FED140",
"p. c #FFD140",
"a. c #FED141",
"s. c #FDD241",
"d. c #FED240",
"f. c #FED241",
"g. c #FFD241",
"h. c #FED341",
"j. c #FFD341",
"k. c None",
/* pixels */
"k.k.k.k.k.k.k.k.k.k.k.k.k.k.k.k.k.k.k.k.k.k.k.k.k.k.k.k.k.k.k.k.k.k.k.k.k.k.k.k.k.k.k.k.k.k.k.k.k.k.k.k.k.k.k.k.k.k.k.k.",
"k.k.k.k.k.k.k.k.k.k.k.k.k.k.k.k.k.k.k.k.k.k.k.k.k.k.k.k.k.k.k.k.k.k.k.k.k.k.k.k.k.k.k.k.k.k.k.k.k.k.k.k.k.k.k.k.k.k.k.k.",
"k.k.k.k.k.k.k.k.k.k.k.k.k.k.k.k.k.k.k.k.k.k.k.k.k.k.k.k.k.k.k.k.k.k.k.k.k.k.k.k.k.k.k.k.k.k.k.k.k.k.k.k.k.k.k.k.k.k.k.k.",
"k.k.k.k.k.k.k.k.k.k.k.k.k.k.k.k.k.k.k.k.k.k.k.k.k.k.k.k.k.k.k.k.k.k.k.k.k.k.k.k.k.k.k.k.k.k.k.k.k.k.k.k.k.k.k.k.k.k.k.k.",
"k.k.k.k.k.k.k.k.k.k.k.k.k.k.k.k.k.k.k.k.k.k.k.k.k.k.k.k.k.k.k.k.k.k.k.k.k.k.k.k.k.k.k.k.k.k.k.k.k.k.k.k.k.k.k.k.k.k.k.k.",
"k.k.k.k.k.k.k.k.k.k.k.k.k.k.k.k.k.k.k.k.k.k.k.k.k.k.k.k.k.k.k.k.k.k.k.k.k.k.k.k.k.k.k.k.k.k.k.k.k.k.k.k.k.k.k.k.k.k.k.k.",
"k.k.k.k.k.k.k.k.k.k.k.k.k.k.k.k.k.k.k.k.k.k.k.k.k.k.k.k.k.k.k.k.k.k.k.k.k.k.k.k.k.k.k.k.k.k.k.k.k.k.k.k.k.k.k.k.k.k.k.k.",
"k.k.k.k.k.k.k.k.k.k.k.k.k.k.k.k.k.k.k.k.k.k.k.k.k.k.k.k.k.k.k.k.k.k.k.k.k.k.k.k.k.k.k.k.k.k.k.k.k.k.k.k.k.k.k.k.k.k.k.k.",
"k.k.k.k.k.k.k.k.k.k.k.k.k.k.k.k.k.k.k.k.k.k.k.k.k.k.k.k.k.k.k.k.k.k.k.k.k.k.k.k.k.k.k.k.k.k.k.k.k.k.k.k.k.k.k.k.k.k.k.k.",
"k.k.k.k.k.k.k.k.k.k.k.k.k.k.k.k.k.k.k.k.k.k.k.k.k.k.k.k.k.k.k.k.k.k.k.k.k.k.k.k.k.k.k.k.k.k.k.k.k.k.k.k.k.k.k.k.k.k.k.k.",
"k.k.k.k.k.k.k.k.k.k.k.k.k.k.k.k.k.k.k.k.k.k.k.k.k.k.k.k.k.k.k.k.k.k.k.k.k.k.k.k.k.k.k.k.k.k.k.k.k.k.k.k.k.k.k.k.k.k.k.k.",
"k.k.k.k.k.k.k.k.k.k.k.k.k.k.k.k.k.k.k.k.k.k.k.k.k.k.k.k.k.k.k.k.k.k.k.k.k.k.k.k.k.k.k.k.k.k.k.k.k.k.k.k.k.k.k.k.k.k.k.k.",
"k.k.k.k.k.k.k.k.k.k.k.k.k.k.k.k.k.k.k.k.k.k.k.k.k.k.8 5 8 u k.k.k.k.k.k.k.k.k.k.k.k.k.k.k.k.k.k.k.k.k.k.k.k.k.k.k.k.k.k.",
"k.k.k.k.k.k.k.k.k.k.k.k.k.k.k.k.k.k.k.k.k.k.k.k.k.k.k.k.k.y 3 k.k.k.k.k.k.k.k.k.k.k.k.k.k.k.k.k.k.k.k.k.k.k.k.k.k.k.k.k.",
"k.k.k.k.k.k.k.k.k.k.k.k.k.k.k.k.k.k.k.k.k.k.k.k.k.k.k.k.k.3 3 k.k.k.k.k.k.k.k.k.k.k.k.k.k.k.k.k.k.k.k.k.k.k.k.k.k.k.k.k.",
"k.k.k.k.k.k.k.k.k.k.k.k.k.k.k.k.k.k.k.k.k.k.k.k.k.k.k.k.k.5 y k.k.k.k.k.k.k.k.k.k.k.k.k.k.k.k.k.k.k.k.k.k.k.k.k.k.k.k.k.",
"k.k.k.k.k.k.k.k.k.k.k.k.k.k.k.k.k.k.k.k.k.k.k.k.k.k.8 5 6 q q 6 5 0 k.k.k.k.k.k.k.k.k.k.k.k.k.k.k.k.k.k.k.k.k.k.k.k.k.k.",
"k.k.k.k.k.k.k.k.k.k.k.k.k.k.k.k.k.k.k.k.k.k.k.k.k.0 6 f Y ..} I j u 6 k.k.k.k.k.k.k.k.k.k.k.k.k.k.k.k.k.k.k.k.k.k.k.k.k.",
"k.k.k.k.k.k.k.k.k.k.k.k.k.k.k.k.k.k.k.k.k.k.k.k.0 x / 1.u.y.t.i.1.B 6 0 k.k.k.k.k.k.k.k.k.k.k.k.k.k.k.k.k.k.k.k.k.k.k.k.",
"k.k.k.k.k.k.k.k.k.k.k.k.k.k.k.k.k.k.k.k.k.k.k.k.5 ' j.f.t.q.f.g.y.%.v e k.k.k.k.k.k.k.k.k.k.k.k.k.k.k.k.k.k.k.k.k.k.k.k.",
"k.k.k.k.k.k.k.k.k.k.k.k.k.k.k.k.k.k.k.k.k.k.k.5 M :.g.r.q.a.g.w.q.a.:.N 4 k.k.k.k.k.k.k.k.k.k.k.k.k.k.k.k.k.k.k.k.k.k.k.",
"k.k.k.k.k.k.k.k.k.k.k.k.k.k.k.k.k.k.k.k.k.k.2 t o.g.r.q.f.g.r.q.a.g.s.Q > k.k.k.k.k.k.k.k.k.k.k.k.k.k.k.k.k.k.k.k.k.k.k.",
"k.k.k.k.k.k.k.k.k.k.k.k.k.k.k.k.k.k.k.k.k.k.k.l 7.w.q.f.g.w.q.d.g.e.t.X.p k.k.k.k.k.k.k.k.k.k.k.k.k.k.k.k.k.k.k.k.k.k.k.",
"k.k.k.k.k.k.k.k.k.k.k.k.k.k.k.k.k.k.k.k.k.k.9 k 2.r.a.g.w.q.a.g.y.w.a.6.f 2 k.k.k.k.k.k.k.k.k.k.k.k.k.k.k.k.k.k.k.k.k.k.",
"k.k.k.k.k.k.k.k.k.k.k.k.k.k.k.k.k.k.k.k.k.k.0 g 2.f.g.r.q.a.g.e.w.a.g.2.g 8 k.k.k.k.k.k.k.k.k.k.k.k.k.k.k.k.k.k.k.k.k.k.",
"k.k.k.k.k.k.k.k.k.k.k.k.k.k.k.k.k.k.k.k.k.0 6 f 5.g.r.w.a.g.y.q.a.g.y.2.h e 8 k.k.k.k.k.k.k.k.k.k.k.k.k.k.k.k.k.k.k.k.k.",
"k.k.k.k.k.k.k.k.k.k.k.k.k.k.k.k.k.k.k.k.k.; 7 ) p.r.w.a.g.y.w.i.g.e.r.u._ a 6 k.k.k.k.k.k.k.k.k.k.k.k.k.k.k.k.k.k.k.k.k.",
"k.k.k.k.k.k.k.k.k.k.k.k.k.k.k.k.k.k.k.k.r P @.p.y.w.a.g.e.w.a.g.e.w.a.g.u.#.c 0 k.k.k.k.k.k.k.k.k.k.k.k.k.k.k.k.k.k.k.k.",
"k.k.k.k.k.k.k.k.k.k.k.k.k.k.k.k.k.k.k.* d 8.j.e.q.a.g.e.q.e.g.i.w.i.g.a.q.f. .y 7 k.k.k.k.k.k.k.k.k.k.k.k.k.k.k.k.k.k.k.",
"k.k.k.k.k.k.k.k.k.k.k.k.k.k.k.k.k.k.k.- ~ p.e.q.a.g.y.w.e.g.y.q.a.g.a.w.a.f.u.W , k.k.k.k.k.k.k.k.k.k.k.k.k.k.k.k.k.k.k.",
"k.k.k.k.k.k.k.k.k.k.k.k.k.k.k.k.k.k.5 v =.y.q.a.g.y.w.a.g.y.w.e.g.i.w.a.f.i.y.&.n 0 k.k.k.k.k.k.k.k.k.k.k.k.k.k.k.k.k.k.",
"k.k.k.k.k.k.k.k.k.k.k.k.k.k.k.k.k.k., ( e.q.d.g.e.q.i.g.i.q.e.g.a.w.e.g.a.q.i.f.[ 5 k.k.k.k.k.k.k.k.k.k.k.k.k.k.k.k.k.k.",
"k.k.k.k.k.k.k.k.k.k.k.k.k.k.k.k.k.0 s ` q.a.g.y.w.a.g.e.w.a.g.a.r.a.g.a.w.a.f.a.] 0 k.k.k.k.k.k.k.k.k.k.k.k.k.k.k.k.k.k.",
"k.k.k.k.k.k.k.k.k.k.k.k.k.k.k.k.k.< U 4.a.g.e.w.a.g.e.w.i.g.i.w.a.g.a.w.a.g.a.;.A u 8 k.k.k.k.k.k.k.k.k.k.k.k.k.k.k.k.k.",
"k.k.k.k.k.k.k.k.k.k.k.k.k.k.k.k.k.= Q f.g.y.q.a.g.e.w.a.g.a.w.e.g.a.w.a.g.e.0.T e 0 5 k.k.k.k.k.k.k.k.k.k.k.k.k.k.k.k.k.",
"k.k.k.k.k.k.k.k.k.k.k.k.k.k.k.k.k.& ~ j.y.w.i.g.e.w.a.g.a.w.a.g.a.w.a.g.a.y.<.k , 8 8 k.k.k.k.k.k.k.k.k.k.k.k.k.k.k.k.k.",
"k.k.k.k.k.k.k.k.k.k.k.k.k.k.k.k.k.; ^ y.w.a.g.e.w.a.g.i.q.a.f.a.w.a.g.a.r.<.S 0 8 8 u k.k.k.k.k.k.k.k.k.k.k.k.k.k.k.k.k.",
"k.k.k.k.k.k.k.k.k.k.k.k.k.k.k.k.k.< b %.e.g.f.s.i.g.f.e.a.f.i.q.a.g.e.y.<.R : 5 0 u 8 k.k.k.k.k.k.k.k.k.k.k.k.k.k.k.k.k.",
"k.k.k.k.k.k.k.k.k.k.k.k.k.k.k.k.k.k.6 ! g.a.G + ,.f.>.,.f.a.w.i.f.a.y.5.S : 8 8 u 0 k.k.k.k.k.k.k.k.k.k.k.k.k.k.k.k.k.k.",
"k.k.k.k.k.k.k.k.k.k.k.k.k.k.k.k.k.k.0 C ;.y.J # ,.s.+ @ f.w.a.f.a.;.| S 0 5 8 u 0 5 k.k.k.k.k.k.k.k.k.k.k.k.k.k.k.k.k.k.",
"k.k.k.k.k.k.k.k.k.k.k.k.k.k.k.k.k.k.u > L w.j.h.y.f.H H t.i.f.f.9.E < , 8 , e 8 5 5 k.k.k.k.k.k.k.k.k.k.k.k.k.k.k.k.k.k.",
"k.k.k.k.k.k.k.k.k.k.k.k.k.k.k.k.k.k.k.5 h 1.f.9.-.3.a.y.h.g.5.+.E s 0 8 8 e 0 6 8 k.k.k.k.k.k.k.k.k.k.k.k.k.k.k.k.k.k.k.",
"k.k.k.k.k.k.k.k.k.k.k.k.k.k.k.k.k.k.k.k.u Z *.-.. D y.O.F K z a < 0 8 8 u 0 8 8 k.k.k.k.k.k.k.k.k.k.k.k.k.k.k.k.k.k.k.k.",
"k.k.k.k.k.k.k.k.k.k.k.k.k.k.k.k.k.k.k.k.k.6 m $.$ 1 { O   o y e 0 8 8 u 0 5 8 k.k.k.k.k.k.k.k.k.k.k.k.k.k.k.k.k.k.k.k.k.",
"k.k.k.k.k.k.k.k.k.k.k.k.k.k.k.k.k.k.k.k.k.8 w V N 0 u % X % u 0 8 8 u 0 8 8 u k.k.k.k.k.k.k.k.k.k.k.k.k.k.k.k.k.k.k.k.k.",
"k.k.k.k.k.k.k.k.k.k.k.k.k.k.k.k.k.k.k.k.k.k.k.6 0 u 0 8 i u 0 8 8 u 0 6 8 k.k.k.k.k.k.k.k.k.k.k.k.k.k.k.k.k.k.k.k.k.k.k.",
"k.k.k.k.k.k.k.k.k.k.k.k.k.k.k.k.k.k.k.k.k.k.k.k.0 8 6 0 e : 5 0 u 0 7 6 k.k.k.k.k.k.k.k.k.k.k.k.k.k.k.k.k.k.k.k.k.k.k.k.",
"k.k.k.k.k.k.k.k.k.k.k.k.k.k.k.k.k.k.k.k.k.k.k.k.k.k.k.u : 8 8 u 0 k.k.k.k.k.k.k.k.k.k.k.k.k.k.k.k.k.k.k.k.k.k.k.k.k.k.k.",
"k.k.k.k.k.k.k.k.k.k.k.k.k.k.k.k.k.k.k.k.k.k.k.k.k.k.k.k.k.k.k.k.k.k.k.k.k.k.k.k.k.k.k.k.k.k.k.k.k.k.k.k.k.k.k.k.k.k.k.k.",
"k.k.k.k.k.k.k.k.k.k.k.k.k.k.k.k.k.k.k.k.k.k.k.k.k.k.k.k.k.k.k.k.k.k.k.k.k.k.k.k.k.k.k.k.k.k.k.k.k.k.k.k.k.k.k.k.k.k.k.k.",
"k.k.k.k.k.k.k.k.k.k.k.k.k.k.k.k.k.k.k.k.k.k.k.k.k.k.k.k.k.k.k.k.k.k.k.k.k.k.k.k.k.k.k.k.k.k.k.k.k.k.k.k.k.k.k.k.k.k.k.k.",
"k.k.k.k.k.k.k.k.k.k.k.k.k.k.k.k.k.k.k.k.k.k.k.k.k.k.k.k.k.k.k.k.k.k.k.k.k.k.k.k.k.k.k.k.k.k.k.k.k.k.k.k.k.k.k.k.k.k.k.k.",
"k.k.k.k.k.k.k.k.k.k.k.k.k.k.k.k.k.k.k.k.k.k.k.k.k.k.k.k.k.k.k.k.k.k.k.k.k.k.k.k.k.k.k.k.k.k.k.k.k.k.k.k.k.k.k.k.k.k.k.k.",
"k.k.k.k.k.k.k.k.k.k.k.k.k.k.k.k.k.k.k.k.k.k.k.k.k.k.k.k.k.k.k.k.k.k.k.k.k.k.k.k.k.k.k.k.k.k.k.k.k.k.k.k.k.k.k.k.k.k.k.k.",
"k.k.k.k.k.k.k.k.k.k.k.k.k.k.k.k.k.k.k.k.k.k.k.k.k.k.k.k.k.k.k.k.k.k.k.k.k.k.k.k.k.k.k.k.k.k.k.k.k.k.k.k.k.k.k.k.k.k.k.k.",
"k.k.k.k.k.k.k.k.k.k.k.k.k.k.k.k.k.k.k.k.k.k.k.k.k.k.k.k.k.k.k.k.k.k.k.k.k.k.k.k.k.k.k.k.k.k.k.k.k.k.k.k.k.k.k.k.k.k.k.k.",
"k.k.k.k.k.k.k.k.k.k.k.k.k.k.k.k.k.k.k.k.k.k.k.k.k.k.k.k.k.k.k.k.k.k.k.k.k.k.k.k.k.k.k.k.k.k.k.k.k.k.k.k.k.k.k.k.k.k.k.k.",
"k.k.k.k.k.k.k.k.k.k.k.k.k.k.k.k.k.k.k.k.k.k.k.k.k.k.k.k.k.k.k.k.k.k.k.k.k.k.k.k.k.k.k.k.k.k.k.k.k.k.k.k.k.k.k.k.k.k.k.k.",
"k.k.k.k.k.k.k.k.k.k.k.k.k.k.k.k.k.k.k.k.k.k.k.k.k.k.k.k.k.k.k.k.k.k.k.k.k.k.k.k.k.k.k.k.k.k.k.k.k.k.k.k.k.k.k.k.k.k.k.k.",
"k.k.k.k.k.k.k.k.k.k.k.k.k.k.k.k.k.k.k.k.k.k.k.k.k.k.k.k.k.k.k.k.k.k.k.k.k.k.k.k.k.k.k.k.k.k.k.k.k.k.k.k.k.k.k.k.k.k.k.k."
};
