/* XPM */
static char *result[] = {
/* columns rows colors chars-per-pixel */
"60 60 55 1 ",
"  c #1C1919",
". c #1C1A1A",
"X c #1D1B1B",
"o c #272524",
"O c #373333",
"+ c #3B3736",
"@ c #3E3A39",
"# c #403B3B",
"$ c #464140",
"% c #494544",
"& c #4A4544",
"* c #4E4947",
"= c #544E4D",
"- c #595352",
"; c #5E5756",
": c #615A59",
"> c #645D5B",
", c #665F5D",
"< c #665F5E",
"1 c #6C6563",
"2 c #6F6766",
"3 c #706867",
"4 c #716968",
"5 c #746C6A",
"6 c #766D6C",
"7 c #776F6D",
"8 c #78706E",
"9 c #7E7674",
"0 c #817877",
"q c #877E7C",
"w c #8B8280",
"e c #8D8381",
"r c #908684",
"t c #928886",
"y c #988E8C",
"u c #998F8D",
"i c #9C918F",
"p c #9D9290",
"a c #9E9391",
"s c #ADA29F",
"d c #AEA2A0",
"f c #B6AAA7",
"g c #B8ABA9",
"h c #B9ACAA",
"j c #C2B5B3",
"k c #C6B9B6",
"l c #C8BBB8",
"z c #CCBFBC",
"x c #CEC0BD",
"c c #DECFCC",
"v c #E6D7D3",
"b c #E7D7D4",
"n c #F7E6E2",
"m c #FFEEEA",
"M c None",
/* pixels */
"MMMMMMMMMMMMMMMMMMMMMMMMMMMMMMMMMMMMMMMMMMMMMMMMMMMMMMMMMMMM",
"MMMMMMMMMMMMMMMMMMMMMMMMMMMMMMMMMMMMMMMMMMMMMMMMMMMMMMMMMMMM",
"MMMMMMMMMMMMMMMMMMMMMMMMMMM++.........MMMMMMMMMMMMMMMMMMMMMM",
"MMMMMMMMMMMMMMMMMMMMMMMMMMM++.........MMMMMMMMMMMMMMMMMMMMMM",
"MMMMMMMMMMMMMMMMMMMMMMMMX  xxkksssst@@  MMMMMMMMMMMMMMMMMMMM",
"MMMMMMMMMMMMMMMMMMMMMMMM ..mmmmcccch&&..MMMMMMMMMMMMMMMMMMMM",
"MMMMMMMMMMMMMMMMMMMMMMMM ..mmmmcccch&&..MMMMMMMMMMMMMMMMMMMM",
"MMMMMMMMMMMMMMMMMMMMMM..kmmmmmmaaccccc&&....MMMMMMMMMMMMMMMM",
"MMMMMMMMMMMMMMMMMMMMMM..kmmmmmmaaccccc&&....MMMMMMMMMMMMMMMM",
"MMMMMMMMMMMMMMMMMMMMMM..kmmmmmmaaaayqqmmmm&&o..MMMMMMMMMMMMM",
"MMMMMMMMMMMMMMMMMMMMMM..kmmmmmmaaaayqqmmmm&&o..MMMMMMMMMMMMM",
"MMMMMMMMMMMMMMMM......mmmmmmmccccaaaaaqqmm&&&&&..MMMMMMMMMMM",
"MMMMMMMMMMMMMMMM......mmmmmmmccccaaaaaqqmm&&&&&..MMMMMMMMMMM",
"MMMMMMMMMMM&&&&7mmmmmmmmmmmaaaaccqqeaaqqqq&&&&&..MMMMMMMMMMM",
"MMMMMMMMMMM&&&&7mmmmmmmmmmmaaaaccqqeaaqqqq&&&&&..MMMMMMMMMMM",
"MMMMMMMMMMM&&77ummbbbbmmmmmddddccqqwyyeeqq&&&&&ooMMMMMMMMMMM",
"MMMMMMMMM&&&&mmmmmaaaammmmmccccccqqqqqaaqq&&&&&&&..MMMMMMMMM",
"MMMMMMMMM&&&&mmmmmaaaammmmmccccccqqqqqaaqq&&&&&&&..MMMMMMMMM",
"MMMMMMMMM&&mmmmnccaammmmmmmaammccqqqqqqqaaqq-&&&&..MMMMMMMMM",
"MMMMMMMMM&&mmmmnccaammmmmmmaammccqqqqqqqaaqq-&&&&..MMMMMMMMM",
"MMMMMMM&&mmmmccxaaaammcccccaaccccqqeaaaa33qq-&&&&..MMMMMMMMM",
"MMMMMMM&&mmmmccxaaaammcccccaaccccqqeaaaa33qq-&&&&..MMMMMMMMM",
"MMMMMMM&&mmmmcch&&mmmmqqyaaccccccqqqqqqq33qqqqq&&..MMMMMMMMM",
"MMMMMMM&&mmmmcch&&mmmmqqyaaccccccqqqqqqq33qqqqq&&..MMMMMMMMM",
"MMMMMMM&&mmmmddi<<ffmmllzxxppppccllgqqll3366ryy&&@@  MMMMMMM",
"MMMMMMM&&mmmmaat33aammcccccqqqqcccclqqcc3333taa&&&&..MMMMMMM",
"MMMMMMM&&mmmmaat33aammcccccqqqqcccclqqcc3333taa&&&&..MMMMMMM",
"MMMMMMM&&mmccccj33qqmmccpqqaaaacccccccccccaaeqq&&&&..MMMMMMM",
"MMMMMMM&&mmccccj33qqmmccpqqaaaacccccccccccaaeqq&&&&..MMMMMMM",
"MMMM%&&ccaaccccj33qqccqqqqqqqaaccqqeaaaaccaaxcc&&&&..MMMMMMM",
"MMMM%&&ccaaccccj33qqccqqqqqqqaaccqqeaaaaccaaxcc&&&&..MMMMMMM",
"MMMM%&&aammccqq033qqqqaaaaaqqaaccaayqqaaaa++5qqqq&&..MMMMMMM",
"MMMM%&&aammccqq033qqqqaaaaaqqaaccaayqqaaaa++5qqqq&&..MMMMMMM",
"MM&&&&&ccaaqqqq5++qqccccdaaccqqccqqeaaqqqqqq*++qq&&&&.. MMMM",
"MM&&&&&ccaaqqqq5++qqccccdaaccqqccqqeaaqqqqqq*++qq&&&&.. MMMM",
"MM&&,22vvyyqqqq5++ppccccdaaxxqqll559aaeeqqee;**qq--&&.. MMMM",
"MM&&hccmmqqqqqq5++ccccccdaaaaqqqq++=aaaaqqaaeqqqqqq&&.. MMMM",
"MM&&hccmmqqqqqq5++ccccccdaaaaqqqq++=aaaaqqaaeqqqqqq&&.. MMMM",
"MM..sccqqaaqq+++++ccqqaaeqqqqaaqqaaaaaaaaaaaaaa&&qq&&.. MMMM",
"MM..sccqqaaqq+++++ccqqaaeqqqqaaqqaaaaaaaaaaaaaa&&qq&&.. MMMM",
"MM..1qqqqqqqq++*qqqqaaqqqqqaaaaaa++*qqqqaaqqyaaaaaa&&&&@..MM",
"MM..1qqqqqqqq++*qqqqaaqqqqqaaaaaa++*qqqqaaqqyaaaaaa&&&&@..MM",
"MM..@&&qqqq&&++*qqqqccccpqqaaaaaaqqpccaaccqqyaaaa++&&&&@..MM",
"MM..@&&qqqq&&++*qqqqccccpqqaaaaaaqqpccaaccqqyaaaa++&&&&@..MM",
"MM..:88--qq88++*qqllccppuyyeeeeeeqqpccaaccll4==ee$$&&&&@..MM",
"MM..1qq&&qqqq++*qqccccqqyaaqqqqqqqqpccaacccc>++qq&&&&&&@..MM",
"MM..1qq&&qqqq++*qqccccqqyaaqqqqqqqqpccaacccc>++qq&&&&&&@..MM",
"MM..O##&&&&qq++*qqaaqq&&8qqqq&&qqqqqqqqqqqcc2&&&&&&&&.. MMMM",
"MM..O##&&&&qq++*qqaaqq&&8qqqq&&qqqqqqqqqqqcc2&&&&&&&&.. MMMM",
"MMMM ..........o&&aaaaqqqqq&&qqqqcccccqq&&&&&&&&&&&..MMMMMMM",
"MMMM ..........o&&aaaaqqqqq&&qqqqcccccqq&&&&&&&&&&&..MMMMMMM",
"MMMMMMMMMMMMM..o&&&&&&qqqqqqqqqccccccc&&&&&&&&&....MMMMMMMMM",
"MMMMMMMMMMMMM..o&&&&&&qqqqqqqqqccccccc&&&&&&&&&....MMMMMMMMM",
"MMMMMMMMMMMMMMMM...............................MMMMMMMMMMMMM",
"MMMMMMMMMMMMMMMM...............................MMMMMMMMMMMMM",
"MMMMMMMMMMMMMMMM                               MMMMMMMMMMMMM",
"MMMMMMMMMMMMMMMMMMMMMMMMMMMMMMMMMMMMMMMMMMMMMMMMMMMMMMMMMMMM",
"MMMMMMMMMMMMMMMMMMMMMMMMMMMMMMMMMMMMMMMMMMMMMMMMMMMMMMMMMMMM",
"MMMMMMMMMMMMMMMMMMMMMMMMMMMMMMMMMMMMMMMMMMMMMMMMMMMMMMMMMMMM",
"MMMMMMMMMMMMMMMMMMMMMMMMMMMMMMMMMMMMMMMMMMMMMMMMMMMMMMMMMMMM"
};
